<?xml version="1.0" encoding="UTF-8"?><svg id="Layer_1" xmlns="http://www.w3.org/2000/svg" viewBox="0 0 689.19 755.77"><defs><style>.cls-1{fill:#fff;}.cls-2{fill:#f7e5d0;}.cls-3{fill:#47b2c0;}.cls-4{fill:#93d2e0;}</style></defs><path class="cls-2" d="m589.15,125.47c1.8.73,2.46,1.96,2.8,3.3.53,2.07,1.06,4.16,1.31,6.27.75,6.21,1.36,12.44,2.02,18.67.51,4.86,1.07,9.71,1.49,14.57,1.24,14.31,2.4,28.62,3.62,42.93.69,8.07,1.36,16.13,2.17,24.19.86,8.51,1.87,16.99,2.8,25.49.18,1.67.27,3.35.42,5.03.95,10.8,1.75,21.62,2.89,32.41,2.38,22.66,3.03,45.43,4.29,68.16.89,16.02,1.82,32.05,2.91,48.06.68,10.06,1.41,20.12,2.58,30.13,2.21,18.85,2.45,37.81,3.56,56.72.02.31.01.61.02.92.35,11.15.63,22.29,1.08,33.44.45,11.15,1.05,22.29,1.62,33.43.2,3.97.55,7.93.75,11.9.08,1.5.38,3.06-.51,4.53-1.51,1.19-3.16.62-4.77.22-5.92-1.48-11.88-2.87-17.75-4.54-15.72-4.47-31.42-8.98-47.08-13.65-4.96-1.48-9.77-3.49-14.65-5.25-2.01-.73-4.01-1.47-6.03-2.17-3.74-1.29-7.48-2.56-11.53-3.95-3.43,1.67-7.16,3.42-10.82,5.3-13.46,6.89-26.94,13.74-40.32,20.77-13.52,7.11-26.91,14.45-40.03,22.29-8.52,5.09-17.13,10.08-26.03,14.45-7.66,3.76-15.77,6.59-23.7,9.78-1.73.7-3.5.73-5.38.3-10.43-2.37-20.81-4.89-30.99-8.17-9.59-3.09-19.21-6.12-28.77-9.3-8.26-2.75-16.42-5.78-24.68-8.52-9.12-3.03-18.32-5.84-27.46-8.83-3.33-1.09-6.56-2.52-9.88-3.66-2.59-.89-5.25-1.59-7.77-2.34-8.26,2.92-16.33,5.75-24.37,8.63-13.37,4.78-26.91,9.04-40.55,12.99-7.77,2.25-15.42,4.91-23.09,7.47-9.99,3.33-19.98,6.67-29.93,10.12-7.64,2.64-15.23,5.45-22.9,8.21-1.31-.25-2.65-.5-4.13-.78-.25-.51-.67-1.02-.75-1.57-.65-4.53-1.26-9.07-1.85-13.61-.94-7.26-1.89-14.52-2.75-21.79-.38-3.19-.56-6.39-.81-9.59-.9-11.73-1.8-23.45-2.69-35.18-.22-2.9-.36-5.8-.62-8.69-.43-4.86-.93-9.72-1.39-14.59-.1-1.06-.17-2.13-.24-3.2-1.09-18.16-2.14-36.31-3.29-54.46-.35-5.48-1.06-10.94-1.43-16.43-1.54-22.87-3-45.75-3.89-68.66-.18-4.58-.62-9.17-.45-13.74.38-10.56-.72-21.07-.72-31.6,0-9.79-.24-19.57-1.13-29.3-1.34-14.61-2.33-29.24-3.21-43.88-.11-1.82-.52-3.63-.64-5.46-.23-3.34-.36-6.7-.51-10.04-.12-2.74.07-5.53-.33-8.22-.78-5.16-1.2-10.29-.74-15.51.15-1.66,0-3.36-.08-5.04-.36-8.4-.88-16.79-1.07-25.19-.14-5.94-.11-11.89.43-17.84.37-4.1.27-8.23.42-12.35.03-.91.15-1.83.37-2.71.24-1.02.63-2,1-3.14,1.02,0,1.94-.15,2.79.02,5.83,1.17,11.69,2.26,17.47,3.67,9.49,2.31,18.92,4.88,28.4,7.28,11.69,2.96,23.5,5.4,35.33,7.76,12.42,2.48,24.78,5.26,37.17,7.9,1.04.22,2.09.43,3.15.57,6.22.83,12.37,1.98,18.27,4.15,3.85,1.41,7.33,1,11.01-.8,13.17-6.45,26.4-12.77,39.68-18.98,8.71-4.07,17.58-7.8,26.32-11.83,8.18-3.77,16.22-7.84,24.4-11.6,7.91-3.63,15.92-7.04,23.91-10.49,2.31-1,4.87-1.12,7.22-.58,10.88,2.51,22.04,3.3,32.94,5.59,6.57,1.38,13.09,3.05,19.69,4.25,8.25,1.51,16.56,2.72,24.86,3.97,13.9,2.11,27.6,5.18,41.27,8.39,6.54,1.53,13.1,2.96,19.63,4.55,2.99.73,5.7.3,8.42-1.04,12.73-6.3,25.46-12.58,38.23-18.8,6.86-3.34,13.79-6.55,20.71-9.79,1.24-.58,2.53-1.07,3.82-1.55,4.72-1.76,9.41-3.58,14.06-5.52,4.75-1.99,9.78-3.3,14.39-4.82Z"/><path class="cls-1" d="m383.08,620.83c-.11-5.32-1.1-10.65-.02-15.98.15-.73-.02-1.52-.06-2.28-.38-7.17-.75-14.35-1.17-21.51-.08-1.36-.35-2.71-.56-4.07-.25-1.65-.66-3.29-.76-4.95-1.23-22.43-2.44-44.86-3.6-67.29-.09-1.81.23-3.64.25-5.46.01-1.97.24-4.05-.27-5.9-.67-2.4-.85-4.8-.99-7.23-.36-6.1-.67-12.21-1.03-18.31-.07-1.22,0-2.52-.4-3.63-.92-2.51-.93-5.09-1.08-7.68-.24-3.97-.43-7.93-.68-11.9-.08-1.21-.06-2.5-.47-3.62-.75-2.07-.81-4.19-.94-6.32-.2-3.36-.37-6.71-.58-10.07-.08-1.22-.04-2.51-.44-3.62-.75-2.07-.82-4.18-.95-6.31-.23-3.97-.45-7.93-.69-11.9-.06-1.07.03-2.21-.32-3.18-1.08-2.94-1.02-6-1.2-9.04-.27-4.42-.49-8.85-.75-13.27-.06-1.07.04-2.21-.31-3.18-1.18-3.24-.99-6.62-1.29-9.95-.54-6.06-.06-12.23-1.81-18.18-.25-.86-.16-1.82-.22-2.74-.19-3.36-.37-6.71-.58-10.07-.07-1.07.02-2.21-.34-3.17-1.04-2.79-.96-5.7-1.17-8.59-.21-2.89-.04-5.88-.72-8.66-.74-3.01-.94-6.02-1.14-9.05-.23-3.66-.41-7.32-.63-10.98-.07-1.06-.02-2.21-.39-3.17-.91-2.35-.91-4.79-1.04-7.22-.86-15.72-1.7-31.43-2.57-47.15-.08-1.52-.3-3.03-.51-4.54-.28-1.95-.72-3.89-.9-5.85-.27-3.04-.31-6.11-.54-9.15-.39-5.01-.06-10.08-1.61-14.98-.31-.99-.2-2.12-.26-3.19-.44-7.93-.86-15.87-1.31-23.8-.08-1.37-.17-2.75-.44-4.09-1.41-6.92-1.77-13.88-1.1-20.9.11-1.2.18-2.53-.21-3.62-.59-1.63-.78-3.29-.9-4.96-.84.14-1.67.35-2.46.69-.42.18-.85.37-1.27.55.12,1.03.17,2.06.23,3.1.1,1.68,0,3.39.31,5.03.9,4.69-.99,9.41.26,14.08,1.2,4.48.83,9.1,1.17,13.66.36,4.72.53,9.46.78,14.19.09,1.68.18,3.36.3,5.03.07.91.02,1.89.35,2.71.93,2.34.93,4.78,1.07,7.21.3,5.19.56,10.38.87,15.56.08,1.37.07,2.81.51,4.07.73,2.08.75,4.19.93,6.32.97,11.71.59,23.51,2.44,35.16.09.58-.18,1.21-.15,1.81.19,4.42.12,8.87.73,13.23.31,2.24.74,4.49.95,6.76.51,5.76.08,11.61,1.76,17.27.25.86.16,1.82.21,2.74.2,3.36.38,6.71.59,10.07.07,1.07,0,2.21.36,3.17.94,2.5.94,5.09,1.1,7.67.22,3.66.4,7.32.63,10.98.08,1.22.05,2.5.46,3.62.76,2.07.83,4.18.95,6.31.23,3.97.44,7.93.67,11.9.06,1.07-.03,2.21.33,3.18,1.02,2.79,1,5.7,1.18,8.59.21,3.36.37,6.71.58,10.07.08,1.22.01,2.51.42,3.62.81,2.21.87,4.48,1,6.77.23,3.97.44,7.93.69,11.9.07,1.06,0,2.21.37,3.17.96,2.5.92,5.09,1.08,7.68.28,4.58.51,9.15.78,13.73.06,1.07,0,2.21.36,3.17,1,2.64.96,5.4,1.13,8.13.23,3.81.42,7.63.65,11.44.06,1.07-.02,2.21.34,3.18,1.04,2.79.92,5.7,1.19,8.58.66,7.13.05,14.37,2.01,21.38.12,7,1.51,13.98.42,21.01-.14.89-.04,1.83,0,2.74.62,11.75,1.25,23.5,1.89,35.25.06,1.06.26,2.12.42,3.17.3,1.95.78,3.89.9,5.85.93,16.32,1.8,32.65,2.65,48.98.18,3.49.73,7-.21,10.48-.12.43-.04.91-.02,1.37.22,4.32.44,8.63.67,12.95,1.14.04,2.24-.11,3.33-.55.16-.06.32-.12.48-.19.02-.18.02-.37.06-.55.49-2.45.31-4.86.26-7.29Z"/><path class="cls-1" d="m250.85,574.51c-.88-2.36-.88-4.79-1.01-7.22-1.02-18.61-2.03-37.22-3.06-55.83-.09-1.67-.3-3.34-.52-5-.27-1.95-.78-3.89-.89-5.85-.98-17.24-1.89-34.48-2.85-51.71-.19-3.49-.06-7.03-1.29-10.41-.3-.83-.21-1.81-.26-2.73-1.08-19.99-2.15-39.97-3.2-59.96-.07-1.36.02-2.74.08-4.11.07-1.67.34-3.34.26-5-.86-16.78-1.77-33.56-2.67-50.35-.07-1.22,0-2.52-.41-3.62-.87-2.36-.91-4.79-1.04-7.22-1.09-20.14-2.17-40.27-3.22-60.41-.19-3.64-.7-7.29.17-10.95.24-1,0-2.13-.06-3.2-.18-3.51-.37-7.02-.56-10.53-.08-1.53.09-3.13-.33-4.56-1.46-4.91-1.17-9.98-1.62-14.98-.11-1.22-.03-2.51-.45-3.62-.32-.86-.51-1.73-.65-2.6-1.25.41-2.49.64-3.75.67.14,2.47.27,4.94.41,7.41.03.6.28,1.18.38,1.78.28,1.65.68,3.29.78,4.95.6,10.37,1.16,20.75,1.66,31.12.08,1.66-.19,3.33-.27,5-.06,1.37-.15,2.74-.08,4.11.91,17.39,1.84,34.78,2.79,52.18.07,1.37.29,2.72.49,4.08.28,1.95.78,3.89.89,5.85,1.22,22.12,2.39,44.24,3.56,66.36.06,1.22.34,2.5.08,3.65-.94,4.12-.2,8.22-.07,12.32.05,1.67.02,3.43.52,4.99.73,2.24.82,4.49.95,6.77,1.54,28.37,3.07,56.75,4.62,85.13.1,1.82.34,3.64.59,5.45.24,1.8.72,3.59.83,5.4.62,10.37,1.15,20.75,1.75,31.12.09,1.52.29,3.03.51,4.54.27,1.95.77,3.89.88,5.85.86,14.8,1.64,29.59,2.45,44.39.01.19.01.39.02.59,1.59.41,3.13.85,4.68,1.31-.23-3.84-.43-7.69-.66-11.53-.07-1.22,0-2.52-.42-3.62Z"/><path class="cls-1" d="m520.86,468.95c-1.44-4.14-1.09-8.45-1.46-12.69-.2-2.28.01-4.67-.6-6.83-.85-3-.98-6.01-1.16-9.05-.27-4.42-.49-8.85-.75-13.27-.07-1.22,0-2.52-.41-3.62-.87-2.36-.9-4.79-1.04-7.22-.36-6.25-.69-12.51-1.04-18.76-.07-1.22.07-2.52-.32-3.64-1.2-3.4-1.09-6.92-1.3-10.41-.43-7.02-.78-14.04-1.18-21.05-.07-1.22.02-2.52-.38-3.63-.96-2.65-.96-5.4-1.12-8.13-.23-3.81-.42-7.63-.66-11.44-.08-1.22-.02-2.51-.44-3.62-.82-2.21-.86-4.49-1-6.77-.21-3.51-.39-7.02-.61-10.53-.08-1.22,0-2.52-.42-3.62-.88-2.36-.86-4.79-1.05-7.22-.17-2.13-.03-4.35-.61-6.36-.74-2.55-.86-5.1-1.05-7.68-.21-2.89-.07-5.87-.74-8.65-.65-2.71-.87-5.41-1.08-8.14-.12-1.52.02-3.14-.46-4.54-.95-2.82-.98-5.7-1.15-8.59-.31-5.34-.59-10.68-.89-16.02-.07-1.22.04-2.52-.36-3.63-1.06-2.95-1.03-6-1.22-9.04-.29-4.73-.52-9.46-.78-14.19-.06-1.07.05-2.21-.31-3.18-1.07-2.94-1.01-6-1.25-9.04-.08-1.06-.11-2.15-.36-3.18-1.47-5.99-1.67-12.04-1.06-18.15.07-.75.16-1.59-.1-2.25-1-2.49-.9-5.1-1.04-7.68-.18-3.26-.35-6.52-.52-9.78-1.1.06-2.23-.05-3.4-.33-.41-.1-.82-.19-1.23-.29.17,3.19.34,6.38.51,9.57.05.91.16,1.83.39,2.71,1.28,4.94,1.38,9.91.88,14.96-.22,2.25-.22,4.64.32,6.81.56,2.26.79,4.49.98,6.77.11,1.37.01,2.82.46,4.08.85,2.37.9,4.79,1.04,7.22.31,5.49.6,10.99.91,16.48.06,1.07-.05,2.21.3,3.18,1.23,3.39,1.1,6.92,1.33,10.41.3,4.57.5,9.15.77,13.73.07,1.22-.03,2.52.38,3.63,1.03,2.8.94,5.71,1.17,8.59.11,1.37-.03,2.83.41,4.09,1.04,2.96.98,6.01,1.2,9.04.18,2.44-.04,4.98.61,7.29.89,3.15.94,6.32,1.22,9.51.15,1.67.32,3.34.55,5,.27,1.95.73,3.89.9,5.85.28,3.2.37,6.41.58,9.61.08,1.21.06,2.5.47,3.61.76,2.07.81,4.19.93,6.32.22,3.66.4,7.32.63,10.98.08,1.22.04,2.51.44,3.62.76,2.07.84,4.18.95,6.31.4,7.17.78,14.34,1.21,21.51.09,1.52.33,3.03.54,4.53.26,1.8.71,3.59.82,5.4.51,8.23.93,16.48,1.4,24.71.08,1.37,0,2.82.44,4.08.84,2.37.9,4.79,1.04,7.22.29,5.03.56,10.07.85,15.1.06,1.07-.06,2.2.25,3.19,1.54,4.89,1.18,9.98,1.64,14.98.11,1.21.05,2.5.46,3.62.76,2.07.83,4.18.95,6.31.55,9.92,1.08,19.83,1.64,29.75.08,1.37.14,2.76.42,4.09,1.38,6.61,1.51,13.25,1.14,19.99-.25,4.54.05,9.18.73,13.69.38,2.55.85,5.09,1,7.68.28,4.88.54,9.76.78,14.65,0,.1,0,.2,0,.3.41-.2.82-.4,1.22-.59.86.3,1.71.58,2.55.87-1.52-28.34-3.06-56.67-4.59-85.01-.06-1.07.07-2.21-.27-3.19Z"/><path class="cls-4" d="m480.78,470.67c-1.21-4.41-2.34-8.85-3.57-13.26-.88-3.15-2.44-5.91-4.88-8.15-1.5-1.38-3.18-2.52-5.2-2.73-5.82-.6-11.22.35-15.68,4.6-.85.81-1.99,1.36-3.07,1.87-3.73,1.75-7.51,3.4-11.24,5.15-3.89,1.82-7.48,4.13-10.83,6.82-3.62,2.9-5.87,6.49-6.33,11.23-.27,2.77-.11,5.46.27,8.19.39,2.71.75,5.47.68,8.2-.17,6.86-.75,13.7-1.68,20.51-.37,2.7-.43,5.49-.19,8.2.48,5.45,3.05,9.89,7.46,13.13,2.96,2.17,6.18,3.94,9.68,5.15,9.15,3.16,18.44,4.13,27.9,1.61,4.15-1.11,8.08-2.74,11.59-5.31,6.11-4.46,9.15-10.59,9.46-17.99.25-5.94.04-11.9.04-17.97-.5-4.44-1.19-8.98-1.47-13.54-.32-5.39-1.54-10.56-2.96-15.71Z"/><path class="cls-4" d="m575.91,189.01c-1.04-.09-2.11.24-3.17.4-1.21.18-2.4.46-3.61.57-5.08.45-9.9,1.9-14.49,4.02-8.06,3.72-14.28,9.37-17.51,17.84-2.39,6.27-4.69,12.58-6.89,18.93-3.06,8.8-5.79,17.71-9.88,26.11-4.3,8.82-9.24,17.22-16.35,24.16-6.39,6.23-13.55,11.41-21.49,15.46-7.48,3.82-14.81,7.91-21.99,12.26-5.91,3.58-11.32,7.81-16.11,12.77-1.57,1.63-2.93,3.55-4.04,5.52-1.78,3.16-2.29,6.61-1.35,10.18.35,1.33.74,2.65,1.19,3.94,2.69,7.85,4.17,15.92,4.38,24.22.08,3.2.31,6.41.57,9.61.54,6.64,3.14,12.39,7.83,17.12,1.82,1.84,3.78,3.56,5.79,5.21,3.93,3.21,7.36,6.86,10.35,10.96,1.34,1.85,2.77,3.67,4.35,5.31,3.22,3.35,7.01,5.16,11.89,4.62,4.04-.45,7.74-1.73,11.3-3.49,16.07-7.96,27.03-20.57,33.62-37.14,2.09-5.25,4.05-10.55,7.01-15.41,2.25-3.71,5.07-6.86,8.72-9.26,4.45-2.93,9.46-4.31,14.65-4.77,2.67-.24,5.45.44,8.16.87,6.32.99,12.51,2.6,18.92,3.24,6.48.64,12.46-.56,18.24-3.18,2.27-1.03,4.23-2.37,5.91-3.98-.76-15.61-1.58-31.21-3.21-46.77-1.13-10.78-1.94-21.6-2.89-32.41-.15-1.67-.24-3.36-.42-5.03-.93-8.5-1.94-16.99-2.8-25.49-.81-8.05-1.49-16.12-2.17-24.19-.53-6.2-1.04-12.4-1.56-18.6-2.83-1.09-5.77-1.9-8.8-2.5-4.68-.92-9.42-.68-14.13-1.1Z"/><path class="cls-4" d="m301.37,481.38c-3.63-2.66-7.64-3.45-12.11-1.86-3.29,1.17-5.85,3.24-8.34,5.49-5.76,5.21-9.03,11.46-8.01,19.47.04.3.02.61.06.91.98,8.7.45,17.35-.75,25.99-.21,1.5-.27,3.06-.09,4.55.36,2.86,1.74,5.15,4.28,6.7,6.6,4.02,16.86,3.25,22.17-.75,3.25-2.44,5.68-5.51,7.61-9.02,4.41-8.01,7.34-16.41,6.73-27.37-.3-1.71-.87-5.01-1.47-8.3-1.2-6.65-4.74-11.87-10.1-15.81Z"/><path class="cls-4" d="m579.1,435.37c-1.08-2.54-2.97-4.62-5.17-6.34-2.13-1.66-4.66-2.2-7.24-2.61-1.68-.26-2.88.78-4.32,1.79-3.45-.9-6.63-1.02-9.69.35-5.67,2.54-9.69,6.82-12.52,12.26-.62,1.2-1.01,2.57-1.23,3.91-1.29,8,.31,15.54,4.21,22.51,2.88,5.15,7.38,8.47,13.23,9.81,6.25,1.44,12.43,1.12,18.55-.7,3.42-1.02,6.04-3.2,7.42-6.39,2.76-6.42,4.33-13.16,2.28-20.06-1.47-4.96-3.5-9.76-5.52-14.53Z"/><path class="cls-4" d="m434.42,305.85c3.62-2.15,6.48-5.13,8.77-8.59,2.82-4.26,3.75-8.99,2.27-14-.65-2.19-1.39-4.36-2.22-6.49-1.84-4.72-3.01-9.6-3.77-14.59-.62-4.07-.94-8.19-1.67-12.23-1.62-8.97-5.46-16.74-12.55-22.77-5.67-4.82-12.01-8.41-19.01-10.77-5.06-1.7-10.21-3.1-15.35-4.56-4.45-1.27-8.67-3.02-12.28-5.94-2-1.62-3.81-3.51-5.58-5.39-3.59-3.83-7.95-6.18-13.15-6.78-3.17-.36-6.37-.36-9.56-.53,0,.13,0,.27,0,.4-2.59.14-5.24-.04-7.75.48-7.33,1.51-14.38,3.96-21.38,6.62-17.21,6.55-30.2,18.16-40.33,33.22-2.03,3.02-3.69,6.34-5.11,9.7-1.97,4.67-2.19,9.53.08,14.22,1.46,3.01,2.97,6.03,4.76,8.86,1.79,2.83,3.95,5.43,5.94,8.13,3.27,4.42,4.95,9.37,5.34,14.86.27,3.85-.25,7.6-.79,11.38-1.05,7.39-2.84,14.66-3.32,22.16-.3,4.79-.19,9.48,1.18,14.05,3.56,11.87,13.4,16.65,23.77,16.02,6.63-.4,12.7-3.1,18.26-6.78,5.5-3.64,10.56-7.8,14.97-12.72,4.39-4.91,9.32-9.24,14.46-13.34,5.83-4.65,12.43-7.08,19.9-6.94,3.81.07,7.61.37,11.41.65,7.3.53,14.54,1.05,21.86-.47,7.42-1.54,14.37-3.99,20.86-7.85Z"/><path class="cls-4" d="m278.93,396.81c8.68-2.48,14.66-11.4,14.14-20.18-.43-7.18-2.99-13.65-6.56-19.76-1.61-2.76-4.16-4.42-7.24-5.19-1.18-.3-2.41-.36-3.6-.63-4.21-.96-7.76.37-11.06,2.93-6.42,4.98-10.34,11.47-12.16,19.33-.83,3.56-1.88,7.06-2.78,10.6-.45,1.77-.99,3.55-1.12,5.35-.29,3.79,1.02,5.8,4.71,6.74,5.76,1.48,11.64,2.31,18.73,2.3,1.61-.34,4.33-.74,6.94-1.49Z"/><path class="cls-4" d="m118.17,589.23c10.5-2.49,20.32-6.47,29.44-12.28,4.63-2.95,9.43-5.65,14.21-8.38,7.42-4.25,15.39-6.59,23.96-6.86,2.75-.09,5.49-.31,8.24-.43,6.75-.31,12.82-2.59,18.4-6.27,5.79-3.82,10.62-8.59,14.9-14.09,6.45-8.3,8.28-17.52,6.57-27.63-1.6-9.42-5.78-17.65-11.95-24.89-3.37-3.95-6.86-7.8-10.25-11.74-2.79-3.25-5.54-6.54-6.39-10.99.31-1.47.57-2.98.94-4.46.36-1.48.84-2.94,1.24-4.41,2.04-7.54-1.16-13.69-6.58-17.04-5.24-3.23-10.78-5.76-16.59-7.68-4.78-1.58-9.68-2.8-14.48-4.3-2.47-.77-4.92-1.67-7.25-2.79-3.1-1.49-4.8-4.05-5.25-7.54-.78-6.08-.71-12.17-.46-18.25.18-4.3-.12-8.48-.87-12.73-1.33-7.57-8.11-12.96-15.88-13.54-6-.45-11.91.42-17.43,3.03-2.75,1.31-5.41,2.83-8.09,4.29-4.74,2.59-8.6,6.32-12.77,9.66-3.45,2.77-6.93,5.52-10.54,8.08-2.39,1.7-5.02,2.92-8.04,2.49.88,18.46,2.05,36.91,3.29,55.35.37,5.48,1.08,10.94,1.43,16.43,1.15,18.15,2.2,36.31,3.29,54.46.06,1.07.14,2.14.24,3.2.46,4.86.96,9.72,1.39,14.59.26,2.89.4,5.79.62,8.69.89,11.73,1.79,23.46,2.69,35.18.09,1.18.18,2.37.26,3.55,1.1.2,2.3.28,3.67.24,6.15-.2,12.08-1.55,18.03-2.96Z"/><path class="cls-4" d="m424.66,197.96c1.25,2.26,3.24,3.7,5.75,4.13,5.9,1,10.39-2.15,12.07-5.48,2.02-4.01,3.47-8.12,3.03-12.71-.18-1.51-.24-3.05-.58-4.52-.75-3.25-2.76-5.38-6.06-6.13-3.45-.78-6.93-.25-10.4-.21-.29,0-.58.16-.87.27-3.59,1.45-6.76,3.48-9.09,6.66-2.67,3.64-2.64,6.96.41,10.34,2.15,2.39,4.17,4.83,5.73,7.65Z"/><path class="cls-3" d="m441.8,352.99c-3.05.9-6.1,1.81-9.16,2.68-1.16.33-2.37.51-3.53.86-1.14.35-1.35,1.1-.88,3.23.88,0,1.52.14,2.08,0,4.24-1.14,8.48-2.32,12.69-3.56.7-.21,1.4-.64,1.92-1.16.35-.35.36-1.03.52-1.55-2.46-.85-2.46-.85-3.64-.5Z"/><path class="cls-3" d="m423.65,434.92c.09.81.15,1.35.23,2.04,1.35.18,2.54.27,3.71.5,3.94.78,7.86.17,11.78-.11,1.09-.08,2.05-.63,1.78-2.3-5.74-1.04-11.5-1.25-17.5-.12Z"/><path class="cls-3" d="m503.62,333.06c-1.88.83-3.84,1.64-5.76,2.55-2,.95-4.45,1.07-6.03,3.17.28.55.53,1.06.92,1.84,3.61-.68,6.62-1.65,9.41-3.23.79-.45,1.56-.95,2.25-1.53.96-.8.69-1.72-.8-2.79Z"/><path class="cls-3" d="m495.59,440.07c-2.26-.28-4.53-.46-6.8-.6-.9-.05-1.84.01-2.71.23-.51.13-.91.66-1.32.99.63,1.8,2.16,2.19,3.4,2.16,3.68-.11,7.43,1.99,11.47-.37-.98-2.04-2.56-2.22-4.03-2.4Z"/><path class="cls-3" d="m468.15,346.13c-.6.18-1.04.92-1.74,1.58.68.7,1.17,1.2,1.6,1.64,2.28-.43,4.38-.72,6.42-1.24,1.44-.37,2.94-.88,3.53-2.79-.26-.38-.59-.84-1.04-1.48-3.21.82-6.02,1.47-8.77,2.28Z"/><path class="cls-3" d="m388.02,437.43c-4.3.45-8.36,1.63-12.02,3.98-.33.21-.45.75-.8,1.36.49.5.98.99,1.5,1.52,3.9-1.33,7.48-3.09,11.47-3.57,1.01-.12,2.02-.78,2.06-2.11-1.39-1.2-1.4-1.26-2.21-1.17Z"/><path class="cls-3" d="m411.64,364.52c-5.08,2.36-9.58,5.67-14.04,9.04-.55.41-.82,1.18-1.34,1.96.68.58,1.2,1.03,1.71,1.47,4.42-2.75,8.66-5.36,12.85-8.03.75-.47,1.44-1.14,1.93-1.87.54-.81.52-1.73-1.12-2.56Z"/><path class="cls-3" d="m380.44,391.47c.77-.59,1.16-1.66,1.84-2.68-.81-.55-1.38-.94-2.16-1.47-2.77,2.42-5.45,4.65-7.97,7.04-.69.65-.58,1.71.9,2.43,3.23-.8,5.01-3.49,7.39-5.31Z"/><path class="cls-3" d="m319.15,223.67c-2.27,3.26-.85,7.16-1.92,10.6-.23.74.26,1.7.42,2.56.67.04,1.1.07,1.83.11,1.97-4.22,2.41-8.54,1.22-13.1-.62-.07-1.05-.12-1.55-.17Z"/><path class="cls-3" d="m315.18,261.05c-.57,2.37-1.11,4.74-1.57,7.14-.06.33.39.76.6,1.13.52-.03,1.03.08,1.39-.1,1.37-.69,1.92-2.1,1.99-3.41.11-2.01,1.76-4.05.17-6.09-1.94.25-2.36.43-2.59,1.34Z"/><path class="cls-3" d="m356.85,402.47c-1.01.28-1.98.78-2.9,1.31-2.54,1.45-5.21,2.49-8.09,3.03-.26.05-.47.35-.78.59l.08,1.48q4.79.59,10.38-1.98c1.63-.75,3.43-1.36,4.05-3.27-.59-1.39-1.69-1.46-2.74-1.17Z"/><path class="cls-3" d="m349.29,452.77c-4.35,2.51-8.13,5.76-11.83,9.12-.3.28-.54.8-.53,1.21.01.53.3,1.05.53,1.73.92-.19,1.28-.16,1.5-.32,3.78-2.78,7.54-5.57,11.29-8.38.36-.27.65-.64.91-1.01.58-.83.72-1.65-.33-2.58-.41.05-1.07-.05-1.53.22Z"/><path class="cls-3" d="m537.18,317.29c-.44-.47-.92-.98-1.3-1.38-.55.1-.9.07-1.14.21-4.31,2.58-8.62,5.17-12.91,7.79-.37.23-.64.63-.94.97-.1.11-.13.28-.3.7.3.44.7,1.01,1.04,1.51,6.67-2.12,12.41-5.72,15.55-9.79Z"/><path class="cls-3" d="m583.17,439.47c-4.97,1.9-9.83,4.1-15.1,5.11-.59.11-1.06.91-1.67,1.47,1.16,2.09,2.62,2.03,3.92,1.68,4.85-1.31,9.6-2.95,14.07-5.26.69-.36,1.1-1.27,1.9-2.24-.63-.59-1.06-.99-1.29-1.2-.96.23-1.42.29-1.84.45Z"/><path class="cls-3" d="m556.1,295.36c-1.92.32-3.12,1.45-4.3,2.65-5.8,5.89-8,8.58-9.13,11.3.53.37,1.1.76,1.7,1.17.67-.53,1.18-.85,1.6-1.26,2.28-2.21,4.57-4.39,6.78-6.67,1.47-1.52,2.88-3.11,4.16-4.79.58-.76.55-1.73-.82-2.4Z"/><path class="cls-3" d="m576.94,222.99c-1.98,1.82-2.04,1.82-2.09,2.94-.1,2.54-.13,5.08-.2,7.85.91.16,1.7.3,2.77.49.36-2.5.76-4.7.96-6.93.09-1.03-.1-2.11-.36-3.12-.12-.47-.71-.82-1.09-1.23Z"/><path class="cls-3" d="m575.32,199.22c-.5-.1-1.15.58-1.48.77.28,2.62.49,4.85.76,7.08.12,1.03.25,2.1.58,3.07.26.76.96,1.1,2.03.61.56-3.32.11-6.73-.4-10.12-.08-.56-.91-1.29-1.49-1.41Z"/><path class="cls-3" d="m601.9,430.71c-1.96,1.12-3.86,2.32-5.93,3.57.28.92.48,1.59.82,2.72,5.25-1.53,8.78-4.55,12.08-7.91.17-.18.13-.57.23-1.12-.43-.36-.95-.81-1.34-1.13-2.71.51-3.9,2.75-5.86,3.87Z"/><path class="cls-3" d="m559.75,154.58c-.38-1.76-.87-3.51-1.57-5.16-.29-.69-1.23-1.1-1.88-1.63l-1.1.57c.02,3.15.53,6.16,2.77,8.64,1.66-.31,2.02-1.33,1.79-2.42Z"/><path class="cls-3" d="m572.64,194.13c.65-.42,1.22-.78,1.96-1.25-.97-3.14-1.22-6.29-2.8-9.21l-3.39.18c1.92,3.73,1.28,7.51,4.23,10.28Z"/><path class="cls-3" d="m543.54,446.55c-3.02.1-6.03.37-9.06-.27-2.2-.46-4.5-.5-6.76-.65-1.07-.07-2.18,0-2.5,1.56.55,1.37,1.84,1.77,3.22,1.91,4.21.42,8.42.83,12.64,1.16,1.04.08,2.15,0,3.16-.27,1.18-.31,2.23-.95,2.15-2.55-.72-.96-1.79-.91-2.85-.88Z"/><path class="cls-3" d="m566.3,278.02c.7-.45,1.28-.61,1.39-.93,1.22-3.55,2.43-7.11,3.48-10.72.13-.45-.62-1.17-1.05-1.9-2.81,1.81-3.22,4.6-4.05,7.12-.65,1.99-1.29,4.05.23,6.43Z"/><path class="cls-3" d="m318.87,478.7c-4.91,3.92-8.67,8.87-12.31,13.91-.51.71-.71,1.63-1.15,2.7.79.5,1.45.92,2.16,1.36.64-.62,1.16-.98,1.48-1.47,3.39-5.08,7.41-9.58,12.06-13.55.75-.64,1.17-1.66,1.95-2.81-2.7-1.22-2.86-1.21-4.19-.14Z"/><path class="cls-3" d="m569.06,174.26c-.25-2.56-.98-4.99-1.83-7.4-.14-.4-.47-.85-.84-1.02-.47-.23-1.06-.21-1.73-.31-1.03,3.41.35,6.15,1.63,8.83.39.82,1.44,1.07,2.76-.09Z"/><path class="cls-3" d="m572.8,249.39c-1.78,2.81-2.28,5.88-1.58,9.1.08.37.86.59,1.85,1.22.54-1.74.93-2.73,1.16-3.76.33-1.48.65-2.98.8-4.49.11-1.07-.07-2.16-1.42-2.48-.28.13-.67.19-.8.4Z"/><path class="cls-3" d="m313.05,165.28c.87-.36,1.16-1.14.96-1.87-.73-2.75-1.57-5.46-3.07-7.83-.95.46-1.9.91-2.86,1.37.86,2.14,1.73,4.33,2.66,6.5.42.97,1.05,1.85,2.3,1.82Z"/><path class="cls-3" d="m148.94,313.09c.02-.26-.2-.54-.42-1.09-.55-.06-1.25-.15-1.87-.22-2.14,2.55-3.32,5.31-4.18,8.27-.81,2.77-1.69,5.53-2.62,8.26-.58,1.71-1.29,3.38-2.11,5.5.5.41.94.78,1.44,1.19,2.73-1.34,3.25-3.26,3.89-5.14,1.75-5.18,3.05-10.53,5.53-15.45.2-.4.31-.87.34-1.31Z"/><path class="cls-3" d="m134.81,379.7c.38-.35,1.22-.75,1.39-1.35.46-1.58.84-3.24.89-4.87.09-2.87-.21-5.73.35-8.61.48-2.51.49-5.11.59-7.68.04-1.19-.11-2.42-.39-3.59-.09-.38-.86-.59-1.69-1.12-1.85,3.9-1.59,7.47-1.96,10.88-.53,4.8-.31,9.66-1,14.46-.14.97.36,1.77,1.83,1.88Z"/><path class="cls-3" d="m153.6,434.33c-.36-.57-1.12-.89-1.72-1.34-1.23.84-1.51,1.84-.93,2.88,2.06,3.72,4.15,7.43,6.37,11.05.59.95,1.72,1.57,2.62,2.36,1.5-1.05,1.52-2.18.83-3.33-2.35-3.9-4.73-7.78-7.17-11.62Z"/><path class="cls-3" d="m137.11,395.67c-.08-.55-.94-1-1.65-1.71-.64.84-1.37,1.37-1.45,1.97-.14,1.18-.14,2.47.18,3.61,1.47,5.29,3.04,10.54,4.63,15.8.31,1.01.75,2.02,1.31,2.91.53.84,1.4,1.14,2.68.49.03-.7.3-1.62.08-2.41-1.96-6.88-4.74-13.53-5.77-20.67Z"/><path class="cls-3" d="m168.07,460.72c-.59,1.05-1.14,1.62-1.18,2.22-.04.7.27,1.48.61,2.13,1.72,3.36,3.48,6.7,5.28,10.02.25.46.84.73,1.2,1.02,1.84-.89,1.87-2.32,1.31-3.59-1.75-3.99-3.62-7.95-7.22-11.8Z"/><path class="cls-3" d="m160.06,278.43c-1.32.4-1.85,1.52-2.28,2.65-1.42,3.68-2.79,7.38-4.15,11.08-.08.22.15.55.32,1.1.57.1,1.25.23,2,.36,2.75-4.14,3.94-8.71,5.41-13.15.31-.94-.19-1.78-1.3-2.04Z"/><path class="cls-3" d="m611.07,424.53c.6.6,1.08,1.09,1.76,1.78,1.32-.91,2.54-1.73,3.71-2.53-.1-1.33-.2-2.65-.29-3.98-1.91,1.24-3.76,2.64-5.18,4.73Z"/><path class="cls-3" d="m298.3,322.79c1.98-2.65,3.83-5.4,4.5-8.97-.67-.39-1.27-.73-1.79-1.03-1.66.95-2.1,2.51-2.86,3.77-1.08,1.8-1.89,3.76-2.77,5.67-.1.21.11.57.18.87,1.03.98,2.07.57,2.73-.32Z"/><path class="cls-3" d="m552.53,144.48c.62.09,1.3-.2,2.83-.5-1.34-1.51-2.31-2.99-3.3-4.37-1.07.5-2.14,1-3.21,1.5.64.89,1.35,1.69,2.17,2.42.44.39.97.86,1.51.94Z"/><path class="cls-3" d="m181.44,234.74c.33-.94.32-2.02.5-3.34-2.55-.17-2.89-.02-3.41,1.26-1.6,3.92-3.22,7.83-4.8,11.75-.27.68-.45,1.4-.76,2.39.94.31,1.7.56,2.45.8,3.32-3.88,4.47-8.47,6.03-12.87Z"/><path class="cls-3" d="m189.19,205.97c1.8-.35,2.75-1.37,3.2-3,1.23-4.39,2.57-8.75,3.77-13.15.02-.08.03-.16.05-.23-1.12-.24-2.24-.48-3.36-.72-1.15,4.98-2.52,9.89-4.71,14.56-.42.9-.21,1.79,1.04,2.54Z"/><path class="cls-3" d="m207.3,591.16c-.55,1.09-1.17,1.82-1.23,2.59-.07.85.28,1.77.62,2.6.73,1.8,1.47,3.6,2.23,5.41,1.14-.38,2.28-.74,3.42-1.12-1.04-2.64-2.08-5.28-3.2-7.89-.25-.57-1.02-.91-1.83-1.59Z"/><path class="cls-3" d="m276.62,583.9c-.87-.33-1.51-.58-2.69-1.03-1.95,4.57-2.15,9.05-3.32,13.25,1.12.36,2.23.72,3.35,1.07.47-1.84.92-3.69,1.32-5.55.53-2.5.89-5.04,1.36-7.75Z"/><path class="cls-3" d="m276.84,367.25c-.47-.2-1.09-.46-2.26-.96-1.36,3.93-2.17,7.28-2.16,10.8,0,.75.1,1.53.32,2.24.3.94.94,1.54,2.38,1.22.25-.62.9-1.43.85-2.2-.21-3.39.44-6.65,1.09-9.93.05-.27-.1-.58-.22-1.17Z"/><path class="cls-3" d="m284.12,406.13c.53-.7,1-1.33,1.6-2.13-2.95-2.22-4.2-5.79-8.34-7.6,0,1.42-.25,2.28.06,2.82,1.57,2.77,3.44,5.3,6.69,6.91Z"/><path class="cls-3" d="m280.69,556.11c-2.31,3.25-2.65,6.99-2.54,10.8.02.87.92,1.09,2.02.77,1.95-3.03,1.75-6.81,2.58-10.29.11-.45-.4-1.04-.74-1.86-.78.34-1.16.38-1.31.59Z"/><path class="cls-3" d="m293.96,517.26c-.9.8-1.85,1.65-2.41,2.69-1.66,3.08-3.16,6.24-4.65,9.4-.38.8-.58,1.73-.66,2.62-.09.96.28,1.8,1.45,2.1.32-.22.86-.38,1.04-.73,2.53-4.99,5.02-10.01,7.48-15.04.1-.2-.14-.56-.22-.86-.62-.62-1.41-.74-2.03-.19Z"/><path class="cls-3" d="m304.82,412.38c.6,1.5,1.6,1.77,2.69,1.71,2.34-.14,4.86.29,7.09-2.23-.67-.59-1.08-1.28-1.49-1.28-2.37.02-4.75.13-7.1.41-.49.06-.87.99-1.19,1.39Z"/><path class="cls-3" d="m287.14,339.58c-.47.32-.81.88-1.1,1.39-1.33,2.36-2.7,4.71-3.88,7.14-.45.92-.54,2.09.94,2.7,3.36-1.5,3.66-5.27,5.56-7.86.66-.91,1.33-2.08.19-3.85-.62.16-1.26.18-1.7.48Z"/><path class="cls-3" d="m306.88,295.42c.48-.4,1.26-.74,1.56-1.33,1.08-2.16,2.07-4.38,2.94-6.64.25-.64.13-1.51-.08-2.21-.14-.46-.73-.79-1.66-1.73-1.5,3.56-2.73,6.32-3.82,9.13-.38.97-.54,2.11,1.05,2.77Z"/><path class="cls-3" d="m187.24,494.3c-.28-.76-1.11-1.32-1.81-2.12-.76.52-1.34.92-1.8,1.24,1.46,4.81,2.81,9.32,4.24,13.8.15.48.8.8,1.32,1.29,1.85-.93,2.05-2.15,1.68-3.38-1.12-3.64-2.32-7.26-3.62-10.84Z"/><path class="cls-3" d="m198.75,544.35l-1.44.08c-.67,3.19-.38,6.29.51,9.31.2.68,1.19,1.14,1.85,1.72,1.8-2.79,1.49-5.9-.92-11.11Z"/><path class="cls-3" d="m197.87,535.72c-.76-2.37-.7-4.8-.99-7.2-.11-.92-.32-1.82-1.73-2.16-.3.53-.94,1.13-.92,1.71.09,3.34.3,6.67.58,10,.04.47.64.89,1.01,1.37,1.93-.76,2.54-2.19,2.05-3.72Z"/><path class="cls-3" d="m200.25,571.36c1.36,4.11.59,8.17,3.32,11.31,1.26-.27,1.54-1.09,1.58-2.04.17-3.41-.94-6.57-1.96-10.05-.92.24-1.7.45-2.94.77Z"/><path class="cls-3" d="m314.57,190.24l2.79-.15c-.25-4.66-.43-8.73-.71-12.79-.08-1.12-.68-2-2.02-1.95-1.22.47-1.46,1.49-1.4,2.59.21,3.77.47,7.54.74,11.31.02.26.29.51.59.99Z"/></svg>