<?xml version="1.0" encoding="UTF-8"?><svg id="Layer_1" xmlns="http://www.w3.org/2000/svg" viewBox="0 0 689.19 755.77"><defs><style>.cls-1{fill:#47b2c0;}.cls-2{fill:#fdeee5;}.cls-3{fill:#58a2b8;}.cls-4{fill:#da8e25;}.cls-5{fill:#f18412;}.cls-6{fill:#402625;}.cls-7{fill:#93d2e0;}.cls-8{fill:#0c3146;}</style></defs><path class="cls-8" d="m503.38,356.76c-1.83,3.38-4.14,6.55-5.57,10.08-2.6,6.43-7.06,10.95-13.14,13.8-6.75,3.16-12.91,7.05-18.79,11.65-6.32,4.94-13.32,8.76-21.5,10.04-5.95.93-11.4,3.48-16.06,7.18-7.83,6.19-17.03,9.31-26.17,12.68-3.04,1.12-6.15,2.16-9.03,3.63-8.87,4.54-18.26,6.32-28.16,7.06-6.98.52-14.04,2.27-20.66,4.61-8.18,2.9-16.43,4.8-25.04,5.35-1.18.08-2.39-.05-3.54.15-14.85,2.51-29.8,4.6-44.52,7.74-13.82,2.95-27.06,2.1-40.02-3.21-8.48-3.48-16.98-6.99-25.18-11.07-7.15-3.56-11.12-10.4-15.05-17.02-.7-1.18-.88-2.92-.68-4.32.07-.5.15-1.01.23-1.51-.81.79-.89,1.37-.91,2.75-.13,10.68.34,21.28,3.97,31.5.89,2.5,1.65,5.06,2.34,7.63,3.65,13.72,7.25,27.45,10.9,41.16.46,1.71.96,3.44,1.72,5.03,3.94,8.27,7.75,16.62,12.01,24.73,12.34,23.44,27.41,44.94,46.48,63.44,7.44,7.21,15.34,13.77,24.73,18.57,10.37,5.31,21.3,8.88,32.4,12.03,16.41,4.65,33.23,5.65,50.12,3.76,10.86-1.21,21.72-2.88,32.39-5.2,8.34-1.82,16.42-4.85,24.55-7.56,3.91-1.3,7.75-2.93,11.45-4.73,13.9-6.77,26.65-15.37,38.36-25.43,8.8-7.56,16.76-16.06,22.12-26.41,4.76-9.17,9.17-18.63,12.64-28.34,6.62-18.52,9.54-37.81,10.02-57.47.13-5.32-.08-10.68.53-15.95,2.42-21.09-.62-41.91-3.06-62.73-1.63-13.88-6.46-27-11.31-40.04-.81-2.18-1.97-4.23-2.85-6.08-.22-.1-.43-.16-.64-.23-.17,1.57-.52,3.19-1.12,4.82-1,2.75-2.56,5.31-3.97,7.9Zm-262.5,180.22c-3.09-.11-4.63-2.29-5.87-4.68-4.21-8.09-8.37-16.21-12.52-24.33-2.84-5.56-4.48-11.51-5.74-17.59-.24-1.15-.33-2.41-.87-3.42-4.2-7.81-4.22-16.46-4.93-24.93-.24-2.85.16-5.91,1-8.64.64-2.09,2.68-3.06,6.34-.97.38,2.59,1.12,5.45,1.15,8.33.11,9.87,2.82,19.16,5.78,28.44,2.77,8.7,5.78,17.3,10.2,25.33,2.13,3.87,4.35,7.7,6.48,11.57.85,1.54,1.73,3.09,2.32,4.74.87,2.43.14,3.6-3.34,6.16Zm37.56,52.31c-3.34-.27-5.23-2.14-6.95-4.21-7.74-9.32-17.64-21.72-25.2-36.41-.1-2.6.71-4.59,3.59-5.06.64.16,1.42.12,1.73.48,2.1,2.44,4.41,4.78,6.08,7.5,6.21,10.1,13.29,19.53,20.96,28.55.76.89,1.61,1.8,2.05,2.85,1.04,2.44.73,4.62-2.27,6.3Zm64.33,20.49c-4.65.37-7.33-1.91-9.96-4.38-12.17-11.41-22.28-24.43-29.99-39.23-7.51-14.41-13.72-29.4-18.85-44.8-3.26-9.78-5.65-19.85-8.76-29.69-2.48-7.85-5.45-15.55-8.17-23.32-.29-.82-.38-1.7-.69-3.15.87-.74,1.78-1.93,2.97-2.41,1.85-.76,3.72.13,4.57,1.75,2.17,4.16,4.42,8.35,5.94,12.77,3.81,11.15,7.59,22.33,10.7,33.69,2.66,9.72,6.29,19.02,10.04,28.32,6.09,15.11,13.28,29.63,23.14,42.67,5.35,7.08,11.5,13.46,18.24,19.27,1.31,1.13,2.43,2.46,4.02,4.09-1.25,1.73-2.35,3.26-3.2,4.42Zm43.95-3.85c-1.19.02-2.11.25-2.9.02-2.99-.84-5.09-2.97-6.88-5.36-1.6-2.13-3.13-4.32-4.49-6.61-7.55-12.72-14.64-25.64-20.06-39.48-8.69-22.18-13.21-45.4-17.92-68.57-1.23-6.06-1.71-12.28-2.45-18.44-.14-1.14.05-2.36.29-3.49.31-1.52,1.76-2.08,5.59-2.15.67,1.98,1.62,4.11,2.09,6.33,2.79,13.03,5.55,26.07,8.17,39.14,3.26,16.28,7.74,32.23,14.18,47.52,6.21,14.73,13.56,28.92,23.05,41.88,1.04,1.42,2.03,2.88,3.55,5.03-.92,1.72-1.58,2.97-2.22,4.18Zm23.44-129.07c-3.24.46-5.03-.87-5.86-3.38-1.93-5.87-3.71-11.79-5.59-17.68-1.07-3.36-2.21-6.71-3.34-10.05-.28-.83-.72-1.62-.96-2.46-.74-2.6.23-5.11,2.26-6.06,1.99-.93,4.69.2,5.67,2.82,2.16,5.79,4.13,11.65,6.08,17.52,1.3,3.91,2.34,7.9,3.66,11.8.95,2.79.81,5.18-1.92,7.5Zm14.76,97.78c-.54,3.5-1.28,6.97-2.16,10.4-.45,1.76-1.72,3.45-3.64,3.4-1.56-.05-3.09-1.11-4.86-1.81.15-2.13.04-3.91.43-5.58,2.15-9.33,2.2-18.73,1.35-28.21-1.13-12.64-2.11-25.29-3.23-37.93-.26-2.94-.97-5.84-1.25-8.79-.24-2.56.55-4.68,4.13-5.62,3.51,1.73,4.67,4.52,5.01,7.98.97,9.69,2.25,19.35,3.05,29.06,1.02,12.34,3.1,24.67,1.17,37.1Zm48.54-77.42c-.12,3.24-.12,6.5-.45,9.73-.96,9.41-1.72,18.86-3.22,28.19-1.3,8.15-3.37,16.19-5.35,24.22-1.06,4.3-2.5,8.51-4.02,12.68-1.48,4.05-3.56,4.56-8.65,2.19,0-1.24-.23-2.71.06-4.07.61-2.89,1.25-5.81,2.28-8.57,4.49-12.02,6.69-24.49,7.72-37.22.74-9.13,1.85-18.23,2.38-27.37.48-8.27-.83-16.45-1.77-24.68-2.16-18.86-6.72-37.21-10.5-55.73-.29-1.43-.5-2.92-.51-4.38,0-2.11,1.26-2.97,5.07-3.66,3.19,2.85,4.35,6.77,5.24,10.84,1.95,8.96,4.57,17.83,5.76,26.89,2.24,16.94,6.58,33.66,5.94,50.94Zm28.16,3.51c-2.46,10.98-5.31,21.87-8.05,32.78-.43,1.71-1.04,3.4-1.8,4.99-.95,1.98-3.22,2.97-5.19,2.53-1.9-.43-3.17-2.47-2.8-4.89.31-2.04.87-4.05,1.37-6.06,2.24-8.9,4.58-17.78,6.73-26.7,2.99-12.4,5.45-24.85,3.58-37.75-.21-1.43,1.07-3.08,1.66-4.65,3.83.07,5.28,1.65,5.68,3.76.78,4.04,1.43,8.15,1.63,12.25.39,8.04-1.09,15.95-2.83,23.74Zm2.82-74.83c-.52,1.23-1.67,2.59-2.86,3.02-1.13.41-2.68-.29-4.57-.59-.72-11.35-1.43-21.62-1.99-31.88-.16-2.99.87-3.79,5.35-4.69.71,1.39,1.76,2.82,2.21,4.41,2.3,8.02,1.84,16.38,2.79,24.56.2,1.68-.26,3.58-.94,5.17Z"/><path class="cls-7" d="m338.92,180.08c7.76-3.5,12.22-12.67,9.26-23.17-.02-.05-.41-1.82-1.18-3.38-2.28-4.61-6.16-7.55-11.21-7.39-10.48.34-20.06,4.69-20.57,18.3-.57,15.09,13.81,20.11,23.71,15.64Z"/><path class="cls-7" d="m125.43,323.03c8.39-1.7,13.37-8.79,11.75-16.76-1.35-6.66-8.24-10.99-15.49-9.74-7.6,1.31-12.78,8.79-11.25,16.23,1.44,7,8.21,11.64,14.99,10.27Z"/><path class="cls-7" d="m546.12,265.5c-.93,5.16.21,10,4.28,13.69,3.21,2.92,7.74,3.38,11.5,1.3,4.07-2.25,6.76-5.73,8.12-10.08,2.75-8.8-4.88-17.01-13.76-14.94-4.79,1.12-9.27,5.17-10.14,10.03Z"/><path class="cls-7" d="m495.65,270.88c-1.48.26-4.2,1.3-5.82,4.1-2.41,4.14-2.52,8.44-.5,12.7,2.47,5.18,10.74,6.9,15.22,3.3,4.51-3.62,5.07-8.34,3.76-13.58-1.49-5.95-5.14-8.2-12.66-6.51Z"/><path class="cls-2" d="m331.05,344.49c11.27-4.4,22.74-8.46,34.8-10.31,2.33-.36,4.7-.5,7.06-.54,8.06-.12,16.13-.27,24.19-.3.93-8.29,1.87-16.58,2.82-24.87-.87.25-1.73.52-2.59.8-7.04,2.33-13.8,2.64-20.86,2.34-2.36-.1-4.72-.43-7.07-.73-3.91-.5-7.58-.07-11.2,1.74-7.13,3.56-14.44,6.75-21.59,10.26-5.6,2.76-11.05,5.42-17.66,5.02-3.13-.19-6.35,1.22-9.53,1.91-5.53.69-10.7,2.22-15.65,4.28,4.12,6.84,8.21,13.69,12.29,20.55,8.08-3.97,16.63-6.88,24.99-10.15Z"/><path class="cls-2" d="m460.5,338.1c3.19.36,6.42,1.2,9.41,2.37,5.58,2.18,7.5,7.81,4.73,13.09-2.11,4.02-5.37,7.05-8.95,9.72-6.19,4.62-12.87,8.45-19.93,11.54-8.27,3.62-16.55,7.21-24.86,10.73-.01.11-.02.22-.03.34-9.03,4.47-18.48,7.69-28.08,10.87-.05-.03-.1-.07-.15-.1-1.73.57-3.46,1.13-5.2,1.65-12.44,3.76-25,7.12-38.46,10.91-3.83.52-7.89,1.04-12.06,1.6,0,.03.01.05.01.08-5.08.98-10.19,1.28-15.29,2.16-.11.02-.18.08-.28.11-.02-.03-.04-.06-.07-.08-4.51.76-9,1.65-13.48,2.58-9.28,1.92-18.51,4.08-27.81,5.92-9.29,1.84-18.73,3.1-28.18,2.54-7.35-.43-14.67-1.79-21.91-3.18-2.81-.54-5.51-2.1-8.01-3.61-2.81-1.69-3.61-4.51-3.16-7.73.6-4.31,2.93-7.76,5.68-10.88,7.53-8.53,16.31-15.43,26.89-19.89,12.41-5.23,24.8-10.51,37.2-15.78-1.93-3.1-3.87-6.19-5.76-9.31-2.08-3.43-4.11-6.9-6.12-10.37-.91.59-1.82,1.18-2.72,1.77-6.78,4.48-13.85,7.72-21.78,9.5-11.81,2.66-22.26,8.03-30.08,17.56-5.86,7.15-12.56,13.36-19.94,18.87-7.6,5.67-10.21,13.79-11.58,22.48-.08.5-.16,1-.23,1.51-.2,1.4-.02,3.14.68,4.32,3.92,6.62,7.9,13.46,15.05,17.02,8.2,4.08,16.69,7.6,25.18,11.07,12.96,5.31,26.2,6.16,40.02,3.21,14.72-3.14,29.67-5.23,44.52-7.74,1.16-.2,2.36-.07,3.54-.15,8.61-.56,16.85-2.46,25.04-5.35,6.62-2.34,13.68-4.09,20.66-4.61,9.9-.74,19.29-2.52,28.16-7.06,2.88-1.47,5.99-2.51,9.03-3.63,9.13-3.37,18.34-6.49,26.17-12.68,4.67-3.69,10.11-6.25,16.06-7.18,8.18-1.28,15.18-5.1,21.5-10.04,5.87-4.6,12.04-8.49,18.79-11.65,6.09-2.85,10.55-7.37,13.14-13.8,1.43-3.53,3.74-6.7,5.57-10.08,1.41-2.59,2.97-5.15,3.97-7.9.59-1.63.95-3.25,1.12-4.82.96-8.81-4.48-16.26-14.01-17.65-5.8-.85-10.75-3.01-15.4-6.32-2.17-1.55-4.42-2.97-6.6-4.51-4-2.83-8.37-4.33-13.32-4.08-3.24.16-6.49.25-9.74.33-5.92.15-11.76.17-17.41-2.36-.3-.14-.61-.25-.92-.38-1.32,8.55-2.63,17.1-3.93,25.66,11.12,1.02,22.24,2.13,33.34,3.38Z"/><path class="cls-8" d="m387.43,398.32c1.74-.53,3.47-1.08,5.2-1.65-.58-.34-1.16-.77-1.71-1.39-.11-.49-.53-1.36-.44-2.18,2.2-19.92,4.39-39.84,6.62-59.76-8.06.03-16.13.19-24.19.3-2.36.03-4.73.18-7.06.54-12.06,1.85-23.53,5.91-34.8,10.31-8.36,3.26-16.91,6.18-24.99,10.15,2.34,3.93,4.68,7.86,7,11.8,7.5,12.73,14.48,25.77,21.64,38.7.85,1.53,1.61,3.17,2.06,4.86.08.29.11.57.14.84,4.17-.56,8.23-1.08,12.06-1.6,13.46-3.79,26.02-7.15,38.46-10.91Z"/><path class="cls-8" d="m224.42,398.75c-2.75,3.12-5.08,6.56-5.68,10.88-.44,3.22.36,6.04,3.16,7.73,2.5,1.51,5.2,3.07,8.01,3.61,7.25,1.4,14.57,2.75,21.91,3.18,9.45.55,18.89-.71,28.18-2.54,9.3-1.84,18.53-4,27.81-5.92,4.48-.93,8.97-1.82,13.48-2.58-1.79-2.27-3.6-4.55-5.16-6.98-9.22-14.34-18.6-28.58-27.62-43.04-12.4,5.27-24.79,10.55-37.2,15.78-10.58,4.46-19.36,11.36-26.89,19.89Z"/><path class="cls-8" d="m465.69,363.29c3.58-2.67,6.84-5.7,8.95-9.72,2.77-5.28.85-10.92-4.73-13.09-3-1.17-6.22-2.01-9.41-2.37-11.1-1.26-22.22-2.36-33.34-3.38-.22,1.48-.46,2.96-.68,4.44-2.28,15.21-4.92,30.38-5.52,45.8,0,.2-.04.41-.06.61,8.31-3.52,16.59-7.11,24.86-10.73,7.06-3.09,13.74-6.92,19.93-11.54Z"/><path class="cls-4" d="m414.83,205.37c.48-1.91.99-3.81,1.55-5.71-.55,1.9-1.07,3.8-1.55,5.71Z"/><path class="cls-5" d="m441.24,221.86c1.01,1.01,1.98,2.08,2.96,3.15.8-4.27,1.88-8.48,3.85-12.31-.63,1.22-1.16,2.48-1.7,3.68-6.73-8.96-14.77-16.54-23.63-23.32-1.08-.82-2.11-1.75-3.18-2.75,1.76-4.35,3.81-7.53,6.53-9.72.21.16.43.31.62.47,10.16,8.85,20.51,17.52,28.72,28.36.58.76,1.14,1.58,1.66,2.42,2.69.19,5.37.43,8.05.71-4.86-9.12-9.67-18.27-14.4-27.45-1.52-2.95-2.95-5.93-4.33-8.94,1.87,0,3.75.04,5.61.11-3.81-.13-7.64-.16-11.48-.02-12.23.46-17.63,4.49-21.7,15.78-.91,2.51-1.7,5.05-2.44,7.6,5.74,5.11,11.43,10.26,17.16,15.38,2.56,2.29,5.28,4.41,7.7,6.82Z"/><path class="cls-5" d="m467.53,194.56c1.59,3.04,3.39,5.99,4.8,9.1,1.49,3.28,2.75,6.7,4.18,10.34,7.57,1.11,15.11,2.49,22.63,3.98,11.9,2.37,23.77,4.84,35.66,7.2,2.32.46,4.68.87,7.03.92,4.44.1,8.12-1.54,10.33-5.63,1.12-2.07,2.1-4.2,3.14-6.31l-3-13.9c-1.76-1.07-3.41-2.42-5.3-3.14-7.18-2.74-14.3-5.76-21.69-7.79-11.41-3.13-22.95-5.87-34.55-8.14-12.7-2.49-25.48-4.42-38.42-4.9,1.96.07,3.91.18,5.86.32,3.12,5.98,6.22,11.97,9.34,17.94Z"/><path class="cls-5" d="m390.48,393.09c-.09.82.33,1.7.44,2.18.55.63,1.13,1.05,1.71,1.39.05.03.1.07.15.1,9.6-3.19,19.05-6.4,28.08-10.87.01-.11.02-.22.03-.34.03-.2.05-.41.06-.61.6-15.42,3.24-30.59,5.52-45.8.22-1.48.45-2.96.68-4.44,1.29-8.55,2.6-17.11,3.93-25.66,1.25-8.1,2.51-16.19,3.76-24.29,2.49-16.14,4.94-32.28,7.51-48.4-.67-.28-1.27-.58-1.75-1-8.78-7.67-17.47-15.44-26.12-23.25-.34-.31-.66-.65-1-.96.42-1.92.86-3.84,1.35-5.75-2.47,9.86-4.06,19.9-5.66,29.91-3.28,20.44-5.53,41.05-7.92,61.62-.45,3.84-.88,7.69-1.32,11.53-.95,8.29-1.89,16.58-2.82,24.87-2.23,19.92-4.41,39.84-6.62,59.76Z"/><path class="cls-1" d="m265.92,299.66c-.26.67-.52,1.35-.78,2.02-.85,2.18-1.53,4.43-2.12,6.19-.3.24-.6.44-.9.62-.14.09-.28.17-.42.25,0,0,0,0,0,0h0c-1.32.73-2.61,1.04-3.91,1.12,6.28,11.18,12.42,22.45,18.84,33.54,2.01,3.48,4.04,6.94,6.12,10.37,1.89,3.12,3.83,6.21,5.76,9.31,9.03,14.46,18.4,28.7,27.62,43.04,1.56,2.43,3.37,4.71,5.16,6.98.02.03.04.06.07.08.1-.03.17-.09.28-.11,5.1-.88,10.2-1.18,15.29-2.16,0-.03-.01-.05-.01-.08-.03-.28-.07-.55-.14-.84-.45-1.68-1.21-3.32-2.06-4.86-7.17-12.93-14.14-25.97-21.64-38.7-2.32-3.94-4.66-7.87-7-11.8-4.08-6.86-8.18-13.71-12.29-20.55-6.95-11.54-13.92-23.06-20.89-34.59-1.35-2.23-2.8-4.4-4.28-6.55-.96,2.21-1.82,4.46-2.68,6.71,0,0,0,0,0,0Z"/><path class="cls-2" d="m461.76,419.39c-.89-4.07-2.05-7.99-5.24-10.84-3.81.69-5.07,1.55-5.07,3.66,0,1.46.21,2.94.51,4.38,3.78,18.52,8.35,36.88,10.5,55.73.94,8.23,2.25,16.41,1.77,24.68-.53,9.14-1.64,18.24-2.38,27.37-1.03,12.73-3.23,25.2-7.72,37.22-1.03,2.76-1.68,5.68-2.28,8.57-.29,1.36-.06,2.83-.06,4.07,5.08,2.36,7.17,1.86,8.65-2.19,1.52-4.16,2.96-8.38,4.02-12.68,1.98-8.03,4.04-16.07,5.35-24.22,1.49-9.33,2.25-18.78,3.22-28.19.33-3.22.33-6.48.45-9.73.64-17.28-3.7-34-5.94-50.94-1.2-9.06-3.82-17.93-5.76-26.89Z"/><path class="cls-2" d="m420.71,508.48c-.35-3.45-1.51-6.24-5.01-7.98-3.58.93-4.37,3.06-4.13,5.62.28,2.94.99,5.84,1.25,8.79,1.12,12.64,2.1,25.29,3.23,37.93.85,9.47.8,18.88-1.35,28.21-.38,1.66-.28,3.44-.43,5.58,1.77.7,3.3,1.77,4.86,1.81,1.92.06,3.18-1.64,3.64-3.4.88-3.43,1.62-6.9,2.16-10.4,1.93-12.43-.14-24.76-1.17-37.1-.8-9.7-2.09-19.37-3.05-29.06Z"/><path class="cls-2" d="m362.35,554.84c-6.44-15.28-10.92-31.23-14.18-47.52-2.62-13.07-5.38-26.11-8.17-39.14-.48-2.22-1.42-4.35-2.09-6.33-3.83.07-5.28.63-5.59,2.15-.24,1.14-.42,2.35-.29,3.49.73,6.16,1.21,12.37,2.45,18.44,4.72,23.18,9.23,46.4,17.92,68.57,5.42,13.84,12.51,26.76,20.06,39.48,1.36,2.29,2.89,4.48,4.49,6.61,1.79,2.39,3.89,4.51,6.88,5.36.8.22,1.72,0,2.9-.02.64-1.21,1.31-2.45,2.22-4.18-1.52-2.15-2.51-3.61-3.55-5.03-9.49-12.97-16.84-27.15-23.05-41.88Z"/><path class="cls-2" d="m502.59,396.16c-.46-1.59-1.5-3.02-2.21-4.41-4.48.91-5.51,1.7-5.35,4.69.56,10.27,1.27,20.53,1.99,31.88,1.89.3,3.43,1,4.57.59,1.19-.43,2.34-1.79,2.86-3.02.67-1.58,1.13-3.49.94-5.17-.95-8.19-.49-16.55-2.79-24.56Z"/><path class="cls-2" d="m502.82,464.73c-.41-2.11-1.85-3.69-5.68-3.76-.6,1.57-1.87,3.21-1.66,4.65,1.86,12.9-.59,25.35-3.58,37.75-2.15,8.92-4.49,17.8-6.73,26.7-.5,2.01-1.06,4.02-1.37,6.06-.37,2.42.9,4.46,2.8,4.89,1.97.44,4.24-.55,5.19-2.53.76-1.59,1.37-3.28,1.8-4.99,2.74-10.91,5.6-21.8,8.05-32.78,1.74-7.79,3.22-15.7,2.83-23.74-.2-4.1-.86-8.21-1.63-12.25Z"/><path class="cls-2" d="m412.08,469.36c-1.33-3.9-2.36-7.89-3.66-11.8-1.95-5.87-3.92-11.73-6.08-17.52-.98-2.62-3.68-3.75-5.67-2.82-2.03.95-2.99,3.46-2.26,6.06.24.84.68,1.63.96,2.46,1.13,3.34,2.26,6.69,3.34,10.05,1.88,5.89,3.66,11.81,5.59,17.68.83,2.51,2.62,3.84,5.86,3.38,2.73-2.31,2.87-4.71,1.92-7.5Z"/><path class="cls-2" d="m241.91,526.08c-2.13-3.87-4.34-7.7-6.48-11.57-4.42-8.03-7.42-16.63-10.2-25.33-2.96-9.28-5.67-18.57-5.78-28.44-.03-2.88-.78-5.75-1.15-8.33-3.67-2.1-5.7-1.12-6.34.97-.84,2.74-1.24,5.79-1,8.64.71,8.47.73,17.12,4.93,24.93.54,1.01.63,2.27.87,3.42,1.26,6.08,2.89,12.04,5.74,17.59,4.16,8.12,8.31,16.24,12.52,24.33,1.25,2.39,2.78,4.57,5.87,4.68,3.49-2.55,4.21-3.72,3.34-6.16-.59-1.65-1.47-3.2-2.32-4.74Z"/><path class="cls-2" d="m341.95,601.26c-6.74-5.8-12.89-12.19-18.24-19.27-9.86-13.04-17.05-27.56-23.14-42.67-3.75-9.3-7.38-18.61-10.04-28.32-3.11-11.36-6.89-22.54-10.7-33.69-1.51-4.42-3.76-8.61-5.94-12.77-.85-1.62-2.71-2.5-4.57-1.75-1.19.49-2.09,1.68-2.97,2.41.31,1.45.41,2.33.69,3.15,2.72,7.77,5.7,15.47,8.17,23.32,3.1,9.84,5.5,19.91,8.76,29.69,5.13,15.4,11.34,30.39,18.85,44.8,7.71,14.79,17.81,27.81,29.99,39.23,2.63,2.47,5.31,4.75,9.96,4.38.84-1.17,1.94-2.69,3.2-4.42-1.59-1.63-2.72-2.97-4.02-4.09Z"/><path class="cls-2" d="m278.66,580.14c-7.67-9.01-14.75-18.45-20.96-28.55-1.67-2.72-3.98-5.06-6.08-7.5-.31-.36-1.09-.32-1.73-.48-2.88.47-3.69,2.45-3.59,5.06,7.56,14.69,17.46,27.09,25.2,36.41,1.72,2.07,3.6,3.95,6.95,4.21,3-1.68,3.3-3.86,2.27-6.3-.45-1.05-1.29-1.96-2.05-2.85Z"/><path class="cls-6" d="m201.56,210.68c-6.61-5.64-11.17-4.39-14.3,3.95-.19.52-.05,1.16-.08,2.31,2.03,5.56,6.31,9.72,11.61,13.71,3.16-2.7,6.4-5.3,9.7-7.83-.63-5.12-2.58-8.43-6.93-12.14Z"/><path class="cls-3" d="m310.65,276.87c-.48.22-.98.38-1.48.52.51-.14,1-.31,1.48-.52Z"/><path class="cls-7" d="m303.74,277.78c-2.83-3.47-5.75-6.86-8.81-10.15-10.23-10.99-22.64-18.86-36.1-25.29-9.72-4.65-20.02-7.23-30.52-9.09-3.68-.65-7.6-1.5-11.26.6-1,1.73.53,2.72,1.19,3.86.88,1.53,2.01,2.92,3.1,4.33,12.49,16.15,24.99,32.29,37.49,48.43,2.37,3.06,4.73,6.14,7.1,9.2.86-2.25,1.72-4.51,2.68-6.71.4-.92.82-1.83,1.27-2.73,2.63-5.28,7.12-8.81,12.54-10.73,5.85-2.07,11.93-3.64,18.28-2.19,2.85.65,5.67.82,8.19.18-1.61.4-3.35.47-5.14.3Z"/><path class="cls-7" d="m163.06,355.22c1.31,5.44,3.32,10.72,5.27,15.98.58,1.56,1.98,2.82,2.76,3.87,2.94.63,4.42-.57,5.7-2.42,2.69-3.88,5.4-7.76,8.27-11.52,2.98-3.91,6.94-6.38,11.82-7.3,4.32-.81,8.64-1.6,12.94-2.47-4.19-8.5-7.73-17.23-9.98-26.55-4.4-18.22-6.86-36.61-6.18-55.36.49-13.72,3.34-26.97,8.12-39.81.2-.53.71-.93,1.21-1.57,2.77-2.21,6.41-2.63,9.87-2.92,7.06-.59,14.15-.71,21.2.66,13.47,2.62,26.23,7.14,38.26,13.75,16.26,8.94,29.33,20.98,40.19,35.19-.62.71-1.21,1.39-1.85,2.11,6.75-7.63,12.46-14.4,18.52-20.85,6.19-6.58,15.44-8.28,23.09-13.36-.58-1.66-.74-3.24-1.58-4.23-1.32-1.55-3-2.87-4.71-4-16.93-11.07-34.69-20.49-54.22-26.09-13.8-3.96-27.75-5.99-41.99-1.86-5.68,1.64-11.57,2.57-17.27,4.15-7.45,2.07-14.53,5.05-20.77,9.74-1.08.81-2.15,1.63-3.23,2.45-3.3,2.53-6.54,5.13-9.7,7.83-5.03,4.3-9.83,8.85-14.23,13.87-12.98,14.82-21.2,32.02-25.49,51.1-2.08,9.26-2.65,18.68-1.92,28.23.82,10.7,3.43,21.02,5.92,31.37Z"/><path class="cls-7" d="m247.91,290.62c-9.63-12.74-19.22-25.52-28.83-38.28-3.55-4.71-7.09-9.42-11.14-14.8-.83,1.91-1.56,3.1-1.89,4.39-3.36,13.28-5.02,26.75-3.72,40.44,1.03,10.87,1.65,21.86,3.72,32.55,2.29,11.85,6.43,23.09,12.01,33.71-.05.16-.1.31-.15.47-.37.12-.72.23-1.07.35.35-.12.7-.23,1.07-.35.91-2.86,1.69-5.68,2.69-8.41,2.03-5.54,3.6-11.36,6.39-16.5,5.74-10.55,14.86-15.67,27.08-14.47,1.25.12,2.48.22,3.7.15,1.3-.08,2.6-.39,3.91-1.12-4.62-6.02-9.21-12.07-13.78-18.13Z"/><path class="cls-3" d="m261.7,308.74c.14-.08.28-.16.42-.25-.14.09-.28.17-.42.25Z"/><path class="cls-1" d="m272.32,239.57c-12.03-6.61-24.79-11.13-38.26-13.75-7.05-1.37-14.13-1.25-21.2-.66-3.47.29-7.1.71-9.87,2.92-.5.64-1.01,1.05-1.21,1.57-4.79,12.84-7.63,26.1-8.12,39.81-.67,18.76,1.79,37.14,6.18,55.36,2.25,9.32,5.79,18.05,9.98,26.55h0c.63-.13,1.26-.24,1.89-.37,1.66-.35,3.28-.94,5.14-1.56.35-.12.7-.23,1.07-.35.05-.16.1-.31.15-.47-5.58-10.63-9.72-21.86-12.01-33.71-2.07-10.69-2.68-21.67-3.72-32.55-1.3-13.69.36-27.16,3.72-40.44.33-1.29,1.06-2.49,1.89-4.39,4.05,5.38,7.59,10.09,11.14,14.8,9.61,12.76,19.2,25.53,28.83,38.28,4.58,6.06,9.17,12.1,13.78,18.13h0s0,0,0,0c.14-.08.28-.17.42-.25.3-.18.6-.38.9-.62.6-1.75,1.27-4,2.12-6.19.26-.67.52-1.35.78-2.02,0,0,0,0,0,0-2.37-3.07-4.73-6.14-7.1-9.2-12.49-16.15-25-32.28-37.49-48.43-1.09-1.4-2.21-2.8-3.1-4.33-.66-1.14-2.19-2.14-1.19-3.86,3.65-2.1,7.58-1.25,11.26-.6,10.5,1.86,20.8,4.44,30.52,9.09,13.46,6.44,25.87,14.3,36.1,25.29,3.06,3.29,5.98,6.69,8.81,10.15,1.79.17,3.52.1,5.14-.3.1-.02.2-.05.29-.08.51-.14,1-.31,1.48-.52.64-.72,1.23-1.4,1.85-2.11-10.86-14.21-23.93-26.25-40.19-35.19Z"/><path class="cls-2" d="m450.72,185.12c4.73,9.18,9.54,18.33,14.4,27.45,0,0,0,.02.01.02,3.8.4,7.6.87,11.38,1.43,0,0,0,0,0-.01-1.42-3.64-2.69-7.06-4.18-10.34-1.41-3.11-3.21-6.06-4.8-9.1-3.12-5.98-6.21-11.97-9.34-17.94-1.95-.14-3.9-.24-5.86-.32-.11,0-.22,0-.33,0-1.87-.07-3.74-.11-5.61-.11,1.39,3,2.81,5.99,4.33,8.94Z"/><path class="cls-2" d="m426.68,181.07c-.19-.17-.42-.31-.62-.47-2.72,2.19-4.77,5.36-6.53,9.72,1.07.99,2.1,1.92,3.18,2.75,8.86,6.78,16.9,14.36,23.63,23.32.54-1.2,1.08-2.46,1.7-3.68,1.14-.45,1.94-1,2.77-1.04,1.76-.1,3.53,0,5.29.12.32.02.64.06.97.09,0,0,0,0,0-.01-.52-.84-1.09-1.66-1.66-2.42-8.21-10.84-18.56-19.51-28.72-28.36Z"/><path class="cls-2" d="m414.48,212.12c8.65,7.81,17.34,15.58,26.12,23.25.48.42,1.08.72,1.75,1h0c.41-2.57.8-5.15,1.22-7.72.2-1.21.41-2.43.64-3.64,0,0,0,0,0,0-.98-1.07-1.95-2.14-2.96-3.15-2.42-2.41-5.14-4.54-7.7-6.82-5.72-5.12-11.42-10.27-17.16-15.38h0s0,0,0,0c-.55,1.9-1.07,3.8-1.55,5.71,0,.01,0,.02,0,.03-.48,1.91-.93,3.83-1.35,5.75.34.31.66.65,1,.96Z"/></svg>