<svg id="svg" version="1.1" xmlns="http://www.w3.org/2000/svg" xmlns:xlink="http://www.w3.org/1999/xlink" width="400" height="400" viewBox="0, 0, 400,400"><g id="svgg"><path id="path0" d="M178.100 0.282 C 177.605 0.378,177.200 0.623,177.200 0.828 C 177.200 1.033,177.018 1.200,176.796 1.200 C 176.282 1.200,174.000 3.366,174.000 3.855 C 174.000 4.058,173.640 4.483,173.200 4.800 C 172.760 5.117,172.400 5.697,172.400 6.088 C 172.400 6.480,172.220 6.800,172.000 6.800 C 171.780 6.800,171.600 7.340,171.600 8.000 C 171.600 8.660,171.420 9.200,171.200 9.200 C 170.943 9.200,170.800 13.200,170.800 20.400 C 170.800 26.560,170.716 31.600,170.612 31.600 C 170.199 31.600,158.972 20.574,155.600 16.857 C 154.390 15.523,153.100 14.425,152.733 14.416 C 152.367 14.407,152.007 14.221,151.933 14.002 C 151.490 12.677,142.000 11.146,142.000 12.400 C 142.000 12.620,141.460 12.800,140.800 12.800 C 140.140 12.800,139.600 12.980,139.600 13.200 C 139.600 13.420,139.255 13.600,138.833 13.600 C 138.412 13.600,138.007 13.735,137.933 13.900 C 137.860 14.065,137.125 14.704,136.300 15.320 C 135.475 15.937,134.800 16.662,134.800 16.932 C 134.800 17.202,134.440 17.683,134.000 18.000 C 133.530 18.339,133.200 19.035,133.200 19.688 C 133.200 20.300,133.020 20.800,132.800 20.800 C 132.221 20.800,132.299 28.088,132.897 30.006 C 133.171 30.883,133.531 31.600,133.697 31.600 C 133.864 31.600,134.000 31.864,134.000 32.186 C 134.000 32.509,142.282 41.059,152.404 51.186 L 170.808 69.600 170.704 89.272 L 170.600 108.943 168.400 110.137 C 167.190 110.794,166.140 111.481,166.067 111.665 C 165.993 111.849,165.603 112.000,165.200 112.000 C 164.797 112.000,164.407 112.135,164.333 112.300 C 164.166 112.676,162.036 113.975,161.100 114.271 C 160.715 114.393,160.400 114.652,160.400 114.847 C 160.400 115.041,160.130 115.200,159.800 115.200 C 159.470 115.200,159.200 115.380,159.200 115.600 C 159.200 115.820,158.922 116.000,158.583 116.000 C 158.244 116.000,157.580 116.360,157.108 116.800 C 156.636 117.240,156.013 117.600,155.725 117.600 C 155.436 117.600,155.200 117.780,155.200 118.000 C 155.200 118.220,154.840 118.400,154.400 118.400 C 153.960 118.400,153.600 118.580,153.600 118.800 C 153.600 119.020,153.280 119.200,152.888 119.200 C 152.497 119.200,151.917 119.560,151.600 120.000 C 151.283 120.440,150.703 120.800,150.312 120.800 C 149.920 120.800,149.600 120.980,149.600 121.200 C 149.600 121.420,149.240 121.600,148.800 121.600 C 148.360 121.600,148.000 121.780,148.000 122.000 C 148.000 122.220,147.764 122.400,147.475 122.400 C 147.187 122.400,146.564 122.760,146.092 123.200 C 145.620 123.640,144.956 124.000,144.617 124.000 C 144.278 124.000,143.999 124.135,143.999 124.300 C 143.998 124.465,143.188 124.933,142.199 125.340 C 141.209 125.746,140.400 126.241,140.400 126.440 C 140.400 126.638,140.040 126.800,139.600 126.800 C 139.160 126.800,138.800 126.959,138.800 127.153 C 138.800 127.348,138.485 127.607,138.100 127.729 C 137.164 128.025,135.034 129.324,134.867 129.700 C 134.793 129.865,134.388 130.000,133.967 130.000 C 133.545 130.000,133.200 130.180,133.200 130.400 C 133.200 130.620,132.964 130.800,132.675 130.800 C 132.387 130.800,131.764 131.160,131.292 131.600 C 130.820 132.040,130.156 132.400,129.817 132.400 C 129.478 132.400,129.200 132.536,129.200 132.702 C 129.200 132.869,128.615 133.264,127.900 133.580 C 127.185 133.897,126.251 134.480,125.825 134.878 C 125.398 135.275,124.813 135.600,124.525 135.600 C 124.236 135.600,124.000 135.780,124.000 136.000 C 124.000 136.220,123.640 136.400,123.200 136.400 C 122.760 136.400,122.400 136.580,122.400 136.800 C 122.400 137.020,122.164 137.200,121.875 137.200 C 121.587 137.200,120.964 137.560,120.492 138.000 C 120.020 138.440,119.356 138.800,119.017 138.800 C 118.678 138.800,118.400 138.980,118.400 139.200 C 118.400 139.420,118.080 139.600,117.688 139.600 C 117.297 139.600,116.717 139.960,116.400 140.400 C 116.083 140.840,115.503 141.200,115.112 141.200 C 114.720 141.200,114.400 141.380,114.400 141.600 C 114.400 141.820,114.124 142.000,113.786 142.000 C 113.448 142.000,112.728 142.291,112.186 142.646 C 111.580 143.043,111.200 143.120,111.200 142.846 C 111.200 142.601,110.853 142.400,110.429 142.400 C 110.004 142.400,109.419 142.164,109.129 141.875 C 108.838 141.587,108.015 141.093,107.300 140.778 C 106.585 140.463,106.000 140.069,106.000 139.902 C 106.000 139.736,105.764 139.600,105.475 139.600 C 105.187 139.600,104.564 139.240,104.092 138.800 C 103.620 138.360,102.956 138.000,102.617 138.000 C 102.278 138.000,102.000 137.820,102.000 137.600 C 102.000 137.380,101.640 137.200,101.200 137.200 C 100.760 137.200,100.400 137.020,100.400 136.800 C 100.400 136.580,100.130 136.400,99.800 136.400 C 99.470 136.400,99.200 136.220,99.200 136.000 C 99.200 135.780,98.930 135.600,98.600 135.600 C 98.270 135.600,98.000 135.420,98.000 135.200 C 98.000 134.980,97.640 134.800,97.200 134.800 C 96.760 134.800,96.400 134.620,96.400 134.400 C 96.400 134.180,96.080 134.000,95.688 134.000 C 95.297 134.000,94.717 133.640,94.400 133.200 C 94.083 132.760,93.503 132.400,93.112 132.400 C 92.720 132.400,92.400 132.254,92.400 132.075 C 92.400 131.896,91.770 131.502,91.000 131.200 C 90.230 130.898,89.600 130.504,89.600 130.325 C 89.600 130.146,89.330 130.000,89.000 130.000 C 88.670 130.000,88.400 129.854,88.400 129.675 C 88.400 129.496,87.770 129.102,87.000 128.800 C 86.230 128.498,85.600 128.104,85.600 127.925 C 85.600 127.746,85.240 127.600,84.800 127.600 C 84.360 127.600,84.000 127.453,84.000 127.274 C 84.000 127.094,82.920 126.431,81.600 125.800 C 80.280 125.169,79.200 124.506,79.200 124.326 C 79.200 124.147,78.917 124.000,78.571 124.000 C 77.773 124.000,76.800 123.040,76.800 122.252 C 76.800 121.919,76.620 121.536,76.400 121.400 C 76.180 121.264,76.000 120.533,76.000 119.776 C 76.000 119.019,75.820 118.400,75.600 118.400 C 75.380 118.400,75.200 117.845,75.200 117.166 C 75.200 115.808,74.110 111.004,73.552 109.905 C 73.359 109.523,73.200 108.668,73.200 108.005 C 73.200 107.342,73.020 106.800,72.800 106.800 C 72.580 106.800,72.400 106.181,72.400 105.424 C 72.400 104.667,72.220 103.936,72.000 103.800 C 71.780 103.664,71.600 103.034,71.600 102.400 C 71.600 101.766,71.420 101.136,71.200 101.000 C 70.980 100.864,70.800 100.133,70.800 99.376 C 70.800 98.619,70.620 98.000,70.400 98.000 C 70.180 98.000,70.000 97.381,70.000 96.624 C 70.000 95.867,69.820 95.136,69.600 95.000 C 69.380 94.864,69.200 94.133,69.200 93.376 C 69.200 92.619,69.020 92.000,68.800 92.000 C 68.580 92.000,68.400 91.471,68.400 90.824 C 68.400 90.177,68.220 89.536,68.000 89.400 C 67.780 89.264,67.600 88.533,67.600 87.776 C 67.600 87.019,67.420 86.400,67.200 86.400 C 66.980 86.400,66.800 85.680,66.800 84.800 C 66.800 83.920,66.620 83.200,66.400 83.200 C 66.180 83.200,66.000 82.581,66.000 81.824 C 66.000 81.067,65.820 80.336,65.600 80.200 C 65.380 80.064,65.200 79.423,65.200 78.776 C 65.200 78.129,65.020 77.600,64.800 77.600 C 64.580 77.600,64.400 76.970,64.400 76.200 C 64.400 75.430,64.220 74.800,64.000 74.800 C 63.780 74.800,63.600 74.528,63.600 74.195 C 63.600 72.808,59.027 67.600,57.809 67.600 C 57.474 67.600,57.200 67.420,57.200 67.200 C 57.200 66.980,56.761 66.800,56.224 66.800 C 55.687 66.800,55.136 66.620,55.000 66.400 C 54.678 65.878,48.522 65.878,48.200 66.400 C 48.064 66.620,47.639 66.800,47.256 66.800 C 46.381 66.800,44.407 67.699,44.403 68.100 C 44.401 68.265,44.130 68.400,43.800 68.400 C 43.470 68.400,43.197 68.535,43.192 68.700 C 43.188 68.865,42.558 69.718,41.792 70.596 C 41.027 71.473,40.400 72.418,40.400 72.696 C 40.400 72.973,40.220 73.200,40.000 73.200 C 39.780 73.200,39.600 73.729,39.600 74.376 C 39.600 75.023,39.420 75.664,39.200 75.800 C 38.673 76.126,38.673 82.400,39.200 82.400 C 39.420 82.400,39.600 83.120,39.600 84.000 C 39.600 84.880,39.780 85.600,40.000 85.600 C 40.220 85.600,40.400 86.230,40.400 87.000 C 40.400 87.770,40.556 88.400,40.747 88.400 C 40.938 88.400,41.206 89.075,41.343 89.900 C 41.480 90.725,41.878 92.660,42.227 94.200 C 42.577 95.740,42.959 97.585,43.075 98.300 C 43.192 99.015,43.448 99.600,43.644 99.600 C 43.840 99.600,44.000 100.219,44.000 100.976 C 44.000 101.733,44.180 102.464,44.400 102.600 C 44.998 102.969,44.903 104.515,44.300 104.234 C 44.025 104.105,43.485 103.889,43.100 103.754 C 42.715 103.618,42.400 103.381,42.400 103.228 C 42.400 103.075,41.770 102.702,41.000 102.400 C 40.230 102.098,39.600 101.704,39.600 101.525 C 39.600 101.346,39.330 101.200,39.000 101.200 C 38.670 101.200,38.400 101.020,38.400 100.800 C 38.400 100.580,38.130 100.400,37.800 100.400 C 37.470 100.400,37.200 100.220,37.200 100.000 C 37.200 99.780,36.840 99.600,36.400 99.600 C 35.960 99.600,35.600 99.420,35.600 99.200 C 35.600 98.980,35.322 98.800,34.983 98.800 C 34.644 98.800,33.980 98.440,33.508 98.000 C 33.036 97.560,32.413 97.200,32.125 97.200 C 31.836 97.200,31.600 97.020,31.600 96.800 C 31.600 96.580,31.255 96.400,30.833 96.400 C 30.412 96.400,30.007 96.265,29.933 96.100 C 29.722 95.625,26.559 94.000,25.846 94.000 C 25.490 94.000,25.200 93.820,25.200 93.600 C 25.200 93.100,17.867 93.059,16.895 93.553 C 16.513 93.748,15.660 94.149,15.000 94.446 C 7.816 97.672,6.003 109.630,11.817 115.444 C 12.563 116.190,13.359 116.800,13.587 116.800 C 13.814 116.800,14.000 116.980,14.000 117.200 C 14.000 117.420,14.270 117.600,14.600 117.600 C 14.930 117.600,15.200 117.780,15.200 118.000 C 15.200 118.220,15.560 118.400,16.000 118.400 C 16.440 118.400,16.800 118.580,16.800 118.800 C 16.800 119.020,17.078 119.200,17.417 119.200 C 17.756 119.200,18.420 119.560,18.892 120.000 C 19.364 120.440,19.987 120.800,20.275 120.800 C 20.564 120.800,20.800 120.980,20.800 121.200 C 20.800 121.420,21.145 121.600,21.567 121.600 C 21.988 121.600,22.393 121.735,22.467 121.900 C 22.612 122.227,24.977 123.635,27.200 124.718 C 27.970 125.093,28.660 125.535,28.733 125.700 C 28.807 125.865,29.122 126.000,29.433 126.000 C 29.745 126.000,30.000 126.180,30.000 126.400 C 30.000 126.620,30.360 126.800,30.800 126.800 C 31.240 126.800,31.600 126.980,31.600 127.200 C 31.600 127.420,31.161 127.600,30.624 127.600 C 30.087 127.600,29.536 127.780,29.400 128.000 C 29.264 128.220,28.634 128.400,28.000 128.400 C 27.366 128.400,26.736 128.580,26.600 128.800 C 26.464 129.020,25.823 129.200,25.176 129.200 C 24.529 129.200,24.000 129.380,24.000 129.600 C 24.000 129.820,23.280 130.000,22.400 130.000 C 21.520 130.000,20.800 130.180,20.800 130.400 C 20.800 130.620,20.181 130.800,19.424 130.800 C 18.667 130.800,17.936 130.980,17.800 131.200 C 17.664 131.420,17.034 131.600,16.400 131.600 C 15.766 131.600,15.136 131.780,15.000 132.000 C 14.864 132.220,14.133 132.400,13.376 132.400 C 12.619 132.400,12.000 132.580,12.000 132.800 C 12.000 133.020,11.370 133.200,10.600 133.200 C 9.830 133.200,9.200 133.380,9.200 133.600 C 9.200 133.820,8.700 134.000,8.088 134.000 C 7.435 134.000,6.739 134.330,6.400 134.800 C 6.083 135.240,5.585 135.600,5.294 135.600 C 4.621 135.600,3.170 137.071,2.432 138.500 C 2.120 139.105,1.715 139.600,1.532 139.600 C 1.350 139.600,1.200 139.960,1.200 140.400 C 1.200 140.840,1.020 141.200,0.800 141.200 C 0.555 141.200,0.400 143.133,0.400 146.200 C 0.400 149.267,0.555 151.200,0.800 151.200 C 1.020 151.200,1.200 151.560,1.200 152.000 C 1.200 152.440,1.380 152.800,1.600 152.800 C 1.820 152.800,2.000 153.070,2.000 153.400 C 2.000 153.730,2.180 154.000,2.400 154.000 C 2.620 154.000,2.800 154.204,2.800 154.453 C 2.800 154.941,4.323 156.400,4.833 156.400 C 5.003 156.400,5.381 156.625,5.671 156.900 C 7.579 158.705,14.478 159.166,19.800 157.845 C 21.340 157.463,23.187 157.052,23.904 156.931 C 24.621 156.810,25.306 156.551,25.427 156.356 C 25.548 156.160,26.267 156.000,27.024 156.000 C 27.781 156.000,28.400 155.820,28.400 155.600 C 28.400 155.380,29.019 155.200,29.776 155.200 C 30.533 155.200,31.264 155.020,31.400 154.800 C 31.536 154.580,32.166 154.400,32.800 154.400 C 33.434 154.400,34.064 154.220,34.200 154.000 C 34.336 153.780,35.067 153.600,35.824 153.600 C 36.581 153.600,37.200 153.420,37.200 153.200 C 37.200 152.980,37.819 152.800,38.576 152.800 C 39.333 152.800,40.064 152.620,40.200 152.400 C 40.336 152.180,41.067 152.000,41.824 152.000 C 42.581 152.000,43.200 151.840,43.200 151.644 C 43.200 151.307,43.649 151.190,47.300 150.568 C 48.125 150.427,48.800 150.152,48.800 149.956 C 48.800 149.760,49.520 149.600,50.400 149.600 C 51.280 149.600,52.000 149.420,52.000 149.200 C 52.000 148.980,52.619 148.800,53.376 148.800 C 54.133 148.800,54.864 148.620,55.000 148.400 C 55.136 148.180,55.766 148.000,56.400 148.000 C 57.034 148.000,57.664 147.820,57.800 147.600 C 57.936 147.380,58.577 147.200,59.224 147.200 C 59.871 147.200,60.400 147.020,60.400 146.800 C 60.400 146.580,61.105 146.400,61.967 146.400 C 62.846 146.400,63.622 146.181,63.735 145.900 C 63.896 145.500,63.943 145.500,63.968 145.900 C 63.986 146.175,64.270 146.400,64.600 146.400 C 64.930 146.400,65.200 146.580,65.200 146.800 C 65.200 147.020,65.560 147.200,66.000 147.200 C 66.440 147.200,66.800 147.380,66.800 147.600 C 66.800 147.820,67.078 148.000,67.417 148.000 C 67.756 148.000,68.420 148.360,68.892 148.800 C 69.364 149.240,69.987 149.600,70.275 149.600 C 70.564 149.600,70.800 149.780,70.800 150.000 C 70.800 150.220,71.160 150.400,71.600 150.400 C 72.040 150.400,72.400 150.580,72.400 150.800 C 72.400 151.020,72.694 151.200,73.053 151.200 C 73.412 151.200,73.997 151.516,74.353 151.903 C 74.709 152.289,75.540 152.874,76.200 153.202 C 76.860 153.530,77.490 153.889,77.600 153.999 C 77.896 154.296,79.551 155.230,81.698 156.313 C 82.742 156.839,83.697 157.434,83.821 157.635 C 83.946 157.836,84.397 158.000,84.824 158.000 C 85.251 158.000,85.600 158.180,85.600 158.400 C 85.600 158.620,85.960 158.800,86.400 158.800 C 86.840 158.800,87.200 158.980,87.200 159.200 C 87.200 159.420,87.520 159.600,87.912 159.600 C 88.303 159.600,88.883 159.960,89.200 160.400 C 89.517 160.840,90.097 161.200,90.488 161.200 C 90.880 161.200,91.200 161.380,91.200 161.600 C 91.200 161.820,91.470 162.000,91.800 162.000 C 92.130 162.000,92.400 162.180,92.400 162.400 C 92.400 162.620,92.678 162.800,93.017 162.800 C 93.356 162.800,94.020 163.160,94.492 163.600 C 94.964 164.040,95.587 164.400,95.875 164.400 C 96.164 164.400,96.400 164.580,96.400 164.800 C 96.400 165.020,96.683 165.200,97.029 165.200 C 98.845 165.200,98.800 164.313,98.800 200.000 C 98.800 235.687,98.845 234.800,97.029 234.800 C 96.683 234.800,96.400 234.980,96.400 235.200 C 96.400 235.420,96.164 235.600,95.875 235.600 C 95.587 235.600,94.964 235.960,94.492 236.400 C 94.020 236.840,93.356 237.200,93.017 237.200 C 92.678 237.200,92.400 237.380,92.400 237.600 C 92.400 237.820,92.130 238.000,91.800 238.000 C 91.470 238.000,91.200 238.180,91.200 238.400 C 91.200 238.620,90.880 238.800,90.488 238.800 C 90.097 238.800,89.517 239.160,89.200 239.600 C 88.883 240.040,88.303 240.400,87.912 240.400 C 87.520 240.400,87.200 240.580,87.200 240.800 C 87.200 241.020,86.840 241.200,86.400 241.200 C 85.960 241.200,85.600 241.380,85.600 241.600 C 85.600 241.820,85.251 242.000,84.824 242.000 C 84.397 242.000,83.943 242.168,83.816 242.374 C 83.689 242.580,82.598 243.231,81.392 243.821 C 80.187 244.411,79.200 245.053,79.200 245.247 C 79.200 245.441,78.840 245.600,78.400 245.600 C 77.960 245.600,77.600 245.736,77.600 245.902 C 77.600 246.069,77.015 246.460,76.300 246.772 C 75.585 247.084,74.709 247.668,74.353 248.070 C 73.997 248.471,73.412 248.800,73.053 248.800 C 72.694 248.800,72.400 248.980,72.400 249.200 C 72.400 249.420,72.040 249.600,71.600 249.600 C 71.160 249.600,70.800 249.780,70.800 250.000 C 70.800 250.220,70.564 250.400,70.275 250.400 C 69.987 250.400,69.364 250.760,68.892 251.200 C 68.420 251.640,67.756 252.000,67.417 252.000 C 67.078 252.000,66.800 252.180,66.800 252.400 C 66.800 252.620,66.440 252.800,66.000 252.800 C 65.560 252.800,65.200 252.980,65.200 253.200 C 65.200 253.420,64.945 253.600,64.633 253.600 C 64.322 253.600,63.976 253.825,63.865 254.100 C 63.704 254.500,63.657 254.500,63.632 254.100 C 63.612 253.789,62.996 253.600,62.000 253.600 C 61.120 253.600,60.400 253.420,60.400 253.200 C 60.400 252.980,59.871 252.800,59.224 252.800 C 58.577 252.800,57.936 252.620,57.800 252.400 C 57.664 252.180,57.034 252.000,56.400 252.000 C 55.766 252.000,55.136 251.820,55.000 251.600 C 54.864 251.380,54.133 251.200,53.376 251.200 C 52.619 251.200,52.000 251.020,52.000 250.800 C 52.000 250.580,51.280 250.400,50.400 250.400 C 49.520 250.400,48.800 250.240,48.800 250.044 C 48.800 249.848,48.170 249.578,47.400 249.444 C 46.630 249.310,45.370 249.090,44.600 248.956 C 43.830 248.822,43.200 248.552,43.200 248.356 C 43.200 248.160,42.581 248.000,41.824 248.000 C 41.067 248.000,40.336 247.820,40.200 247.600 C 40.064 247.380,39.333 247.200,38.576 247.200 C 37.819 247.200,37.200 247.040,37.200 246.844 C 37.200 246.648,36.570 246.378,35.800 246.244 C 35.030 246.110,33.768 245.890,32.996 245.756 C 32.224 245.621,31.494 245.351,31.373 245.156 C 31.252 244.960,30.533 244.800,29.776 244.800 C 29.019 244.800,28.400 244.620,28.400 244.400 C 28.400 244.180,27.781 244.000,27.024 244.000 C 26.267 244.000,25.548 243.840,25.427 243.644 C 25.306 243.449,24.621 243.193,23.904 243.077 C 23.187 242.961,21.340 242.539,19.800 242.141 C 14.647 240.806,7.609 241.272,5.698 243.074 C 5.421 243.334,4.865 243.652,4.462 243.780 C 4.058 243.908,3.489 244.460,3.196 245.007 C 2.904 245.553,2.515 246.000,2.332 246.000 C 2.150 246.000,2.000 246.270,2.000 246.600 C 2.000 246.930,1.820 247.200,1.600 247.200 C 1.380 247.200,1.200 247.560,1.200 248.000 C 1.200 248.440,1.020 248.800,0.800 248.800 C 0.555 248.800,0.400 250.733,0.400 253.800 C 0.400 256.867,0.555 258.800,0.800 258.800 C 1.020 258.800,1.200 259.120,1.200 259.512 C 1.200 259.903,1.560 260.483,2.000 260.800 C 2.440 261.117,2.800 261.615,2.800 261.906 C 2.800 262.593,4.607 264.400,5.294 264.400 C 5.585 264.400,6.083 264.760,6.400 265.200 C 6.739 265.670,7.435 266.000,8.088 266.000 C 8.700 266.000,9.200 266.180,9.200 266.400 C 9.200 266.620,9.830 266.800,10.600 266.800 C 11.370 266.800,12.000 266.980,12.000 267.200 C 12.000 267.420,12.619 267.600,13.376 267.600 C 14.133 267.600,14.864 267.780,15.000 268.000 C 15.136 268.220,15.766 268.400,16.400 268.400 C 17.034 268.400,17.664 268.580,17.800 268.800 C 17.936 269.020,18.667 269.200,19.424 269.200 C 20.181 269.200,20.800 269.380,20.800 269.600 C 20.800 269.820,21.520 270.000,22.400 270.000 C 23.280 270.000,24.000 270.180,24.000 270.400 C 24.000 270.620,24.529 270.800,25.176 270.800 C 25.823 270.800,26.464 270.980,26.600 271.200 C 26.736 271.420,27.366 271.600,28.000 271.600 C 28.634 271.600,29.264 271.780,29.400 272.000 C 29.536 272.220,30.087 272.400,30.624 272.400 C 31.161 272.400,31.600 272.580,31.600 272.800 C 31.600 273.020,31.240 273.200,30.800 273.200 C 30.360 273.200,30.000 273.380,30.000 273.600 C 30.000 273.820,29.745 274.000,29.433 274.000 C 29.122 274.000,28.807 274.135,28.733 274.300 C 28.660 274.465,27.970 274.907,27.200 275.282 C 24.977 276.365,22.612 277.773,22.467 278.100 C 22.393 278.265,21.988 278.400,21.567 278.400 C 21.145 278.400,20.800 278.580,20.800 278.800 C 20.800 279.020,20.564 279.200,20.275 279.200 C 19.987 279.200,19.364 279.560,18.892 280.000 C 18.420 280.440,17.756 280.800,17.417 280.800 C 17.078 280.800,16.800 280.980,16.800 281.200 C 16.800 281.420,16.440 281.600,16.000 281.600 C 15.560 281.600,15.200 281.780,15.200 282.000 C 15.200 282.220,14.959 282.400,14.664 282.400 C 13.795 282.400,10.588 285.669,9.555 287.609 C 8.142 290.260,8.133 297.813,9.540 300.184 C 10.723 302.176,13.762 305.200,14.581 305.200 C 14.921 305.200,15.200 305.380,15.200 305.600 C 15.200 305.820,15.549 306.000,15.976 306.000 C 16.403 306.000,16.864 306.180,17.000 306.400 C 17.328 306.931,25.200 306.931,25.200 306.400 C 25.200 306.180,25.490 306.000,25.846 306.000 C 26.559 306.000,29.722 304.375,29.933 303.900 C 30.007 303.735,30.412 303.600,30.833 303.600 C 31.255 303.600,31.600 303.420,31.600 303.200 C 31.600 302.980,31.836 302.800,32.125 302.800 C 32.413 302.800,33.036 302.440,33.508 302.000 C 33.980 301.560,34.644 301.200,34.983 301.200 C 35.322 301.200,35.600 301.020,35.600 300.800 C 35.600 300.580,35.960 300.400,36.400 300.400 C 36.840 300.400,37.200 300.220,37.200 300.000 C 37.200 299.780,37.470 299.600,37.800 299.600 C 38.130 299.600,38.400 299.420,38.400 299.200 C 38.400 298.980,38.670 298.800,39.000 298.800 C 39.330 298.800,39.600 298.654,39.600 298.475 C 39.600 298.296,40.230 297.902,41.000 297.600 C 41.770 297.298,42.400 296.925,42.400 296.772 C 42.400 296.619,42.715 296.382,43.100 296.246 C 43.485 296.111,44.025 295.895,44.300 295.766 C 44.903 295.485,44.998 297.031,44.400 297.400 C 44.180 297.536,44.000 298.267,44.000 299.024 C 44.000 299.781,43.840 300.400,43.644 300.400 C 43.448 300.400,43.192 300.985,43.075 301.700 C 42.959 302.415,42.577 304.260,42.227 305.800 C 41.878 307.340,41.480 309.275,41.343 310.100 C 41.206 310.925,40.938 311.600,40.747 311.600 C 40.556 311.600,40.400 312.230,40.400 313.000 C 40.400 313.770,40.220 314.400,40.000 314.400 C 39.780 314.400,39.600 315.120,39.600 316.000 C 39.600 316.880,39.420 317.600,39.200 317.600 C 38.673 317.600,38.673 323.874,39.200 324.200 C 39.420 324.336,39.600 324.977,39.600 325.624 C 39.600 326.271,39.780 326.800,40.000 326.800 C 40.220 326.800,40.400 327.027,40.400 327.304 C 40.400 327.582,41.027 328.527,41.792 329.404 C 42.558 330.282,43.188 331.135,43.192 331.300 C 43.197 331.465,43.470 331.600,43.800 331.600 C 44.130 331.600,44.401 331.735,44.403 331.900 C 44.407 332.301,46.381 333.200,47.256 333.200 C 47.639 333.200,48.064 333.380,48.200 333.600 C 48.522 334.122,54.678 334.122,55.000 333.600 C 55.136 333.380,55.687 333.200,56.224 333.200 C 56.761 333.200,57.200 333.020,57.200 332.800 C 57.200 332.580,57.474 332.400,57.809 332.400 C 58.601 332.400,62.800 328.201,62.800 327.409 C 62.800 327.074,62.980 326.800,63.200 326.800 C 63.420 326.800,63.600 326.440,63.600 326.000 C 63.600 325.560,63.780 325.200,64.000 325.200 C 64.220 325.200,64.400 324.570,64.400 323.800 C 64.400 323.030,64.580 322.400,64.800 322.400 C 65.020 322.400,65.200 321.871,65.200 321.224 C 65.200 320.577,65.380 319.936,65.600 319.800 C 65.820 319.664,66.000 318.933,66.000 318.176 C 66.000 317.419,66.180 316.800,66.400 316.800 C 66.620 316.800,66.800 316.080,66.800 315.200 C 66.800 314.320,66.980 313.600,67.200 313.600 C 67.420 313.600,67.600 312.981,67.600 312.224 C 67.600 311.467,67.780 310.736,68.000 310.600 C 68.220 310.464,68.400 309.823,68.400 309.176 C 68.400 308.529,68.580 308.000,68.800 308.000 C 69.020 308.000,69.200 307.381,69.200 306.624 C 69.200 305.867,69.380 305.136,69.600 305.000 C 69.820 304.864,70.000 304.133,70.000 303.376 C 70.000 302.619,70.180 302.000,70.400 302.000 C 70.620 302.000,70.800 301.381,70.800 300.624 C 70.800 299.867,70.980 299.136,71.200 299.000 C 71.420 298.864,71.600 298.234,71.600 297.600 C 71.600 296.966,71.780 296.336,72.000 296.200 C 72.220 296.064,72.400 295.333,72.400 294.576 C 72.400 293.819,72.580 293.200,72.800 293.200 C 73.020 293.200,73.200 292.658,73.200 291.995 C 73.200 291.332,73.359 290.477,73.552 290.095 C 74.110 288.996,75.200 284.192,75.200 282.834 C 75.200 282.155,75.380 281.600,75.600 281.600 C 75.820 281.600,76.000 280.981,76.000 280.224 C 76.000 279.467,76.180 278.736,76.400 278.600 C 76.620 278.464,76.800 278.081,76.800 277.748 C 76.800 276.960,77.773 276.000,78.571 276.000 C 78.917 276.000,79.200 275.853,79.200 275.674 C 79.200 275.494,80.280 274.831,81.600 274.200 C 82.920 273.569,84.000 272.906,84.000 272.726 C 84.000 272.547,84.360 272.400,84.800 272.400 C 85.240 272.400,85.600 272.254,85.600 272.075 C 85.600 271.896,86.230 271.502,87.000 271.200 C 87.770 270.898,88.400 270.504,88.400 270.325 C 88.400 270.146,88.670 270.000,89.000 270.000 C 89.330 270.000,89.600 269.854,89.600 269.675 C 89.600 269.496,90.230 269.102,91.000 268.800 C 91.770 268.498,92.400 268.104,92.400 267.925 C 92.400 267.746,92.720 267.600,93.112 267.600 C 93.503 267.600,94.083 267.240,94.400 266.800 C 94.717 266.360,95.297 266.000,95.688 266.000 C 96.080 266.000,96.400 265.820,96.400 265.600 C 96.400 265.380,96.760 265.200,97.200 265.200 C 97.640 265.200,98.000 265.020,98.000 264.800 C 98.000 264.580,98.270 264.400,98.600 264.400 C 98.930 264.400,99.200 264.220,99.200 264.000 C 99.200 263.780,99.470 263.600,99.800 263.600 C 100.130 263.600,100.400 263.420,100.400 263.200 C 100.400 262.980,100.760 262.800,101.200 262.800 C 101.640 262.800,102.000 262.620,102.000 262.400 C 102.000 262.180,102.278 262.000,102.617 262.000 C 102.956 262.000,103.620 261.640,104.092 261.200 C 104.564 260.760,105.187 260.400,105.475 260.400 C 105.764 260.400,106.000 260.264,106.000 260.098 C 106.000 259.931,106.585 259.537,107.300 259.222 C 108.015 258.907,108.838 258.413,109.129 258.125 C 109.419 257.836,110.004 257.600,110.429 257.600 C 110.853 257.600,111.200 257.399,111.200 257.154 C 111.200 256.880,111.580 256.957,112.186 257.354 C 112.728 257.709,113.448 258.000,113.786 258.000 C 114.124 258.000,114.400 258.180,114.400 258.400 C 114.400 258.620,114.720 258.800,115.112 258.800 C 115.503 258.800,116.083 259.160,116.400 259.600 C 116.717 260.040,117.297 260.400,117.688 260.400 C 118.080 260.400,118.400 260.580,118.400 260.800 C 118.400 261.020,118.678 261.200,119.017 261.200 C 119.356 261.200,120.020 261.560,120.492 262.000 C 120.964 262.440,121.587 262.800,121.875 262.800 C 122.164 262.800,122.400 262.980,122.400 263.200 C 122.400 263.420,122.760 263.600,123.200 263.600 C 123.640 263.600,124.000 263.780,124.000 264.000 C 124.000 264.220,124.236 264.400,124.525 264.400 C 124.813 264.400,125.398 264.725,125.825 265.122 C 126.251 265.520,127.185 266.103,127.900 266.420 C 128.615 266.736,129.200 267.131,129.200 267.298 C 129.200 267.464,129.478 267.600,129.817 267.600 C 130.156 267.600,130.820 267.960,131.292 268.400 C 131.764 268.840,132.387 269.200,132.675 269.200 C 132.964 269.200,133.200 269.380,133.200 269.600 C 133.200 269.820,133.545 270.000,133.967 270.000 C 134.388 270.000,134.793 270.135,134.867 270.300 C 135.034 270.676,137.164 271.975,138.100 272.271 C 138.485 272.393,138.800 272.652,138.800 272.847 C 138.800 273.041,139.160 273.200,139.600 273.200 C 140.040 273.200,140.400 273.362,140.400 273.560 C 140.400 273.759,141.209 274.254,142.199 274.660 C 143.188 275.067,143.998 275.535,143.999 275.700 C 143.999 275.865,144.278 276.000,144.617 276.000 C 144.956 276.000,145.620 276.360,146.092 276.800 C 146.564 277.240,147.187 277.600,147.475 277.600 C 147.764 277.600,148.000 277.780,148.000 278.000 C 148.000 278.220,148.360 278.400,148.800 278.400 C 149.240 278.400,149.600 278.580,149.600 278.800 C 149.600 279.020,149.920 279.200,150.312 279.200 C 150.703 279.200,151.283 279.560,151.600 280.000 C 151.917 280.440,152.497 280.800,152.888 280.800 C 153.280 280.800,153.600 280.980,153.600 281.200 C 153.600 281.420,153.960 281.600,154.400 281.600 C 154.840 281.600,155.200 281.780,155.200 282.000 C 155.200 282.220,155.436 282.400,155.725 282.400 C 156.013 282.400,156.636 282.760,157.108 283.200 C 157.580 283.640,158.244 284.000,158.583 284.000 C 158.922 284.000,159.200 284.180,159.200 284.400 C 159.200 284.620,159.455 284.800,159.767 284.800 C 160.078 284.800,160.393 284.935,160.467 285.100 C 160.634 285.476,162.764 286.775,163.700 287.071 C 164.085 287.193,164.400 287.452,164.400 287.647 C 164.400 287.841,164.745 288.000,165.167 288.000 C 165.588 288.000,165.993 288.151,166.067 288.335 C 166.140 288.519,167.190 289.206,168.400 289.863 L 170.600 291.057 170.704 310.724 L 170.808 330.391 152.404 348.809 C 142.282 358.939,134.000 367.491,134.000 367.814 C 134.000 368.136,133.820 368.400,133.600 368.400 C 133.380 368.400,133.200 368.749,133.200 369.176 C 133.200 369.603,133.020 370.064,132.800 370.200 C 132.267 370.529,132.267 379.200,132.800 379.200 C 133.020 379.200,133.200 379.700,133.200 380.312 C 133.200 380.965,133.530 381.661,134.000 382.000 C 134.440 382.317,134.800 382.798,134.800 383.068 C 134.800 383.338,135.475 384.063,136.300 384.680 C 137.125 385.296,137.860 385.935,137.933 386.100 C 138.007 386.265,138.412 386.400,138.833 386.400 C 139.255 386.400,139.600 386.580,139.600 386.800 C 139.600 387.020,140.140 387.200,140.800 387.200 C 141.460 387.200,142.000 387.380,142.000 387.600 C 142.000 387.831,143.259 388.000,144.976 388.000 C 146.613 388.000,148.064 387.820,148.200 387.600 C 148.336 387.380,148.761 387.200,149.144 387.200 C 150.019 387.200,151.993 386.301,151.997 385.900 C 151.999 385.735,152.315 385.593,152.700 385.584 C 153.085 385.575,154.390 384.477,155.600 383.143 C 158.972 379.426,170.199 368.400,170.612 368.400 C 170.716 368.400,170.800 373.440,170.800 379.600 C 170.800 386.800,170.943 390.800,171.200 390.800 C 171.420 390.800,171.600 391.340,171.600 392.000 C 171.600 392.660,171.780 393.200,172.000 393.200 C 172.220 393.200,172.400 393.520,172.400 393.912 C 172.400 394.303,172.760 394.883,173.200 395.200 C 173.640 395.517,174.000 395.942,174.000 396.145 C 174.000 396.616,176.273 398.800,176.763 398.800 C 176.967 398.800,177.208 399.025,177.300 399.300 C 177.601 400.203,187.969 400.242,189.859 399.347 C 191.669 398.489,194.800 395.488,194.800 394.611 C 194.800 394.275,194.980 394.000,195.200 394.000 C 195.420 394.000,195.600 393.640,195.600 393.200 C 195.600 392.760,195.780 392.400,196.000 392.400 C 196.258 392.400,196.400 388.000,196.400 380.000 C 196.400 373.180,196.503 367.600,196.628 367.600 C 196.753 367.600,201.082 371.830,206.246 377.000 C 211.411 382.170,215.899 386.400,216.218 386.400 C 216.538 386.400,216.800 386.580,216.800 386.800 C 216.800 387.020,217.340 387.200,218.000 387.200 C 218.660 387.200,219.200 387.380,219.200 387.600 C 219.200 387.833,220.525 388.000,222.376 388.000 C 224.123 388.000,225.664 387.820,225.800 387.600 C 225.936 387.380,226.386 387.200,226.801 387.200 C 229.367 387.200,234.800 381.774,234.800 379.211 C 234.800 378.791,234.980 378.336,235.200 378.200 C 235.420 378.064,235.600 376.523,235.600 374.776 C 235.600 372.925,235.433 371.600,235.200 371.600 C 234.980 371.600,234.800 371.060,234.800 370.400 C 234.800 369.740,234.620 369.200,234.400 369.200 C 234.180 369.200,234.000 368.927,234.000 368.594 C 234.000 368.261,225.540 359.533,215.200 349.200 L 196.400 330.412 196.400 310.854 L 196.400 291.297 197.600 290.800 C 198.260 290.527,198.800 290.145,198.800 289.951 C 198.800 289.758,199.145 289.600,199.567 289.600 C 199.988 289.600,200.393 289.465,200.467 289.300 C 200.540 289.135,201.455 288.567,202.500 288.037 C 203.545 287.508,204.400 286.956,204.400 286.812 C 204.400 286.667,205.030 286.302,205.800 286.000 C 206.570 285.698,207.200 285.304,207.200 285.125 C 207.200 284.946,207.436 284.800,207.725 284.800 C 208.013 284.800,208.636 284.440,209.108 284.000 C 209.580 283.560,210.244 283.200,210.583 283.200 C 210.922 283.200,211.200 283.020,211.200 282.800 C 211.200 282.580,211.560 282.400,212.000 282.400 C 212.440 282.400,212.800 282.220,212.800 282.000 C 212.800 281.780,213.036 281.600,213.325 281.600 C 213.613 281.600,214.236 281.240,214.708 280.800 C 215.180 280.360,215.844 280.000,216.183 280.000 C 216.522 280.000,216.800 279.820,216.800 279.600 C 216.800 279.380,217.120 279.200,217.512 279.200 C 217.903 279.200,218.483 278.840,218.800 278.400 C 219.117 277.960,219.697 277.600,220.088 277.600 C 220.480 277.600,220.800 277.420,220.800 277.200 C 220.800 276.980,221.160 276.800,221.600 276.800 C 222.040 276.800,222.400 276.620,222.400 276.400 C 222.400 276.180,222.655 276.000,222.967 276.000 C 223.278 276.000,223.593 275.850,223.667 275.666 C 223.740 275.482,225.150 274.631,226.800 273.775 C 228.450 272.919,229.860 272.080,229.933 271.909 C 230.007 271.739,230.412 271.600,230.833 271.600 C 231.255 271.600,231.600 271.420,231.600 271.200 C 231.600 270.980,231.836 270.800,232.125 270.800 C 232.413 270.800,233.036 270.440,233.508 270.000 C 233.980 269.560,234.644 269.200,234.983 269.200 C 235.322 269.200,235.600 269.020,235.600 268.800 C 235.600 268.580,235.960 268.400,236.400 268.400 C 236.840 268.400,237.200 268.220,237.200 268.000 C 237.200 267.780,237.436 267.600,237.725 267.600 C 238.013 267.600,238.598 267.275,239.025 266.878 C 239.451 266.480,240.385 265.897,241.100 265.580 C 241.815 265.264,242.400 264.869,242.400 264.702 C 242.400 264.536,242.720 264.400,243.112 264.400 C 243.503 264.400,244.083 264.040,244.400 263.600 C 244.717 263.160,245.297 262.800,245.688 262.800 C 246.080 262.800,246.400 262.620,246.400 262.400 C 246.400 262.180,246.760 262.000,247.200 262.000 C 247.640 262.000,248.000 261.820,248.000 261.600 C 248.000 261.380,248.236 261.200,248.525 261.200 C 248.813 261.200,249.436 260.840,249.908 260.400 C 250.380 259.960,251.044 259.600,251.383 259.600 C 251.722 259.600,252.000 259.420,252.000 259.200 C 252.000 258.980,252.360 258.800,252.800 258.800 C 253.240 258.800,253.600 258.634,253.600 258.431 C 253.600 256.685,258.650 257.544,260.975 259.686 C 261.402 260.079,261.987 260.400,262.275 260.400 C 262.564 260.400,262.800 260.580,262.800 260.800 C 262.800 261.020,263.160 261.200,263.600 261.200 C 264.040 261.200,264.400 261.380,264.400 261.600 C 264.400 261.820,264.636 262.000,264.925 262.000 C 265.213 262.000,265.836 262.360,266.308 262.800 C 266.780 263.240,267.444 263.600,267.783 263.600 C 268.122 263.600,268.400 263.780,268.400 264.000 C 268.400 264.220,268.678 264.400,269.017 264.400 C 269.356 264.400,270.020 264.760,270.492 265.200 C 270.964 265.640,271.587 266.000,271.875 266.000 C 272.164 266.000,272.400 266.180,272.400 266.400 C 272.400 266.620,272.760 266.800,273.200 266.800 C 273.640 266.800,274.000 266.980,274.000 267.200 C 274.000 267.420,274.193 267.600,274.428 267.600 C 274.663 267.600,275.641 268.140,276.600 268.800 C 277.559 269.460,278.537 270.000,278.772 270.000 C 279.007 270.000,279.200 270.180,279.200 270.400 C 279.200 270.620,279.560 270.800,280.000 270.800 C 280.440 270.800,280.800 270.945,280.800 271.121 C 280.800 271.298,281.697 271.883,282.794 272.421 C 283.890 272.960,284.790 273.535,284.794 273.700 C 284.797 273.865,285.138 274.000,285.551 274.000 C 285.964 274.000,286.526 274.270,286.800 274.600 C 287.074 274.930,287.636 275.200,288.049 275.200 C 288.462 275.200,288.800 275.380,288.800 275.600 C 288.800 275.820,289.130 276.000,289.532 276.000 C 290.368 276.000,291.034 277.165,291.361 279.200 C 291.485 279.970,291.874 281.770,292.226 283.200 C 292.577 284.630,292.960 286.387,293.077 287.104 C 293.193 287.821,293.449 288.506,293.644 288.627 C 293.840 288.748,294.000 289.467,294.000 290.224 C 294.000 290.981,294.180 291.600,294.400 291.600 C 294.620 291.600,294.800 292.219,294.800 292.976 C 294.800 293.733,294.960 294.452,295.156 294.573 C 295.351 294.694,295.621 295.424,295.756 296.196 C 295.890 296.968,296.110 298.230,296.244 299.000 C 296.378 299.770,296.648 300.400,296.844 300.400 C 297.040 300.400,297.200 301.120,297.200 302.000 C 297.200 302.880,297.380 303.600,297.600 303.600 C 297.820 303.600,298.000 304.230,298.000 305.000 C 298.000 305.770,298.160 306.400,298.356 306.400 C 298.552 306.400,298.822 307.030,298.956 307.800 C 299.090 308.570,299.310 309.830,299.444 310.600 C 299.578 311.370,299.848 312.000,300.044 312.000 C 300.240 312.000,300.400 312.720,300.400 313.600 C 300.400 314.480,300.580 315.200,300.800 315.200 C 301.020 315.200,301.200 315.819,301.200 316.576 C 301.200 317.333,301.380 318.064,301.600 318.200 C 301.820 318.336,302.000 318.966,302.000 319.600 C 302.000 320.234,302.180 320.864,302.400 321.000 C 302.620 321.136,302.800 321.766,302.800 322.400 C 302.800 323.034,302.980 323.664,303.200 323.800 C 303.420 323.936,303.600 324.487,303.600 325.024 C 303.600 325.561,303.780 326.000,304.000 326.000 C 304.220 326.000,304.400 326.360,304.400 326.800 C 304.400 327.240,304.580 327.600,304.800 327.600 C 305.020 327.600,305.200 327.876,305.200 328.213 C 305.200 329.049,307.543 331.331,309.116 332.027 C 309.822 332.340,310.400 332.731,310.400 332.898 C 310.400 333.064,310.940 333.200,311.600 333.200 C 312.260 333.200,312.800 333.380,312.800 333.600 C 312.800 333.833,314.133 334.000,316.000 334.000 C 317.867 334.000,319.200 333.833,319.200 333.600 C 319.200 333.380,319.740 333.200,320.400 333.200 C 321.060 333.200,321.600 333.020,321.600 332.800 C 321.600 332.580,321.920 332.400,322.312 332.400 C 322.703 332.400,323.283 332.040,323.600 331.600 C 323.917 331.160,324.330 330.800,324.517 330.800 C 325.046 330.800,326.000 329.717,326.000 329.117 C 326.000 328.820,326.360 328.317,326.800 328.000 C 327.240 327.683,327.600 327.024,327.600 326.535 C 327.600 326.047,327.780 325.536,328.000 325.400 C 328.229 325.258,328.400 323.196,328.400 320.576 C 328.400 317.792,328.243 316.000,328.000 316.000 C 327.780 316.000,327.600 315.280,327.600 314.400 C 327.600 313.520,327.420 312.800,327.200 312.800 C 326.980 312.800,326.800 312.170,326.800 311.400 C 326.800 310.630,326.620 310.000,326.400 310.000 C 326.180 310.000,326.000 309.460,326.000 308.800 C 326.000 308.140,325.820 307.600,325.600 307.600 C 325.380 307.600,325.200 307.027,325.200 306.326 C 325.200 304.983,324.191 300.359,323.602 299.000 C 322.970 297.544,322.894 295.600,323.469 295.600 C 323.761 295.600,324.000 295.780,324.000 296.000 C 324.000 296.220,324.193 296.400,324.428 296.400 C 324.663 296.400,325.641 296.940,326.600 297.600 C 327.559 298.260,328.537 298.800,328.772 298.800 C 329.007 298.800,329.200 298.980,329.200 299.200 C 329.200 299.420,329.478 299.600,329.817 299.600 C 330.156 299.600,330.820 299.960,331.292 300.400 C 331.764 300.840,332.387 301.200,332.675 301.200 C 332.964 301.200,333.200 301.380,333.200 301.600 C 333.200 301.820,333.560 302.000,334.000 302.000 C 334.440 302.000,334.800 302.180,334.800 302.400 C 334.800 302.620,335.078 302.800,335.417 302.800 C 335.756 302.800,336.420 303.160,336.892 303.600 C 337.364 304.040,337.987 304.400,338.275 304.400 C 338.564 304.400,338.800 304.580,338.800 304.800 C 338.800 305.020,339.160 305.200,339.600 305.200 C 340.040 305.200,340.400 305.380,340.400 305.600 C 340.400 305.820,340.749 306.000,341.176 306.000 C 341.603 306.000,342.064 306.180,342.200 306.400 C 342.500 306.885,349.727 306.938,350.705 306.462 C 355.319 304.220,356.269 303.388,357.827 300.225 C 358.871 298.106,359.338 288.800,358.400 288.800 C 358.180 288.800,358.000 288.477,358.000 288.081 C 358.000 286.721,354.029 282.400,352.779 282.400 C 352.552 282.400,351.980 282.040,351.508 281.600 C 351.036 281.160,350.413 280.800,350.125 280.800 C 349.836 280.800,349.600 280.620,349.600 280.400 C 349.600 280.180,349.240 280.000,348.800 280.000 C 348.360 280.000,348.000 279.855,348.000 279.679 C 348.000 279.502,347.103 278.917,346.006 278.379 C 344.910 277.840,344.010 277.265,344.006 277.100 C 344.003 276.935,343.640 276.800,343.200 276.800 C 342.760 276.800,342.400 276.638,342.400 276.440 C 342.400 276.241,341.591 275.746,340.601 275.340 C 339.612 274.933,338.802 274.465,338.801 274.300 C 338.801 274.135,338.522 274.000,338.183 274.000 C 337.844 274.000,337.180 273.640,336.708 273.200 L 335.849 272.400 336.925 272.400 C 337.516 272.400,338.000 272.220,338.000 272.000 C 338.000 271.780,338.630 271.600,339.400 271.600 C 340.170 271.600,340.800 271.420,340.800 271.200 C 340.800 270.980,341.520 270.800,342.400 270.800 C 343.280 270.800,344.000 270.620,344.000 270.400 C 344.000 270.180,344.619 270.000,345.376 270.000 C 346.133 270.000,346.864 269.820,347.000 269.600 C 347.136 269.380,347.777 269.200,348.424 269.200 C 349.071 269.200,349.600 269.020,349.600 268.800 C 349.600 268.580,350.320 268.400,351.200 268.400 C 352.080 268.400,352.800 268.220,352.800 268.000 C 352.800 267.780,353.419 267.600,354.176 267.600 C 354.933 267.600,355.664 267.420,355.800 267.200 C 355.936 266.980,356.566 266.800,357.200 266.800 C 357.834 266.800,358.464 266.620,358.600 266.400 C 358.736 266.180,359.197 266.000,359.624 266.000 C 360.051 266.000,360.400 265.820,360.400 265.600 C 360.400 265.380,360.674 265.200,361.009 265.200 C 361.801 265.200,366.000 261.001,366.000 260.209 C 366.000 259.874,366.180 259.600,366.400 259.600 C 366.620 259.600,366.800 259.060,366.800 258.400 C 366.800 257.740,366.980 257.200,367.200 257.200 C 367.435 257.200,367.600 255.800,367.600 253.800 C 367.600 251.800,367.435 250.400,367.200 250.400 C 366.980 250.400,366.800 249.860,366.800 249.200 C 366.800 248.540,366.620 248.000,366.400 248.000 C 366.180 248.000,366.000 247.718,366.000 247.374 C 366.000 246.213,362.135 242.908,359.721 242.005 C 356.997 240.986,351.901 241.059,347.600 242.180 C 346.170 242.553,344.550 242.948,344.000 243.059 C 343.450 243.170,342.640 243.413,342.200 243.600 C 341.357 243.958,339.860 244.315,337.700 244.672 C 336.985 244.791,336.400 245.048,336.400 245.244 C 336.400 245.440,335.680 245.600,334.800 245.600 C 333.920 245.600,333.200 245.780,333.200 246.000 C 333.200 246.220,332.581 246.400,331.824 246.400 C 331.067 246.400,330.336 246.580,330.200 246.800 C 330.064 247.020,329.434 247.200,328.800 247.200 C 328.166 247.200,327.536 247.380,327.400 247.600 C 327.264 247.820,326.623 248.000,325.976 248.000 C 325.329 248.000,324.800 248.180,324.800 248.400 C 324.800 248.620,324.080 248.800,323.200 248.800 C 322.320 248.800,321.600 248.980,321.600 249.200 C 321.600 249.420,320.880 249.600,320.000 249.600 C 319.120 249.600,318.400 249.780,318.400 250.000 C 318.400 250.220,317.860 250.400,317.200 250.400 C 316.540 250.400,316.000 250.580,316.000 250.800 C 316.000 251.020,315.280 251.200,314.400 251.200 C 313.520 251.200,312.800 251.380,312.800 251.600 C 312.800 251.820,312.170 252.000,311.400 252.000 C 310.630 252.000,310.000 252.180,310.000 252.400 C 310.000 252.620,309.280 252.800,308.400 252.800 C 307.520 252.800,306.800 252.980,306.800 253.200 C 306.800 253.420,306.275 253.600,305.633 253.600 C 304.992 253.600,304.362 253.825,304.233 254.100 C 304.047 254.500,303.953 254.500,303.767 254.100 C 303.638 253.825,303.271 253.600,302.950 253.600 C 302.629 253.600,301.980 253.240,301.508 252.800 C 301.036 252.360,300.413 252.000,300.125 252.000 C 299.836 252.000,299.600 251.820,299.600 251.600 C 299.600 251.380,299.240 251.200,298.800 251.200 C 298.360 251.200,298.000 251.020,298.000 250.800 C 298.000 250.580,297.680 250.400,297.288 250.400 C 296.897 250.400,296.317 250.040,296.000 249.600 C 295.683 249.160,295.103 248.800,294.712 248.800 C 294.320 248.800,294.000 248.620,294.000 248.400 C 294.000 248.180,293.640 248.000,293.200 248.000 C 292.760 248.000,292.400 247.820,292.400 247.600 C 292.400 247.380,292.164 247.200,291.875 247.200 C 291.587 247.200,291.002 246.885,290.575 246.500 C 290.149 246.115,289.260 245.530,288.600 245.201 C 287.940 244.871,287.310 244.498,287.200 244.371 C 287.090 244.245,285.605 243.448,283.900 242.600 C 282.195 241.752,280.800 240.910,280.800 240.729 C 280.800 240.548,280.440 240.400,280.000 240.400 C 279.560 240.400,279.200 240.220,279.200 240.000 C 279.200 239.780,278.840 239.600,278.400 239.600 C 277.960 239.600,277.600 239.420,277.600 239.200 C 277.600 238.980,277.364 238.800,277.075 238.800 C 276.787 238.800,276.202 238.475,275.775 238.078 C 275.349 237.680,274.415 237.097,273.700 236.780 C 272.985 236.464,272.400 236.069,272.400 235.902 C 272.400 235.736,272.130 235.600,271.800 235.600 C 271.470 235.600,271.200 235.420,271.200 235.200 C 271.200 234.980,271.007 234.800,270.771 234.800 C 269.186 234.800,269.200 235.102,269.200 200.000 C 269.200 164.898,269.186 165.200,270.771 165.200 C 271.007 165.200,271.200 165.020,271.200 164.800 C 271.200 164.580,271.470 164.400,271.800 164.400 C 272.130 164.400,272.400 164.264,272.400 164.098 C 272.400 163.931,272.985 163.536,273.700 163.220 C 274.415 162.903,275.349 162.320,275.775 161.922 C 276.202 161.525,276.787 161.200,277.075 161.200 C 277.364 161.200,277.600 161.020,277.600 160.800 C 277.600 160.580,277.960 160.400,278.400 160.400 C 278.840 160.400,279.200 160.220,279.200 160.000 C 279.200 159.780,279.560 159.600,280.000 159.600 C 280.440 159.600,280.800 159.452,280.800 159.271 C 280.800 159.090,282.195 158.248,283.900 157.400 C 285.605 156.552,287.090 155.755,287.200 155.629 C 287.310 155.502,287.940 155.129,288.600 154.799 C 289.260 154.470,290.149 153.885,290.575 153.500 C 291.002 153.115,291.587 152.800,291.875 152.800 C 292.164 152.800,292.400 152.620,292.400 152.400 C 292.400 152.180,292.760 152.000,293.200 152.000 C 293.640 152.000,294.000 151.820,294.000 151.600 C 294.000 151.380,294.320 151.200,294.712 151.200 C 295.103 151.200,295.683 150.840,296.000 150.400 C 296.317 149.960,296.897 149.600,297.288 149.600 C 297.680 149.600,298.000 149.420,298.000 149.200 C 298.000 148.980,298.360 148.800,298.800 148.800 C 299.240 148.800,299.600 148.620,299.600 148.400 C 299.600 148.180,299.836 148.000,300.125 148.000 C 300.413 148.000,301.036 147.640,301.508 147.200 C 301.980 146.760,302.629 146.400,302.950 146.400 C 303.271 146.400,303.638 146.175,303.767 145.900 C 303.953 145.500,304.047 145.500,304.233 145.900 C 304.362 146.175,304.992 146.400,305.633 146.400 C 306.275 146.400,306.800 146.580,306.800 146.800 C 306.800 147.020,307.520 147.200,308.400 147.200 C 309.280 147.200,310.000 147.380,310.000 147.600 C 310.000 147.820,310.630 148.000,311.400 148.000 C 312.170 148.000,312.800 148.180,312.800 148.400 C 312.800 148.620,313.520 148.800,314.400 148.800 C 315.280 148.800,316.000 148.980,316.000 149.200 C 316.000 149.420,316.540 149.600,317.200 149.600 C 317.860 149.600,318.400 149.780,318.400 150.000 C 318.400 150.220,319.120 150.400,320.000 150.400 C 320.880 150.400,321.600 150.580,321.600 150.800 C 321.600 151.020,322.320 151.200,323.200 151.200 C 324.080 151.200,324.800 151.380,324.800 151.600 C 324.800 151.820,325.329 152.000,325.976 152.000 C 326.623 152.000,327.264 152.180,327.400 152.400 C 327.536 152.620,328.166 152.800,328.800 152.800 C 329.434 152.800,330.064 152.980,330.200 153.200 C 330.336 153.420,331.067 153.600,331.824 153.600 C 332.581 153.600,333.200 153.780,333.200 154.000 C 333.200 154.220,333.920 154.400,334.800 154.400 C 335.680 154.400,336.400 154.560,336.400 154.756 C 336.400 154.952,336.985 155.209,337.700 155.328 C 339.860 155.685,341.357 156.042,342.200 156.400 C 342.640 156.587,343.450 156.830,344.000 156.941 C 344.550 157.052,346.170 157.447,347.600 157.820 C 351.901 158.941,356.997 159.014,359.721 157.995 C 362.135 157.092,366.000 153.787,366.000 152.626 C 366.000 152.282,366.180 152.000,366.400 152.000 C 366.620 152.000,366.800 151.460,366.800 150.800 C 366.800 150.140,366.980 149.600,367.200 149.600 C 367.435 149.600,367.600 148.200,367.600 146.200 C 367.600 144.200,367.435 142.800,367.200 142.800 C 366.980 142.800,366.800 142.260,366.800 141.600 C 366.800 140.940,366.620 140.400,366.400 140.400 C 366.180 140.400,366.000 140.126,366.000 139.791 C 366.000 138.999,361.801 134.800,361.009 134.800 C 360.674 134.800,360.400 134.620,360.400 134.400 C 360.400 134.180,360.051 134.000,359.624 134.000 C 359.197 134.000,358.736 133.820,358.600 133.600 C 358.464 133.380,357.834 133.200,357.200 133.200 C 356.566 133.200,355.936 133.020,355.800 132.800 C 355.664 132.580,354.933 132.400,354.176 132.400 C 353.419 132.400,352.800 132.220,352.800 132.000 C 352.800 131.780,352.080 131.600,351.200 131.600 C 350.320 131.600,349.600 131.420,349.600 131.200 C 349.600 130.980,349.071 130.800,348.424 130.800 C 347.777 130.800,347.136 130.620,347.000 130.400 C 346.864 130.180,346.133 130.000,345.376 130.000 C 344.619 130.000,344.000 129.820,344.000 129.600 C 344.000 129.380,343.280 129.200,342.400 129.200 C 341.520 129.200,340.800 129.020,340.800 128.800 C 340.800 128.580,340.170 128.400,339.400 128.400 C 338.630 128.400,338.000 128.220,338.000 128.000 C 338.000 127.780,337.516 127.600,336.925 127.600 L 335.849 127.600 336.708 126.800 C 337.180 126.360,337.844 126.000,338.183 126.000 C 338.522 126.000,338.801 125.865,338.801 125.700 C 338.802 125.535,339.612 125.067,340.601 124.660 C 341.591 124.254,342.400 123.759,342.400 123.560 C 342.400 123.362,342.745 123.200,343.167 123.200 C 343.588 123.200,343.993 123.065,344.067 122.900 C 344.234 122.524,346.364 121.225,347.300 120.929 C 347.685 120.807,348.000 120.548,348.000 120.353 C 348.000 120.159,348.360 120.000,348.800 120.000 C 349.240 120.000,349.600 119.820,349.600 119.600 C 349.600 119.380,349.836 119.200,350.125 119.200 C 350.413 119.200,351.036 118.840,351.508 118.400 C 351.980 117.960,352.552 117.600,352.779 117.600 C 354.029 117.600,358.000 113.279,358.000 111.919 C 358.000 111.523,358.180 111.200,358.400 111.200 C 358.644 111.200,358.800 109.358,358.800 106.475 C 358.800 99.613,357.349 96.874,352.400 94.400 C 351.960 94.180,351.242 93.820,350.805 93.600 C 349.771 93.079,342.522 93.079,342.200 93.600 C 342.064 93.820,341.603 94.000,341.176 94.000 C 340.749 94.000,340.400 94.180,340.400 94.400 C 340.400 94.620,340.040 94.800,339.600 94.800 C 339.160 94.800,338.800 94.980,338.800 95.200 C 338.800 95.420,338.564 95.600,338.275 95.600 C 337.987 95.600,337.364 95.960,336.892 96.400 C 336.420 96.840,335.756 97.200,335.417 97.200 C 335.078 97.200,334.800 97.380,334.800 97.600 C 334.800 97.820,334.440 98.000,334.000 98.000 C 333.560 98.000,333.200 98.180,333.200 98.400 C 333.200 98.620,332.964 98.800,332.675 98.800 C 332.387 98.800,331.764 99.160,331.292 99.600 C 330.820 100.040,330.156 100.400,329.817 100.400 C 329.478 100.400,329.200 100.580,329.200 100.800 C 329.200 101.020,329.007 101.200,328.772 101.200 C 328.537 101.200,327.559 101.740,326.600 102.400 C 325.641 103.060,324.663 103.600,324.428 103.600 C 324.193 103.600,324.000 103.780,324.000 104.000 C 324.000 104.220,323.761 104.400,323.469 104.400 C 322.894 104.400,322.970 102.456,323.602 101.000 C 324.191 99.641,325.200 95.017,325.200 93.674 C 325.200 92.973,325.380 92.400,325.600 92.400 C 325.820 92.400,326.000 91.860,326.000 91.200 C 326.000 90.540,326.180 90.000,326.400 90.000 C 326.620 90.000,326.800 89.370,326.800 88.600 C 326.800 87.830,326.980 87.200,327.200 87.200 C 327.420 87.200,327.600 86.480,327.600 85.600 C 327.600 84.720,327.780 84.000,328.000 84.000 C 328.243 84.000,328.400 82.208,328.400 79.424 C 328.400 76.804,328.229 74.742,328.000 74.600 C 327.780 74.464,327.600 73.953,327.600 73.465 C 327.600 72.976,327.240 72.317,326.800 72.000 C 326.360 71.683,326.000 71.180,326.000 70.883 C 326.000 70.283,325.046 69.200,324.517 69.200 C 324.330 69.200,323.917 68.840,323.600 68.400 C 323.283 67.960,322.703 67.600,322.312 67.600 C 321.920 67.600,321.600 67.420,321.600 67.200 C 321.600 66.980,321.060 66.800,320.400 66.800 C 319.740 66.800,319.200 66.620,319.200 66.400 C 319.200 66.167,317.867 66.000,316.000 66.000 C 314.133 66.000,312.800 66.167,312.800 66.400 C 312.800 66.620,312.260 66.800,311.600 66.800 C 310.940 66.800,310.400 66.936,310.400 67.102 C 310.400 67.269,309.822 67.660,309.116 67.973 C 307.543 68.669,305.200 70.951,305.200 71.787 C 305.200 72.124,305.020 72.400,304.800 72.400 C 304.580 72.400,304.400 72.760,304.400 73.200 C 304.400 73.640,304.220 74.000,304.000 74.000 C 303.780 74.000,303.600 74.439,303.600 74.976 C 303.600 75.513,303.420 76.064,303.200 76.200 C 302.980 76.336,302.800 76.966,302.800 77.600 C 302.800 78.234,302.620 78.864,302.400 79.000 C 302.180 79.136,302.000 79.766,302.000 80.400 C 302.000 81.034,301.820 81.664,301.600 81.800 C 301.380 81.936,301.200 82.667,301.200 83.424 C 301.200 84.181,301.020 84.800,300.800 84.800 C 300.580 84.800,300.400 85.520,300.400 86.400 C 300.400 87.280,300.220 88.000,300.000 88.000 C 299.780 88.000,299.600 88.529,299.600 89.176 C 299.600 89.823,299.420 90.464,299.200 90.600 C 298.980 90.736,298.800 91.467,298.800 92.224 C 298.800 92.981,298.620 93.600,298.400 93.600 C 298.180 93.600,298.000 94.230,298.000 95.000 C 298.000 95.770,297.820 96.400,297.600 96.400 C 297.380 96.400,297.200 97.120,297.200 98.000 C 297.200 98.880,297.040 99.600,296.844 99.600 C 296.507 99.600,296.390 100.049,295.768 103.700 C 295.627 104.525,295.352 105.200,295.156 105.200 C 294.960 105.200,294.800 105.920,294.800 106.800 C 294.800 107.680,294.620 108.400,294.400 108.400 C 294.180 108.400,294.000 108.994,294.000 109.720 C 294.000 110.446,293.848 111.211,293.661 111.420 C 293.475 111.629,293.010 113.240,292.627 115.000 C 292.245 116.760,291.767 118.722,291.566 119.360 C 291.365 119.998,291.194 120.988,291.187 121.560 C 291.172 122.830,290.342 124.000,289.456 124.000 C 289.095 124.000,288.800 124.180,288.800 124.400 C 288.800 124.620,288.462 124.800,288.049 124.800 C 287.636 124.800,287.074 125.070,286.800 125.400 C 286.526 125.730,285.979 126.000,285.584 126.000 C 285.190 126.000,284.807 126.135,284.733 126.300 C 284.660 126.465,283.745 127.033,282.700 127.563 C 281.655 128.092,280.800 128.677,280.800 128.863 C 280.800 129.048,280.440 129.200,280.000 129.200 C 279.560 129.200,279.200 129.380,279.200 129.600 C 279.200 129.820,279.007 130.000,278.772 130.000 C 278.537 130.000,277.559 130.540,276.600 131.200 C 275.641 131.860,274.663 132.400,274.428 132.400 C 274.193 132.400,274.000 132.580,274.000 132.800 C 274.000 133.020,273.640 133.200,273.200 133.200 C 272.760 133.200,272.400 133.380,272.400 133.600 C 272.400 133.820,272.164 134.000,271.875 134.000 C 271.587 134.000,270.964 134.360,270.492 134.800 C 270.020 135.240,269.356 135.600,269.017 135.600 C 268.678 135.600,268.400 135.780,268.400 136.000 C 268.400 136.220,268.122 136.400,267.783 136.400 C 267.444 136.400,266.780 136.760,266.308 137.200 C 265.836 137.640,265.213 138.000,264.925 138.000 C 264.636 138.000,264.400 138.180,264.400 138.400 C 264.400 138.620,264.040 138.800,263.600 138.800 C 263.160 138.800,262.800 138.980,262.800 139.200 C 262.800 139.420,262.564 139.600,262.275 139.600 C 261.987 139.600,261.402 139.921,260.975 140.314 C 258.650 142.456,253.600 143.315,253.600 141.569 C 253.600 141.366,253.240 141.200,252.800 141.200 C 252.360 141.200,252.000 141.020,252.000 140.800 C 252.000 140.580,251.722 140.400,251.383 140.400 C 251.044 140.400,250.380 140.040,249.908 139.600 C 249.436 139.160,248.813 138.800,248.525 138.800 C 248.236 138.800,248.000 138.620,248.000 138.400 C 248.000 138.180,247.640 138.000,247.200 138.000 C 246.760 138.000,246.400 137.820,246.400 137.600 C 246.400 137.380,246.080 137.200,245.688 137.200 C 245.297 137.200,244.717 136.840,244.400 136.400 C 244.083 135.960,243.503 135.600,243.112 135.600 C 242.720 135.600,242.400 135.464,242.400 135.298 C 242.400 135.131,241.815 134.736,241.100 134.420 C 240.385 134.103,239.451 133.520,239.025 133.122 C 238.598 132.725,238.013 132.400,237.725 132.400 C 237.436 132.400,237.200 132.220,237.200 132.000 C 237.200 131.780,236.840 131.600,236.400 131.600 C 235.960 131.600,235.600 131.420,235.600 131.200 C 235.600 130.980,235.322 130.800,234.983 130.800 C 234.644 130.800,233.980 130.440,233.508 130.000 C 233.036 129.560,232.413 129.200,232.125 129.200 C 231.836 129.200,231.600 129.020,231.600 128.800 C 231.600 128.580,231.255 128.400,230.833 128.400 C 230.412 128.400,230.007 128.261,229.933 128.091 C 229.860 127.920,228.450 127.081,226.800 126.225 C 225.150 125.369,223.740 124.518,223.667 124.334 C 223.593 124.150,223.278 124.000,222.967 124.000 C 222.655 124.000,222.400 123.820,222.400 123.600 C 222.400 123.380,222.040 123.200,221.600 123.200 C 221.160 123.200,220.800 123.020,220.800 122.800 C 220.800 122.580,220.564 122.400,220.275 122.400 C 219.987 122.400,219.364 122.040,218.892 121.600 C 218.420 121.160,217.756 120.800,217.417 120.800 C 217.078 120.800,216.800 120.620,216.800 120.400 C 216.800 120.180,216.522 120.000,216.183 120.000 C 215.844 120.000,215.180 119.640,214.708 119.200 C 214.236 118.760,213.613 118.400,213.325 118.400 C 213.036 118.400,212.800 118.220,212.800 118.000 C 212.800 117.780,212.440 117.600,212.000 117.600 C 211.560 117.600,211.200 117.420,211.200 117.200 C 211.200 116.980,210.922 116.800,210.583 116.800 C 210.244 116.800,209.580 116.440,209.108 116.000 C 208.636 115.560,208.013 115.200,207.725 115.200 C 207.436 115.200,207.200 115.054,207.200 114.875 C 207.200 114.696,206.570 114.302,205.800 114.000 C 205.030 113.698,204.400 113.333,204.400 113.188 C 204.400 113.044,203.545 112.492,202.500 111.963 C 201.455 111.433,200.540 110.865,200.467 110.700 C 200.393 110.535,199.988 110.400,199.567 110.400 C 199.145 110.400,198.800 110.242,198.800 110.049 C 198.800 109.855,198.260 109.473,197.600 109.200 L 196.400 108.703 196.400 89.146 L 196.400 69.588 215.200 50.800 C 225.540 40.467,234.000 31.739,234.000 31.406 C 234.000 31.073,234.180 30.800,234.400 30.800 C 234.620 30.800,234.800 30.260,234.800 29.600 C 234.800 28.940,234.980 28.400,235.200 28.400 C 235.433 28.400,235.600 27.075,235.600 25.224 C 235.600 23.477,235.420 21.936,235.200 21.800 C 234.980 21.664,234.800 21.023,234.800 20.376 C 234.800 19.729,234.620 19.200,234.400 19.200 C 234.180 19.200,234.000 18.959,234.000 18.664 C 234.000 17.205,228.600 12.800,226.811 12.800 C 226.391 12.800,225.936 12.620,225.800 12.400 C 225.474 11.873,219.200 11.873,219.200 12.400 C 219.200 12.620,218.660 12.800,218.000 12.800 C 217.340 12.800,216.800 12.980,216.800 13.200 C 216.800 13.420,216.538 13.600,216.218 13.600 C 215.899 13.600,211.411 17.830,206.246 23.000 C 201.082 28.170,196.753 32.400,196.628 32.400 C 196.503 32.400,196.400 26.820,196.400 20.000 C 196.400 12.000,196.258 7.600,196.000 7.600 C 195.780 7.600,195.600 7.240,195.600 6.800 C 195.600 6.360,195.420 6.000,195.200 6.000 C 194.980 6.000,194.800 5.725,194.800 5.389 C 194.800 4.529,191.684 1.518,189.940 0.692 C 188.535 0.026,180.815 -0.241,178.100 0.282 M116.000 73.600 C 116.000 73.820,115.550 74.000,115.000 74.000 C 114.450 74.000,114.000 74.146,114.000 74.325 C 114.000 74.504,113.367 74.899,112.592 75.203 C 111.019 75.820,108.400 78.432,108.400 79.383 C 108.400 79.722,108.220 80.000,108.000 80.000 C 107.780 80.000,107.600 80.360,107.600 80.800 C 107.600 81.240,107.420 81.600,107.200 81.600 C 106.980 81.600,106.800 82.140,106.800 82.800 C 106.800 83.460,106.620 84.000,106.400 84.000 C 106.161 84.000,106.000 85.533,106.000 87.800 C 106.000 90.067,106.161 91.600,106.400 91.600 C 106.620 91.600,106.800 92.140,106.800 92.800 C 106.800 93.460,106.980 94.000,107.200 94.000 C 107.420 94.000,107.600 94.360,107.600 94.800 C 107.600 95.240,107.747 95.600,107.926 95.600 C 108.105 95.600,108.544 96.212,108.900 96.960 C 109.257 97.708,110.236 98.833,111.075 99.460 C 111.914 100.087,112.660 100.735,112.733 100.900 C 112.807 101.065,113.212 101.200,113.633 101.200 C 114.055 101.200,114.400 101.380,114.400 101.600 C 114.400 101.820,114.940 102.000,115.600 102.000 C 116.260 102.000,116.800 102.180,116.800 102.400 C 116.800 103.048,123.573 102.874,125.400 102.180 C 126.280 101.845,127.315 101.467,127.700 101.339 C 128.085 101.211,128.400 100.948,128.400 100.753 C 128.400 100.559,128.686 100.400,129.035 100.400 C 129.797 100.400,134.000 96.122,134.000 95.346 C 134.000 95.046,134.180 94.800,134.400 94.800 C 134.620 94.800,134.800 94.260,134.800 93.600 C 134.800 92.940,134.980 92.400,135.200 92.400 C 135.443 92.400,135.600 90.608,135.600 87.824 C 135.600 85.204,135.429 83.142,135.200 83.000 C 134.980 82.864,134.800 82.313,134.800 81.776 C 134.800 81.239,134.620 80.800,134.400 80.800 C 134.180 80.800,134.000 80.538,134.000 80.217 C 134.000 79.367,129.239 74.800,128.353 74.800 C 127.939 74.800,127.600 74.620,127.600 74.400 C 127.600 74.180,127.161 74.000,126.624 74.000 C 126.087 74.000,125.536 73.820,125.400 73.600 C 125.258 73.371,123.196 73.200,120.576 73.200 C 117.792 73.200,116.000 73.357,116.000 73.600 M244.000 73.600 C 244.000 73.820,243.550 74.000,243.000 74.000 C 242.450 74.000,242.000 74.158,242.000 74.351 C 242.000 74.545,241.446 74.932,240.769 75.213 C 239.214 75.857,236.400 78.534,236.400 79.369 C 236.400 79.716,236.220 80.000,236.000 80.000 C 235.780 80.000,235.600 80.360,235.600 80.800 C 235.600 81.240,235.420 81.600,235.200 81.600 C 234.980 81.600,234.800 82.039,234.800 82.576 C 234.800 83.113,234.620 83.664,234.400 83.800 C 234.179 83.937,234.000 85.737,234.000 87.824 C 234.000 90.075,234.162 91.600,234.400 91.600 C 234.620 91.600,234.800 92.140,234.800 92.800 C 234.800 93.460,234.980 94.000,235.200 94.000 C 235.420 94.000,235.600 94.360,235.600 94.800 C 235.600 95.240,235.780 95.600,236.000 95.600 C 236.220 95.600,236.400 95.875,236.400 96.211 C 236.400 97.004,239.796 100.400,240.589 100.400 C 240.925 100.400,241.201 100.535,241.203 100.700 C 241.207 101.101,243.181 102.000,244.056 102.000 C 244.439 102.000,244.864 102.180,245.000 102.400 C 245.137 102.621,246.937 102.800,249.024 102.800 C 251.275 102.800,252.800 102.638,252.800 102.400 C 252.800 102.180,253.340 102.000,254.000 102.000 C 254.660 102.000,255.200 101.820,255.200 101.600 C 255.200 101.380,255.560 101.200,256.000 101.200 C 256.440 101.200,256.800 101.020,256.800 100.800 C 256.800 100.580,256.985 100.400,257.211 100.400 C 257.809 100.400,261.200 96.914,261.200 96.299 C 261.200 96.012,261.560 95.517,262.000 95.200 C 262.470 94.861,262.800 94.165,262.800 93.512 C 262.800 92.900,262.980 92.400,263.200 92.400 C 263.443 92.400,263.600 90.600,263.600 87.800 C 263.600 85.000,263.443 83.200,263.200 83.200 C 262.980 83.200,262.800 82.660,262.800 82.000 C 262.800 81.340,262.620 80.800,262.400 80.800 C 262.180 80.800,262.000 80.538,262.000 80.217 C 262.000 79.479,257.295 74.800,256.553 74.800 C 256.249 74.800,256.000 74.620,256.000 74.400 C 256.000 74.180,255.460 74.000,254.800 74.000 C 254.140 74.000,253.600 73.820,253.600 73.600 C 253.600 73.356,251.733 73.200,248.800 73.200 C 245.867 73.200,244.000 73.356,244.000 73.600 M198.000 139.973 C 198.000 140.335,200.652 141.600,201.414 141.600 C 201.736 141.600,202.000 141.780,202.000 142.000 C 202.000 142.220,202.320 142.400,202.712 142.400 C 203.103 142.400,203.683 142.760,204.000 143.200 C 204.317 143.640,204.897 144.000,205.288 144.000 C 205.680 144.000,206.000 144.180,206.000 144.400 C 206.000 144.620,206.278 144.800,206.617 144.800 C 206.956 144.800,207.620 145.160,208.092 145.600 C 208.564 146.040,209.187 146.400,209.475 146.400 C 209.764 146.400,210.000 146.580,210.000 146.800 C 210.000 147.020,210.270 147.200,210.600 147.200 C 210.930 147.200,211.200 147.380,211.200 147.600 C 211.200 147.820,211.560 148.000,212.000 148.000 C 212.440 148.000,212.800 148.180,212.800 148.400 C 212.800 148.620,213.036 148.800,213.325 148.800 C 213.613 148.800,214.236 149.160,214.708 149.600 C 215.180 150.040,215.844 150.400,216.183 150.400 C 216.522 150.400,216.800 150.580,216.800 150.800 C 216.800 151.020,217.078 151.200,217.417 151.200 C 217.756 151.200,218.420 151.560,218.892 152.000 C 219.364 152.440,219.987 152.800,220.275 152.800 C 220.564 152.800,220.800 152.980,220.800 153.200 C 220.800 153.420,221.160 153.600,221.600 153.600 C 222.040 153.600,222.400 153.780,222.400 154.000 C 222.400 154.220,222.593 154.400,222.828 154.400 C 223.063 154.400,224.008 154.910,224.928 155.533 C 225.848 156.157,227.337 157.012,228.237 157.433 L 229.874 158.200 227.637 159.508 C 226.407 160.227,225.085 160.923,224.700 161.055 C 224.315 161.186,224.000 161.452,224.000 161.647 C 224.000 161.841,223.640 162.000,223.200 162.000 C 222.760 162.000,222.400 162.180,222.400 162.400 C 222.400 162.620,222.164 162.800,221.875 162.800 C 221.587 162.800,220.964 163.160,220.492 163.600 C 220.020 164.040,219.356 164.400,219.017 164.400 C 218.678 164.400,218.400 164.580,218.400 164.800 C 218.400 165.020,218.122 165.200,217.783 165.200 C 217.444 165.200,216.780 165.560,216.308 166.000 C 215.836 166.440,215.213 166.800,214.925 166.800 C 214.636 166.800,214.400 166.980,214.400 167.200 C 214.400 167.420,214.040 167.600,213.600 167.600 C 213.160 167.600,212.800 167.780,212.800 168.000 C 212.800 168.220,212.564 168.400,212.275 168.400 C 211.987 168.400,211.402 168.725,210.975 169.122 C 210.549 169.520,209.615 170.103,208.900 170.420 C 208.185 170.736,207.600 171.131,207.600 171.298 C 207.600 171.464,207.280 171.600,206.888 171.600 C 206.497 171.600,205.917 171.960,205.600 172.400 C 205.283 172.840,204.703 173.200,204.312 173.200 C 203.920 173.200,203.600 173.380,203.600 173.600 C 203.600 173.820,203.240 174.000,202.800 174.000 C 202.360 174.000,202.000 174.180,202.000 174.400 C 202.000 174.620,201.651 174.800,201.224 174.800 C 200.797 174.800,200.339 174.975,200.207 175.189 C 200.074 175.403,199.299 175.884,198.483 176.257 C 197.667 176.629,196.865 177.005,196.700 177.091 C 196.535 177.177,196.400 168.703,196.400 158.261 C 196.400 139.472,196.408 139.277,197.200 139.484 C 197.640 139.599,198.000 139.819,198.000 139.973 M170.800 158.200 C 170.800 168.430,170.704 176.800,170.587 176.800 C 170.469 176.800,169.485 176.350,168.400 175.800 C 167.315 175.250,166.190 174.800,165.902 174.800 C 165.613 174.800,165.117 174.440,164.800 174.000 C 164.483 173.560,163.903 173.200,163.512 173.200 C 163.120 173.200,162.800 173.020,162.800 172.800 C 162.800 172.580,162.522 172.400,162.183 172.400 C 161.844 172.400,161.180 172.040,160.708 171.600 C 160.236 171.160,159.613 170.800,159.325 170.800 C 159.036 170.800,158.800 170.654,158.800 170.475 C 158.800 170.296,158.170 169.902,157.400 169.600 C 156.630 169.298,156.000 168.904,156.000 168.725 C 156.000 168.546,155.730 168.400,155.400 168.400 C 155.070 168.400,154.800 168.220,154.800 168.000 C 154.800 167.780,154.530 167.600,154.200 167.600 C 153.870 167.600,153.600 167.420,153.600 167.200 C 153.600 166.980,153.240 166.800,152.800 166.800 C 152.360 166.800,152.000 166.620,152.000 166.400 C 152.000 166.180,151.722 166.000,151.383 166.000 C 151.044 166.000,150.380 165.640,149.908 165.200 C 149.436 164.760,148.813 164.400,148.525 164.400 C 148.236 164.400,148.000 164.220,148.000 164.000 C 148.000 163.780,147.655 163.600,147.233 163.600 C 146.812 163.600,146.407 163.465,146.333 163.300 C 146.166 162.924,144.036 161.625,143.100 161.329 C 142.715 161.207,142.400 160.948,142.400 160.753 C 142.400 160.559,142.216 160.400,141.992 160.400 C 141.768 160.400,140.871 159.950,140.000 159.400 C 139.129 158.850,138.097 158.379,137.708 158.354 C 137.122 158.315,137.138 158.273,137.800 158.108 C 138.798 157.860,142.153 155.940,142.333 155.515 C 142.407 155.342,142.812 155.200,143.233 155.200 C 143.655 155.200,144.000 155.020,144.000 154.800 C 144.000 154.580,144.236 154.400,144.525 154.400 C 144.813 154.400,145.436 154.040,145.908 153.600 C 146.380 153.160,147.044 152.800,147.383 152.800 C 147.722 152.800,148.000 152.620,148.000 152.400 C 148.000 152.180,148.360 152.000,148.800 152.000 C 149.240 152.000,149.600 151.820,149.600 151.600 C 149.600 151.380,149.836 151.200,150.125 151.200 C 150.413 151.200,151.036 150.840,151.508 150.400 C 151.980 149.960,152.644 149.600,152.983 149.600 C 153.322 149.600,153.600 149.454,153.600 149.275 C 153.600 149.096,154.230 148.702,155.000 148.400 C 155.770 148.098,156.400 147.704,156.400 147.525 C 156.400 147.346,156.670 147.200,157.000 147.200 C 157.330 147.200,157.600 147.020,157.600 146.800 C 157.600 146.580,157.870 146.400,158.200 146.400 C 158.530 146.400,158.800 146.220,158.800 146.000 C 158.800 145.780,159.078 145.600,159.417 145.600 C 159.756 145.600,160.420 145.240,160.892 144.800 C 161.364 144.360,161.987 144.000,162.275 144.000 C 162.564 144.000,162.800 143.820,162.800 143.600 C 162.800 143.380,163.160 143.200,163.600 143.200 C 164.040 143.200,164.400 143.020,164.400 142.800 C 164.400 142.580,164.678 142.400,165.017 142.400 C 165.356 142.400,165.851 142.208,166.117 141.974 C 166.650 141.504,170.024 139.709,170.500 139.642 C 170.665 139.619,170.800 147.970,170.800 158.200 M243.200 200.000 C 243.200 212.533,243.061 219.200,242.800 219.200 C 242.580 219.200,242.400 219.020,242.400 218.800 C 242.400 218.580,242.130 218.400,241.800 218.400 C 241.470 218.400,241.200 218.220,241.200 218.000 C 241.200 217.780,240.930 217.600,240.600 217.600 C 240.270 217.600,240.000 217.420,240.000 217.200 C 240.000 216.980,239.730 216.800,239.400 216.800 C 239.070 216.800,238.800 216.620,238.800 216.400 C 238.800 216.180,238.455 216.000,238.033 216.000 C 237.612 216.000,237.207 215.865,237.133 215.700 C 236.966 215.324,234.836 214.025,233.900 213.729 C 233.515 213.607,233.200 213.348,233.200 213.153 C 233.200 212.959,232.840 212.800,232.400 212.800 C 231.960 212.800,231.600 212.655,231.600 212.479 C 231.600 212.302,230.703 211.717,229.606 211.179 C 228.510 210.640,227.610 210.065,227.606 209.900 C 227.603 209.735,227.240 209.600,226.800 209.600 C 226.360 209.600,226.000 209.447,226.000 209.260 C 226.000 209.073,225.190 208.587,224.200 208.178 C 223.210 207.770,222.400 207.293,222.400 207.118 C 222.400 206.943,222.164 206.800,221.875 206.800 C 221.587 206.800,220.964 206.440,220.492 206.000 C 220.020 205.560,219.356 205.200,219.017 205.200 C 218.678 205.200,218.400 205.020,218.400 204.800 C 218.400 204.580,218.040 204.400,217.600 204.400 C 217.160 204.400,216.800 204.220,216.800 204.000 C 216.800 203.780,216.530 203.600,216.200 203.600 C 215.870 203.600,215.600 203.420,215.600 203.200 C 215.600 202.980,215.330 202.800,215.000 202.800 C 214.670 202.800,214.400 202.620,214.400 202.400 C 214.400 202.180,214.040 202.000,213.600 202.000 C 213.160 202.000,212.800 201.820,212.800 201.600 C 212.800 201.380,212.517 201.200,212.171 201.200 C 211.000 201.200,210.246 200.096,210.943 199.400 C 211.273 199.070,211.826 198.800,212.171 198.800 C 212.517 198.800,212.800 198.620,212.800 198.400 C 212.800 198.180,213.160 198.000,213.600 198.000 C 214.040 198.000,214.400 197.820,214.400 197.600 C 214.400 197.380,214.670 197.200,215.000 197.200 C 215.330 197.200,215.600 197.020,215.600 196.800 C 215.600 196.580,215.870 196.400,216.200 196.400 C 216.530 196.400,216.800 196.220,216.800 196.000 C 216.800 195.780,217.160 195.600,217.600 195.600 C 218.040 195.600,218.400 195.420,218.400 195.200 C 218.400 194.980,218.678 194.800,219.017 194.800 C 219.356 194.800,220.020 194.440,220.492 194.000 C 220.964 193.560,221.587 193.200,221.875 193.200 C 222.164 193.200,222.400 193.057,222.400 192.882 C 222.400 192.707,223.210 192.230,224.200 191.822 C 225.190 191.413,226.000 190.927,226.000 190.740 C 226.000 190.553,226.360 190.400,226.800 190.400 C 227.240 190.400,227.603 190.265,227.606 190.100 C 227.610 189.935,228.510 189.360,229.606 188.821 C 230.703 188.283,231.600 187.698,231.600 187.521 C 231.600 187.345,231.960 187.200,232.400 187.200 C 232.840 187.200,233.200 187.020,233.200 186.800 C 233.200 186.580,233.436 186.400,233.725 186.400 C 234.013 186.400,234.636 186.040,235.108 185.600 C 235.580 185.160,236.244 184.800,236.583 184.800 C 236.922 184.800,237.200 184.620,237.200 184.400 C 237.200 184.180,237.560 184.000,238.000 184.000 C 238.440 184.000,238.800 183.820,238.800 183.600 C 238.800 183.380,239.070 183.200,239.400 183.200 C 239.730 183.200,240.000 183.020,240.000 182.800 C 240.000 182.580,240.270 182.400,240.600 182.400 C 240.930 182.400,241.200 182.220,241.200 182.000 C 241.200 181.780,241.470 181.600,241.800 181.600 C 242.130 181.600,242.400 181.420,242.400 181.200 C 242.400 180.980,242.580 180.800,242.800 180.800 C 243.061 180.800,243.200 187.467,243.200 200.000 M126.517 182.100 C 127.109 182.375,127.595 182.735,127.597 182.900 C 127.599 183.065,127.878 183.200,128.217 183.200 C 128.556 183.200,129.220 183.560,129.692 184.000 C 130.164 184.440,130.787 184.800,131.075 184.800 C 131.364 184.800,131.600 184.980,131.600 185.200 C 131.600 185.420,131.960 185.600,132.400 185.600 C 132.840 185.600,133.200 185.759,133.200 185.953 C 133.200 186.148,133.515 186.407,133.900 186.529 C 134.836 186.825,136.966 188.124,137.133 188.500 C 137.207 188.665,137.612 188.800,138.033 188.800 C 138.455 188.800,138.800 188.980,138.800 189.200 C 138.800 189.420,138.984 189.600,139.208 189.600 C 139.432 189.600,140.329 190.050,141.200 190.600 C 142.071 191.150,143.058 191.600,143.392 191.600 C 143.726 191.600,144.000 191.780,144.000 192.000 C 144.000 192.220,144.270 192.400,144.600 192.400 C 144.930 192.400,145.200 192.580,145.200 192.800 C 145.200 193.020,145.470 193.200,145.800 193.200 C 146.130 193.200,146.400 193.380,146.400 193.600 C 146.400 193.820,146.760 194.000,147.200 194.000 C 147.640 194.000,148.000 194.180,148.000 194.400 C 148.000 194.620,148.320 194.800,148.712 194.800 C 149.103 194.800,149.683 195.160,150.000 195.600 C 150.317 196.040,150.897 196.400,151.288 196.400 C 151.680 196.400,152.000 196.580,152.000 196.800 C 152.000 197.020,152.360 197.200,152.800 197.200 C 153.240 197.200,153.600 197.380,153.600 197.600 C 153.600 197.820,153.836 198.000,154.125 198.000 C 154.413 198.000,155.036 198.360,155.508 198.800 C 155.980 199.240,156.644 199.600,156.983 199.600 C 157.322 199.600,157.600 199.780,157.600 200.000 C 157.600 200.220,157.322 200.400,156.983 200.400 C 156.644 200.400,155.980 200.760,155.508 201.200 C 155.036 201.640,154.413 202.000,154.125 202.000 C 153.836 202.000,153.600 202.180,153.600 202.400 C 153.600 202.620,153.240 202.800,152.800 202.800 C 152.360 202.800,152.000 202.980,152.000 203.200 C 152.000 203.420,151.680 203.600,151.288 203.600 C 150.897 203.600,150.317 203.960,150.000 204.400 C 149.683 204.840,149.103 205.200,148.712 205.200 C 148.320 205.200,148.000 205.380,148.000 205.600 C 148.000 205.820,147.640 206.000,147.200 206.000 C 146.760 206.000,146.400 206.180,146.400 206.400 C 146.400 206.620,146.130 206.800,145.800 206.800 C 145.470 206.800,145.200 206.980,145.200 207.200 C 145.200 207.420,144.930 207.600,144.600 207.600 C 144.270 207.600,144.000 207.780,144.000 208.000 C 144.000 208.220,143.726 208.400,143.392 208.400 C 143.058 208.400,142.071 208.850,141.200 209.400 C 140.329 209.950,139.432 210.400,139.208 210.400 C 138.984 210.400,138.800 210.580,138.800 210.800 C 138.800 211.020,138.440 211.200,138.000 211.200 C 137.560 211.200,137.200 211.359,137.200 211.553 C 137.200 211.748,136.885 212.007,136.500 212.129 C 135.564 212.425,133.434 213.724,133.267 214.100 C 133.193 214.265,132.788 214.400,132.367 214.400 C 131.945 214.400,131.600 214.580,131.600 214.800 C 131.600 215.020,131.364 215.200,131.075 215.200 C 130.787 215.200,130.164 215.560,129.692 216.000 C 129.220 216.440,128.556 216.800,128.217 216.800 C 127.878 216.800,127.599 216.935,127.597 217.100 C 127.594 217.406,125.700 218.400,125.120 218.400 C 124.944 218.400,124.800 210.120,124.800 200.000 C 124.800 189.880,124.944 181.600,125.120 181.600 C 125.296 181.600,125.925 181.825,126.517 182.100 M59.200 185.200 C 59.200 185.420,58.480 185.600,57.600 185.600 C 56.720 185.600,56.000 185.780,56.000 186.000 C 56.000 186.220,55.640 186.400,55.200 186.400 C 54.760 186.400,54.400 186.580,54.400 186.800 C 54.400 187.020,54.126 187.200,53.791 187.200 C 52.951 187.200,49.060 191.165,48.369 192.724 C 48.059 193.426,47.669 194.000,47.502 194.000 C 47.336 194.000,47.200 194.529,47.200 195.176 C 47.200 195.823,47.020 196.464,46.800 196.600 C 46.580 196.736,46.400 198.266,46.400 200.000 C 46.400 201.734,46.580 203.264,46.800 203.400 C 47.020 203.536,47.200 204.177,47.200 204.824 C 47.200 205.471,47.336 206.000,47.502 206.000 C 47.669 206.000,48.059 206.574,48.369 207.276 C 49.060 208.835,52.951 212.800,53.791 212.800 C 54.126 212.800,54.400 212.980,54.400 213.200 C 54.400 213.420,54.760 213.600,55.200 213.600 C 55.640 213.600,56.000 213.780,56.000 214.000 C 56.000 214.220,56.720 214.400,57.600 214.400 C 58.480 214.400,59.200 214.580,59.200 214.800 C 59.200 215.022,60.259 215.200,61.576 215.200 C 62.883 215.200,64.064 215.020,64.200 214.800 C 64.336 214.580,65.056 214.400,65.800 214.400 C 66.544 214.400,67.264 214.220,67.400 214.000 C 67.536 213.780,67.914 213.600,68.240 213.600 C 68.567 213.600,69.220 213.240,69.692 212.800 C 70.164 212.360,70.742 211.995,70.975 211.988 C 71.868 211.963,75.200 207.226,75.200 205.982 C 75.200 205.552,75.380 205.200,75.600 205.200 C 75.846 205.200,76.000 203.200,76.000 200.000 C 76.000 196.800,75.846 194.800,75.600 194.800 C 75.380 194.800,75.200 194.448,75.200 194.018 C 75.200 192.774,71.868 188.037,70.975 188.012 C 70.742 188.005,70.164 187.640,69.692 187.200 C 69.220 186.760,68.567 186.400,68.240 186.400 C 67.914 186.400,67.536 186.220,67.400 186.000 C 67.264 185.780,66.544 185.600,65.800 185.600 C 65.056 185.600,64.336 185.420,64.200 185.200 C 64.064 184.980,62.883 184.800,61.576 184.800 C 60.259 184.800,59.200 184.978,59.200 185.200 M303.600 185.200 C 303.600 185.420,302.880 185.600,302.000 185.600 C 301.120 185.600,300.400 185.780,300.400 186.000 C 300.400 186.220,300.040 186.400,299.600 186.400 C 299.160 186.400,298.800 186.580,298.800 186.800 C 298.800 187.020,298.526 187.200,298.191 187.200 C 295.175 187.200,291.209 194.470,291.209 200.000 C 291.209 205.530,295.175 212.800,298.191 212.800 C 298.526 212.800,298.800 212.980,298.800 213.200 C 298.800 213.420,299.160 213.600,299.600 213.600 C 300.040 213.600,300.400 213.780,300.400 214.000 C 300.400 214.220,301.120 214.400,302.000 214.400 C 302.880 214.400,303.600 214.580,303.600 214.800 C 303.600 215.022,304.659 215.200,305.976 215.200 C 307.283 215.200,308.464 215.020,308.600 214.800 C 308.736 214.580,309.456 214.400,310.200 214.400 C 310.944 214.400,311.664 214.220,311.800 214.000 C 311.936 213.780,312.357 213.600,312.735 213.600 C 313.114 213.600,313.683 213.240,314.000 212.800 C 314.317 212.360,314.813 212.000,315.102 212.000 C 315.831 212.000,318.400 209.362,318.400 208.613 C 318.400 208.276,318.580 208.000,318.800 208.000 C 319.020 208.000,319.200 207.730,319.200 207.400 C 319.200 207.070,319.380 206.800,319.600 206.800 C 319.820 206.800,320.000 206.451,320.000 206.024 C 320.000 205.597,320.180 205.136,320.400 205.000 C 320.630 204.858,320.800 202.737,320.800 200.000 C 320.800 197.263,320.630 195.142,320.400 195.000 C 320.180 194.864,320.000 194.403,320.000 193.976 C 320.000 193.549,319.820 193.200,319.600 193.200 C 319.380 193.200,319.200 192.930,319.200 192.600 C 319.200 192.270,319.020 192.000,318.800 192.000 C 318.580 192.000,318.400 191.724,318.400 191.387 C 318.400 190.638,315.831 188.000,315.102 188.000 C 314.813 188.000,314.317 187.640,314.000 187.200 C 313.683 186.760,313.114 186.400,312.735 186.400 C 312.357 186.400,311.936 186.220,311.800 186.000 C 311.664 185.780,310.944 185.600,310.200 185.600 C 309.456 185.600,308.736 185.420,308.600 185.200 C 308.464 184.980,307.283 184.800,305.976 184.800 C 304.659 184.800,303.600 184.978,303.600 185.200 M198.483 223.743 C 199.299 224.116,200.074 224.597,200.207 224.811 C 200.339 225.025,200.797 225.200,201.224 225.200 C 201.651 225.200,202.000 225.380,202.000 225.600 C 202.000 225.820,202.360 226.000,202.800 226.000 C 203.240 226.000,203.600 226.180,203.600 226.400 C 203.600 226.620,203.920 226.800,204.312 226.800 C 204.703 226.800,205.283 227.160,205.600 227.600 C 205.917 228.040,206.497 228.400,206.888 228.400 C 207.280 228.400,207.600 228.536,207.600 228.702 C 207.600 228.869,208.185 229.264,208.900 229.580 C 209.615 229.897,210.549 230.480,210.975 230.878 C 211.402 231.275,211.987 231.600,212.275 231.600 C 212.564 231.600,212.800 231.780,212.800 232.000 C 212.800 232.220,213.160 232.400,213.600 232.400 C 214.040 232.400,214.400 232.580,214.400 232.800 C 214.400 233.020,214.636 233.200,214.925 233.200 C 215.213 233.200,215.836 233.560,216.308 234.000 C 216.780 234.440,217.444 234.800,217.783 234.800 C 218.122 234.800,218.400 234.980,218.400 235.200 C 218.400 235.420,218.678 235.600,219.017 235.600 C 219.356 235.600,220.020 235.960,220.492 236.400 C 220.964 236.840,221.587 237.200,221.875 237.200 C 222.164 237.200,222.400 237.380,222.400 237.600 C 222.400 237.820,222.745 238.000,223.167 238.000 C 223.588 238.000,223.993 238.135,224.067 238.300 C 224.221 238.647,225.883 239.668,228.263 240.878 L 229.926 241.724 227.606 242.892 C 226.331 243.534,224.915 244.406,224.460 244.830 C 224.005 245.253,223.356 245.600,223.017 245.600 C 222.678 245.600,222.400 245.780,222.400 246.000 C 222.400 246.220,222.040 246.400,221.600 246.400 C 221.160 246.400,220.800 246.580,220.800 246.800 C 220.800 247.020,220.564 247.200,220.275 247.200 C 219.987 247.200,219.364 247.560,218.892 248.000 C 218.420 248.440,217.756 248.800,217.417 248.800 C 217.078 248.800,216.800 248.980,216.800 249.200 C 216.800 249.420,216.522 249.600,216.183 249.600 C 215.844 249.600,215.180 249.960,214.708 250.400 C 214.236 250.840,213.613 251.200,213.325 251.200 C 213.036 251.200,212.800 251.380,212.800 251.600 C 212.800 251.820,212.440 252.000,212.000 252.000 C 211.560 252.000,211.200 252.180,211.200 252.400 C 211.200 252.620,210.930 252.800,210.600 252.800 C 210.270 252.800,210.000 252.980,210.000 253.200 C 210.000 253.420,209.764 253.600,209.475 253.600 C 209.187 253.600,208.564 253.960,208.092 254.400 C 207.620 254.840,206.956 255.200,206.617 255.200 C 206.278 255.200,206.000 255.380,206.000 255.600 C 206.000 255.820,205.680 256.000,205.288 256.000 C 204.897 256.000,204.317 256.360,204.000 256.800 C 203.683 257.240,203.103 257.600,202.712 257.600 C 202.320 257.600,202.000 257.780,202.000 258.000 C 202.000 258.220,201.736 258.400,201.414 258.400 C 200.652 258.400,198.000 259.665,198.000 260.027 C 198.000 260.181,197.640 260.401,197.200 260.516 C 196.408 260.723,196.400 260.528,196.400 241.739 C 196.400 231.297,196.535 222.823,196.700 222.909 C 196.865 222.995,197.667 223.371,198.483 223.743 M170.800 241.833 C 170.800 252.082,170.665 260.402,170.500 260.323 C 170.335 260.243,169.255 259.745,168.100 259.214 C 166.945 258.684,166.000 258.104,166.000 257.925 C 166.000 257.746,165.640 257.600,165.200 257.600 C 164.760 257.600,164.400 257.420,164.400 257.200 C 164.400 256.980,164.040 256.800,163.600 256.800 C 163.160 256.800,162.800 256.620,162.800 256.400 C 162.800 256.180,162.564 256.000,162.275 256.000 C 161.987 256.000,161.364 255.640,160.892 255.200 C 160.420 254.760,159.756 254.400,159.417 254.400 C 159.078 254.400,158.800 254.220,158.800 254.000 C 158.800 253.780,158.530 253.600,158.200 253.600 C 157.870 253.600,157.600 253.420,157.600 253.200 C 157.600 252.980,157.330 252.800,157.000 252.800 C 156.670 252.800,156.400 252.654,156.400 252.475 C 156.400 252.296,155.770 251.902,155.000 251.600 C 154.230 251.298,153.600 250.904,153.600 250.725 C 153.600 250.546,153.322 250.400,152.983 250.400 C 152.644 250.400,151.980 250.040,151.508 249.600 C 151.036 249.160,150.413 248.800,150.125 248.800 C 149.836 248.800,149.600 248.620,149.600 248.400 C 149.600 248.180,149.240 248.000,148.800 248.000 C 148.360 248.000,148.000 247.820,148.000 247.600 C 148.000 247.380,147.722 247.200,147.383 247.200 C 147.044 247.200,146.380 246.840,145.908 246.400 C 145.436 245.960,144.813 245.600,144.525 245.600 C 144.236 245.600,144.000 245.420,144.000 245.200 C 144.000 244.980,143.655 244.800,143.233 244.800 C 142.812 244.800,142.407 244.658,142.333 244.485 C 142.119 243.980,138.527 242.004,137.729 241.954 C 137.074 241.912,137.079 241.887,137.778 241.709 C 138.206 241.600,139.238 241.081,140.070 240.556 C 140.903 240.030,141.768 239.600,141.992 239.600 C 142.216 239.600,142.400 239.441,142.400 239.247 C 142.400 239.052,142.715 238.793,143.100 238.671 C 144.036 238.375,146.166 237.076,146.333 236.700 C 146.407 236.535,146.812 236.400,147.233 236.400 C 147.655 236.400,148.000 236.220,148.000 236.000 C 148.000 235.780,148.236 235.600,148.525 235.600 C 148.813 235.600,149.436 235.240,149.908 234.800 C 150.380 234.360,151.044 234.000,151.383 234.000 C 151.722 234.000,152.000 233.820,152.000 233.600 C 152.000 233.380,152.360 233.200,152.800 233.200 C 153.240 233.200,153.600 233.020,153.600 232.800 C 153.600 232.580,153.870 232.400,154.200 232.400 C 154.530 232.400,154.800 232.220,154.800 232.000 C 154.800 231.780,155.070 231.600,155.400 231.600 C 155.730 231.600,156.000 231.454,156.000 231.275 C 156.000 231.096,156.630 230.702,157.400 230.400 C 158.170 230.098,158.800 229.704,158.800 229.525 C 158.800 229.346,159.036 229.200,159.325 229.200 C 159.613 229.200,160.236 228.840,160.708 228.400 C 161.180 227.960,161.844 227.600,162.183 227.600 C 162.522 227.600,162.800 227.420,162.800 227.200 C 162.800 226.980,163.120 226.800,163.512 226.800 C 163.903 226.800,164.483 226.440,164.800 226.000 C 165.117 225.560,165.652 225.192,165.988 225.182 C 166.325 225.172,167.410 224.730,168.400 224.200 C 169.390 223.670,170.335 223.228,170.500 223.218 C 170.665 223.208,170.800 231.585,170.800 241.833 M115.800 297.600 C 115.664 297.820,115.113 298.000,114.576 298.000 C 114.039 298.000,113.600 298.180,113.600 298.400 C 113.600 298.620,113.240 298.800,112.800 298.800 C 112.360 298.800,112.000 298.980,112.000 299.200 C 112.000 299.420,111.745 299.600,111.434 299.600 C 111.123 299.600,110.358 300.159,109.734 300.843 C 109.110 301.526,108.195 302.508,107.700 303.025 C 107.205 303.541,106.800 304.242,106.800 304.582 C 106.800 304.922,106.620 305.200,106.400 305.200 C 106.180 305.200,106.000 305.740,106.000 306.400 C 106.000 307.060,105.820 307.600,105.600 307.600 C 105.356 307.600,105.200 309.459,105.200 312.376 C 105.200 315.129,105.369 317.258,105.600 317.400 C 105.820 317.536,106.000 317.997,106.000 318.424 C 106.000 318.851,106.180 319.200,106.400 319.200 C 106.620 319.200,106.800 319.483,106.800 319.830 C 106.800 320.676,111.293 325.200,112.134 325.200 C 112.500 325.200,112.800 325.380,112.800 325.600 C 112.800 325.820,113.340 326.000,114.000 326.000 C 114.660 326.000,115.200 326.180,115.200 326.400 C 115.200 326.643,117.000 326.800,119.800 326.800 C 122.600 326.800,124.400 326.643,124.400 326.400 C 124.400 326.180,124.737 326.000,125.150 326.000 C 127.037 326.000,132.400 321.948,132.400 320.522 C 132.400 320.235,132.580 320.000,132.800 320.000 C 133.020 320.000,133.200 319.640,133.200 319.200 C 133.200 318.760,133.380 318.400,133.600 318.400 C 133.820 318.400,134.000 317.860,134.000 317.200 C 134.000 316.540,134.180 316.000,134.400 316.000 C 134.639 316.000,134.800 314.467,134.800 312.200 C 134.800 309.933,134.639 308.400,134.400 308.400 C 134.180 308.400,134.000 307.860,134.000 307.200 C 134.000 306.540,133.820 306.000,133.600 306.000 C 133.380 306.000,133.200 305.640,133.200 305.200 C 133.200 304.760,133.050 304.400,132.868 304.400 C 132.685 304.400,132.280 303.905,131.968 303.300 C 131.259 301.927,129.411 300.121,128.380 299.794 C 127.951 299.657,127.600 299.378,127.600 299.173 C 127.600 298.968,127.240 298.800,126.800 298.800 C 126.360 298.800,126.000 298.620,126.000 298.400 C 126.000 298.180,125.561 298.000,125.024 298.000 C 124.487 298.000,123.936 297.820,123.800 297.600 C 123.664 297.379,121.870 297.200,119.800 297.200 C 117.730 297.200,115.936 297.379,115.800 297.600 M243.800 297.600 C 243.664 297.820,243.214 298.000,242.799 298.000 C 241.031 298.000,234.800 303.134,234.800 304.591 C 234.800 304.926,234.620 305.200,234.400 305.200 C 234.180 305.200,234.000 305.549,234.000 305.976 C 234.000 306.403,233.820 306.864,233.600 307.000 C 233.367 307.144,233.200 309.404,233.200 312.424 C 233.200 315.608,233.354 317.600,233.600 317.600 C 233.820 317.600,234.000 317.960,234.000 318.400 C 234.000 318.840,234.180 319.200,234.400 319.200 C 234.620 319.200,234.800 319.496,234.800 319.858 C 234.800 320.740,239.527 325.200,240.461 325.200 C 240.867 325.200,241.200 325.380,241.200 325.600 C 241.200 325.820,241.549 326.000,241.976 326.000 C 242.403 326.000,242.864 326.180,243.000 326.400 C 243.142 326.631,245.271 326.800,248.024 326.800 C 250.941 326.800,252.800 326.644,252.800 326.400 C 252.800 326.180,253.064 326.000,253.386 326.000 C 255.124 326.000,260.400 321.879,260.400 320.522 C 260.400 320.235,260.580 320.000,260.800 320.000 C 261.020 320.000,261.200 319.640,261.200 319.200 C 261.200 318.760,261.380 318.400,261.600 318.400 C 261.820 318.400,262.000 317.860,262.000 317.200 C 262.000 316.540,262.180 316.000,262.400 316.000 C 262.637 316.000,262.800 314.541,262.800 312.424 C 262.800 310.457,262.620 308.736,262.400 308.600 C 262.180 308.464,262.000 307.823,262.000 307.176 C 262.000 306.529,261.820 306.000,261.600 306.000 C 261.380 306.000,261.200 305.680,261.200 305.288 C 261.200 304.897,260.840 304.317,260.400 304.000 C 259.960 303.683,259.600 303.185,259.600 302.894 C 259.600 302.372,257.861 300.400,257.401 300.400 C 257.272 300.400,256.780 300.040,256.308 299.600 C 255.836 299.160,255.213 298.800,254.925 298.800 C 254.636 298.800,254.400 298.620,254.400 298.400 C 254.400 298.180,253.860 298.000,253.200 298.000 C 252.540 298.000,252.000 297.820,252.000 297.600 C 252.000 297.360,250.408 297.200,248.024 297.200 C 245.804 297.200,243.938 297.377,243.800 297.600 " stroke="none" fill-rule="evenodd"></path><path id="path1" d="" stroke="none"  fill-rule="evenodd"></path><path id="path2" d="" stroke="none"  fill-rule="evenodd"></path><path id="path3" d="" stroke="none"  fill-rule="evenodd"></path><path id="path4" d="" stroke="none"  fill-rule="evenodd"></path></g></svg>