<?xml version="1.0" standalone="no"?>
<!DOCTYPE svg PUBLIC "-//W3C//DTD SVG 20010904//EN"
 "http://www.w3.org/TR/2001/REC-SVG-20010904/DTD/svg10.dtd">
<svg version="1.0" xmlns="http://www.w3.org/2000/svg"
 width="512.000000pt" height="512.000000pt" viewBox="0 0 512.000000 512.000000"
 preserveAspectRatio="xMidYMid meet">

<g transform="translate(0.000000,512.000000) scale(0.100000,-0.100000)"
fill="#000000" stroke="none">
<path d="M1740 4207 l-445 -151 -370 -6 c-334 -5 -375 -8 -418 -25 -104 -42
-190 -133 -228 -239 -18 -52 -19 -86 -19 -551 l0 -495 -131 -783 c-108 -646
-130 -793 -125 -846 11 -131 100 -257 223 -318 l58 -28 747 -3 c739 -2 748 -2
768 18 18 18 20 33 20 155 l0 135 108 0 107 0 155 -155 155 -155 955 0 c893 0
961 1 1045 19 446 92 742 450 772 931 6 107 -8 183 -53 272 -59 119 -176 238
-233 238 -37 0 -71 -38 -71 -78 0 -24 8 -39 32 -59 88 -75 127 -130 158 -223
23 -69 27 -57 -50 -149 -92 -111 -251 -212 -417 -267 -115 -37 -285 -63 -482
-73 -164 -9 -197 -7 -466 21 -159 17 -291 32 -292 33 -9 5 33 128 58 171 59
104 193 211 314 250 27 9 57 23 65 30 9 7 47 72 85 144 l70 130 348 0 348 0
24 25 c32 31 33 74 2 103 -23 22 -28 22 -383 22 l-359 0 -122 85 -122 85 21
35 c18 31 19 39 8 66 -24 58 -81 66 -128 18 l-31 -31 -83 57 c-129 90 -123 82
-87 122 39 45 38 96 -3 126 -36 27 -70 17 -117 -35 l-38 -41 -121 83 -121 83
24 29 c34 41 34 90 -1 117 -38 30 -68 26 -113 -14 -21 -19 -41 -35 -45 -35 -3
0 -71 45 -149 99 l-143 100 -12 93 c-15 110 -33 142 -83 146 -26 2 -40 -3 -58
-22 -24 -26 -24 -26 -11 -126 7 -56 11 -102 9 -104 -2 -2 -204 -140 -449 -306
-245 -166 -452 -310 -461 -321 -9 -10 -38 -97 -65 -193 l-48 -174 -51 46 c-65
59 -143 109 -219 139 -102 42 -190 53 -417 53 l-210 0 6 33 c3 17 9 52 13 77
l8 45 179 6 c99 3 194 11 210 16 83 28 128 63 312 247 255 254 270 286 257
558 l-7 137 28 11 c16 6 206 67 423 137 297 94 396 122 402 113 4 -7 11 -42
15 -78 8 -75 35 -112 83 -112 37 0 72 37 72 76 0 25 -57 434 -75 542 -8 45
-38 72 -77 71 -18 0 -233 -69 -478 -152z m428 -99 c6 -40 8 -76 4 -79 -8 -8
-795 -259 -811 -259 -7 0 -11 27 -11 74 l0 74 388 130 c213 72 394 131 403
131 13 1 19 -15 27 -71z m-968 -288 l0 -80 -385 0 c-441 0 -424 -4 -332 86 34
32 68 55 93 62 22 5 165 10 332 11 l292 1 0 -80z m0 -395 c0 -117 -4 -165 -15
-193 -20 -46 -353 -384 -410 -415 -35 -19 -60 -22 -202 -25 l-163 -4 0 396 0
396 395 0 395 0 0 -155z m1305 -403 c61 -41 114 -79 119 -83 6 -5 -26 -46 -78
-98 -82 -84 -87 -92 -84 -127 2 -26 11 -43 30 -57 43 -32 73 -17 174 91 l91
96 29 -18 c16 -11 71 -48 122 -83 l92 -64 -70 -80 c-39 -43 -70 -88 -70 -100
0 -11 14 -34 30 -51 43 -42 69 -33 165 62 l80 78 105 -74 c58 -40 106 -78 108
-83 2 -5 -22 -44 -53 -88 -62 -85 -67 -120 -24 -155 47 -40 89 -17 159 86 25
36 49 66 54 66 6 0 136 -86 204 -135 2 -2 -22 -48 -51 -105 l-55 -102 -79 -32
c-202 -81 -349 -250 -400 -459 l-16 -68 -41 6 c-108 15 -582 65 -615 65 -42 0
-65 -19 -76 -62 -6 -22 -1 -33 21 -56 l29 -28 705 -79 c898 -101 1012 -104
1304 -28 193 50 371 139 493 246 l36 32 -7 -30 c-16 -65 -96 -214 -152 -285
-130 -163 -339 -279 -548 -305 l-56 -7 0 45 c0 88 -43 129 -107 102 -36 -15
-43 -31 -43 -96 l0 -49 -240 0 -240 0 0 49 c0 65 -7 81 -43 96 -36 15 -82 3
-97 -25 -6 -10 -10 -41 -10 -69 l0 -51 -240 0 -240 0 0 55 c0 74 -27 103 -90
96 -33 -4 -60 -50 -60 -102 l0 -49 -182 0 -182 0 -156 155 -156 155 -191 0
-192 0 -20 -26 c-19 -24 -21 -40 -21 -155 l0 -129 -160 0 -160 0 0 49 c0 65
-7 81 -44 96 -62 26 -105 -12 -106 -92 l0 -53 -240 0 -240 0 0 54 c0 67 -21
97 -69 98 -51 2 -81 -38 -81 -104 l0 -50 -122 4 c-103 3 -130 7 -165 26 -109
57 -143 151 -117 317 8 49 17 91 19 94 3 2 51 -10 108 -28 410 -127 869 -113
1253 39 l75 30 256 0 c225 0 259 2 275 17 26 23 24 84 -3 109 -19 17 -42 19
-268 22 l-247 3 -130 262 -131 262 63 223 c34 123 64 225 66 227 33 32 874
592 882 588 6 -3 61 -40 121 -81z m-1597 -724 c95 -34 159 -76 227 -149 45
-50 79 -108 200 -350 80 -159 143 -294 140 -299 -9 -15 -188 -68 -310 -92
-131 -26 -418 -31 -550 -9 -130 21 -374 89 -398 111 -7 6 115 770 128 809 4
11 50 12 248 9 230 -4 246 -5 315 -30z"/>
</g>
</svg>
