<?xml version="1.0" encoding="UTF-8"?><svg id="Layer_1" xmlns="http://www.w3.org/2000/svg" viewBox="0 0 689.19 755.77"><defs><style>.cls-1{fill:#47b2c0;}.cls-2{fill:#fdeee5;}.cls-3{fill:#93d2e0;}.cls-4{fill:#0c3146;}</style></defs><path class="cls-3" d="m179.47,292.39c.18.44.49.87.84,1.19,1.15,1.02,1.74,2.26,2.06,3.78.26,1.25.91,2.43,1.47,3.61,1.04,2.21,2.1,4.37,2.72,6.79.67,2.66,2.03,5.12,3.68,7.14,2.85.94,5-.57,7.15-.89.34-.5.58-.75.7-1.04.18-.45.34-.93.4-1.4s.02-.98-.06-1.46c-1.18-6.91-2.24-13.84-5.86-20.07-4.01-6.9-6.69-14.55-11.85-20.8-1.98-4.28-4.9-8.12-5.87-12.88-.25-1.25-1.03-2.39-1.57-3.58-.48-1.04-1.1-2.03-1.43-3.11-2.61-8.58-5.16-17.17-5.83-26.18-.56-7.54-.17-14.93,2.15-22.25,1.75-5.51,4.37-10.52,7.18-15.5,4.36-7.72,9.53-14.84,16.02-20.9,5.23-4.89,10.54-9.74,16.09-14.25,3.39-2.75,7.01-5.25,10.98-7.27,3.95-2.02,8.06-3.54,12.24-4.87,4.02-1.28,8.16-2.57,12.33-2.95,8.31-.76,16.6-.52,24.69,2.21,4.8,1.62,9.61,3.19,14.16,5.4,4.69,2.27,9.44,4.56,13.72,7.48,8.62,5.9,17.11,12,24.82,19.1,6.37,5.86,12.31,12.1,17.43,19.12,2.87,3.94,5.93,7.75,8.9,11.61,2.48,3.22,5.19,6.3,7.39,9.7,3.53,5.46,7.76,10.46,10.81,16.23.3.57.81,1.02,1.17,1.56,2.47,3.63,5.05,7.18,7.34,10.92,2.04,3.32,3.39,7.08,6.21,9.92,2.38,5.21,6.55,9.34,8.8,14.65,1.6,3.77,4.66,5.39,8.69,4.87,3.06-.39,6.1-1.04,9.14-1.61.29-.05.52-.36,1-.71.2-.71.45-1.62.73-2.6-1.61-1.97-3.24-3.79-4.66-5.76-2-2.77-4.05-5.48-5.89-8.38-2-3.16-4.2-6.19-5.91-9.54-.15-.29-.31-.59-.55-.81-1.96-1.82-2.82-4.38-4.33-6.48-3.16-4.38-5.75-9.08-8.26-13.83-.15-.29-.37-.54-.57-.8-1.96-2.59-3.98-5.14-5.87-7.78-4.09-5.67-8.03-11.44-12.19-17.06-5.13-6.92-10.44-13.71-15.63-20.59-3.72-4.94-7.33-9.96-11.44-14.59-4.22-4.75-8.38-9.56-12.82-14.1-2.95-3.02-6.28-5.7-9.56-8.38-5.34-4.35-11.21-8.02-17.6-10.49-9.13-3.53-18.6-6.11-28.32-7.55-3.86-.57-7.79-.74-11.7-.83-2.76-.07-5.53.27-8.3.48-1.62.13-3.28.21-4.85.59-5.39,1.29-10.67,2.96-15.63,5.47-5.98,3.03-11.9,6.16-17.87,9.2-1.27.65-11.35,5.78-12.58,6.52-2.79,1.66-5.8,2.89-8.44,4.91-4.6,3.52-8.28,7.83-11.64,12.46-1.72,2.37-3.2,4.92-4.87,7.34-5.02,7.25-9.56,14.75-13.14,22.86-2.47,5.59-4.38,11.22-4.78,17.33-.09,1.3-.2,2.61-.45,3.89-1.34,6.82-.34,13.67-.36,20.51,1.72,5.78,1.74,11.88,3.85,17.65,1.96,5.35,3.61,10.78,6.35,15.83,4.11,7.59,7.72,15.43,13.47,22.07,2.3,2.66,4.61,5.51,5.98,8.89Z"/><path class="cls-1" d="m142.91,341.93c.85-2.37,1.76-4.14,2.1-6.02.86-4.79,3.95-7.76,7.81-10.13,1.8-1.11,3.73-2.05,5.69-2.84,3.93-1.59,7.92-3.03,11.88-4.52,3.2-1.21,6.39-2.47,9.62-3.6,9.69-3.41,19.38-6.8,29.09-10.14,4.93-1.7,9.87-3.38,14.86-4.9,8.42-2.56,16.87-5.03,25.34-7.45,10.82-3.09,21.7-5.98,32.49-9.16,15.36-4.53,30.94-8.01,46.77-10.44,26.13-4.02,52.24-8.17,78.39-12.07,16.79-2.5,33.69-4.14,50.63-5.33,2.11-.15,4.25-.2,6.36-.03,5.17.4,9.37,2.39,10.53,9,.2,1.12.48,2.23.63,3.36,2.17,16.34,4.26,32.69,6.5,49.02,1.97,14.39,3.96,28.78,6.2,43.13,3.24,20.8,6.66,41.57,10.09,62.34,2.18,13.2,4.5,26.38,6.79,39.56,2.27,13.05,3.26,26.23,4.28,39.41.92,11.9.93,23.81.31,35.73-.19,3.58-.69,7.15-1.05,10.72-.03.32-.08.65-.14.97-1.47,7.85-5.7,13.45-13.4,16.06-10.5,3.56-20.96,7.24-31.56,10.49-21.37,6.54-42.98,12.2-64.72,17.36-6.19,1.47-12.42,2.77-18.69,3.87-12.86,2.25-25.76,4.25-38.63,6.47-18.65,3.22-37.29,6.5-55.92,9.86-6.74,1.21-13.42,2.75-20.15,4.06-3.04.59-6.1,1.18-9.18,1.47-8.87.84-13.33-1.47-17.84-9.11-1.16-1.96-2.13-4.05-3.1-6.12-1.72-3.7-3.37-7.43-5.04-11.15-1.8-4.02-3.56-8.05-5.37-12.07-.74-1.64-1.48-3.28-2.32-4.87-3.34-6.38-5.87-13.09-8.31-19.84-2.04-5.67-4.21-11.31-6.23-16.99-2.96-8.29-5.8-16.62-8.79-24.9-2.27-6.29-4.6-12.55-7.08-18.76-3.08-7.72-6.34-15.37-9.54-23.05-2.88-6.92-5.92-13.78-8.62-20.78-2.76-7.15-5.35-14.36-7.72-21.65-5.4-16.6-9.85-33.48-14.08-50.41-2.41-9.65-4.65-19.35-6.98-29.02-.65-2.68-1.36-5.35-1.92-7.51Z"/><path class="cls-4" d="m396.43,179.89c1.9,4.42,3.7,8.79,5.65,13.1,2.19,4.83,4.6,9.57,6.76,14.41,1.69,3.79,3.28,7.64,4.67,11.55,2.45,6.9,4.68,13.89,7.09,20.81,2.49,7.16,4.77,14.37,6.67,21.72.86,3.31,2.04,6.53,3.03,9.8.26.85.56,1.75.54,2.62-.02.85-.21,1.86-.72,2.49-1.82,2.24-4.21,3.56-7.15,3.69-1.79.08-3.24-.58-4-2.26-1.59-3.48-3.19-6.96-4.66-10.5-1.63-3.91-3.15-7.86-4.66-11.82-1.59-4.19-3.09-8.41-4.68-12.6-1.93-5.1-3.65-10.3-5.91-15.25-3.46-7.57-7.36-14.93-10.96-22.44-1.76-3.67-3.27-7.47-4.9-11.2-.46-1.05-.96-2.08-1.44-3.11-1.24-2.66-2.39-5.37-3.74-7.97-1.39-2.67-2.86-5.32-4.51-7.85-2.98-4.57-6.1-9.05-9.75-13.13-5.28-5.9-11.54-10.58-18.17-14.79-3.58-2.27-7.26-4.4-10.95-6.49-6.04-3.42-12.78-4.92-19.35-6.84-3.68-1.07-7.43-1.93-11.11-3-4.37-1.27-8.75-1.8-13.3-1.1-2.65.41-5.37.55-8.05.56-5.15.03-9.99,1.39-14.74,3.17-3.05,1.14-6.12,2.24-9.14,3.47-2.42.98-4.79,2.07-7.14,3.19-1.98.94-3.98,1.88-5.85,3.02-14.63,8.96-25.87,21.24-34.87,35.73-3.56,5.73-6.36,11.79-8.54,18.13-2.64,7.68-4.04,15.64-4.73,23.72-.19,2.28-.37,4.57-.79,6.81-1.35,7.19-1.26,14.46-1.51,21.72-.17,4.91.33,9.77.87,14.64.75,6.73,1.26,13.48,2.09,20.2,1.11,8.98,2.6,17.92,3.57,26.92.52,4.85.37,9.78.35,14.67-.01,2.59-1.48,3.81-4.13,3.73-1.95-.05-3.91-.19-5.85-.37-2.03-.19-4.01-2.47-3.41-4.28.61-1.86.22-3.54-.13-5.28-1.23-6.08-2.16-12.19-2.45-18.41-.16-3.24-.59-6.53-1.44-9.66-2.55-9.38-4.22-18.94-6-28.47-1.22-6.52-1.13-13.16-1.43-19.76-.56-12.38.84-24.59,2.46-36.84,1.26-9.53,5.41-17.74,10.41-25.64,4.32-6.83,8.72-13.61,13.29-20.27,5.75-8.39,12.65-15.79,20.55-22.19,2.52-2.04,5.41-3.62,8.1-5.46,2.42-1.65,4.78-3.39,7.2-5.05,2.01-1.38,4.03-2.77,6.11-4.04,2.92-1.78,5.81-3.67,8.9-5.11,5.63-2.62,11.48-4.69,17.79-4.93,5.62-.22,11.28-.89,16.86-.52,8.7.58,17.48,1.25,25.98,3.05,9.48,2,18.78,4.99,27.71,8.92,5.51,2.43,10.32,5.95,14.86,9.83,8.5,7.28,16.42,15.16,23.85,23.53,4.28,4.83,7.96,10.1,11.24,15.66,1.16,1.96,2.41,3.87,3.59,5.75Z"/><path class="cls-2" d="m470.1,520.56c-1.79-14.75-3.47-29.51-4.89-44.3-2.2-22.91-4.13-45.85-6.19-68.78-1.33-14.8-2.99-29.57-3.95-44.39-1.42-21.84-3.33-43.62-5.79-65.37-.97-8.6-1.67-17.23-2.57-25.83-.54-5.17-1.12-10.34-1.71-15.6-1.52.13-3.04.29-4.56.43.46,4.06.96,8.11,1.36,12.18,1.08,10.88,2.11,21.77,3.12,32.66,1.53,16.42,3.09,32.83,4.5,49.26,1.09,12.69,1.83,25.4,2.97,38.09,2.23,24.88,4.69,49.73,6.93,74.61,1.38,15.28,2.57,30.58,4.51,45.81,1.4,11.01,2.86,22.02,3.89,33.07.95,10.15,1.59,20.32,2.27,30.5,1.55-.5,3.09-1.01,4.63-1.52-.33-4.92-.67-9.84-.97-14.76-.76-12.06-2.09-24.07-3.54-36.06Z"/><path class="cls-2" d="m287.57,556.15c-4.9-16.07-9.88-32.12-14.61-48.23-2.85-9.7-5.27-19.53-7.93-29.29-2.83-10.39-5.81-20.73-8.53-31.15-3.37-12.95-6.5-25.96-9.81-38.92-6.01-23.56-11.34-47.28-16.31-71.09-2.59-12.42-5.25-24.82-7.9-37.22-1.41.44-2.81.89-4.21,1.34,3.91,18.95,7.86,37.89,11.79,56.83,4.04,19.5,8.79,38.83,13.73,58.11,2.72,10.59,5.04,21.28,7.9,31.83,6.16,22.67,12.44,45.3,18.88,67.89,4.16,14.58,8.67,29.07,13.11,43.58,2.53,8.26,5.37,16.44,7.83,24.72,2.52,8.49,5.07,16.98,7.11,25.7,1.58-.28,3.16-.56,4.75-.84-.96-3.9-1.94-7.79-3.1-11.63-4.18-13.9-8.48-27.76-12.71-41.65Z"/><path class="cls-2" d="m373.07,578.74c-3.14-13-6.67-25.92-9.44-39-3.54-16.76-6.5-33.64-9.67-50.48-1.72-9.14-3.1-18.35-5.03-27.45-6.97-32.71-14.56-65.29-22.64-97.74-5.09-20.44-9.53-41-13.19-61.74-1.52-8.63-3.21-17.23-4.92-25.83-1.52.33-3.05.64-4.57.99,1.86,10.2,3.74,20.4,5.65,30.6,1.29,6.9,2.46,13.82,4.01,20.66,3.39,14.96,7.02,29.86,10.5,44.79,5.79,24.79,11.58,49.58,17.3,74.38,4.33,18.77,7.26,37.82,10.8,56.75,2.16,11.55,4.3,23.1,6.77,34.59,2.2,10.2,4.94,20.29,7.28,30.46,2.13,9.27,4.83,18.42,6.29,27.84,1.54-.26,3.08-.51,4.61-.78,0-.78-.04-1.55-.19-2.29-1.1-5.27-2.31-10.52-3.58-15.75Z"/><path class="cls-2" d="m326.01,543.56c-3.49-14.93-7.09-29.82-11.43-44.54-3.68-12.51-7.19-25.08-10.38-37.73-2.71-10.75-4.82-21.65-7.27-32.47-4.32-19.09-8.8-38.14-13.03-57.25-4.16-18.79-8.01-37.65-12.13-56.46-2-9.12-4.15-18.21-6.29-27.31-1.45.4-2.9.82-4.36,1.22,1.52,6.54,3.06,13.07,4.48,19.63,5.86,27.1,11.57,54.24,17.48,81.33,3.09,14.18,6.53,28.29,9.73,42.45,1.87,8.27,3.43,16.62,5.44,24.86,3.18,12.99,6.53,25.93,10.47,38.72,5.23,17,9.27,34.31,13.25,51.64,4.31,18.75,8.82,37.45,13.29,56.15,1.55-.27,3.09-.55,4.64-.82-.55-2.17-1.1-4.34-1.61-6.52-4.12-17.63-8.17-35.28-12.29-52.91Z"/><path class="cls-2" d="m404.76,541.97c-1.47-9.52-3.01-19.02-4.49-28.54-1.43-9.19-2.97-18.38-4.19-27.6-1.57-11.81-2.72-23.68-4.31-35.49-2.63-19.58-5.39-39.14-8.23-58.68-1.83-12.6-4.05-25.14-5.85-37.75-2.1-14.7-3.86-29.46-5.91-44.17-1.98-14.28-4.29-28.5-7.5-42.56-1.49.23-2.98.46-4.47.69,2.93,13.96,5.21,28.03,7.16,42.15,1.52,10.99,2.69,22.04,4.3,33.02,3.21,21.97,6.69,43.9,9.89,65.87,2.21,15.18,4.19,30.4,6.2,45.61,2.01,15.21,3.76,30.46,5.95,45.65,2.52,17.45,5.52,34.82,8.11,52.26,1.87,12.59,3.4,25.24,5.09,37.85,0,.06.02.11.02.17,1.57-.38,3.13-.76,4.7-1.15-1.12-9-2.25-18.01-3.46-27-.91-6.79-1.97-13.57-3.02-20.34Z"/><path class="cls-2" d="m445.09,543.32c-2.84-18.88-5.89-37.73-9.12-56.55-3.12-18.18-6.14-36.36-8.2-54.7-1.72-15.41-3.35-30.83-5.28-46.21-3.52-28.02-6.91-56.05-9.18-84.2-1.1-13.68-2.69-27.29-5.63-40.71-.03-.13-.07-.26-.09-.39-.21.03-.42.06-.63.09-1.25.19-2.5.39-3.76.57,2.24,10.77,3.7,21.66,4.62,32.61,2.31,27.49,5.15,54.92,8.61,82.29,1.74,13.76,3.55,27.52,4.95,41.32,2.3,22.75,5.4,45.38,9.48,67.87,4.84,26.66,9.17,53.4,12.36,80.32.58,4.92,1.3,9.85,1.56,14.81,1.52-.43,3.04-.87,4.56-1.3-.07-1.09-.14-2.18-.27-3.26-1.26-10.86-2.36-21.75-3.99-32.56Z"/><path class="cls-2" d="m258.19,586.21c-2.49-6.73-4.97-13.46-7.42-20.2-2.01-5.52-4.06-11.02-5.95-16.57-2.42-7.1-4.71-14.24-7.02-21.38-2.76-8.53-5.49-17.07-8.22-25.62-3.17-9.94-6.36-19.88-9.48-29.84-3.12-9.96-6.27-19.91-9.22-29.91-3.45-11.73-6.69-23.53-10.04-35.29-3.89-13.64-7.85-27.27-11.7-40.92-3.93-13.97-7.75-27.98-11.65-41.95-.74-2.65-1.57-5.28-2.39-7.9-1.42.54-2.83,1.08-4.25,1.62,3.26,11.92,6.49,23.85,9.83,35.75,4.45,15.86,8.99,31.69,13.48,47.54,2.22,7.84,4.38,15.71,6.67,23.53,3.62,12.36,7.26,24.72,11,37.05,3.56,11.7,7.22,23.37,10.93,35.02,3.31,10.41,6.71,20.8,10.16,31.16,4.48,13.46,8.91,26.93,13.63,40.3,3.25,9.22,6.98,18.28,10.45,27.42,2.62,6.9,5.21,13.81,7.81,20.72.07-.01.14-.02.2-.04,1.5-.29,2.99-.6,4.49-.91-2.56-6.65-5.12-13.31-7.66-19.97-1.22-3.2-2.46-6.39-3.65-9.6Z"/><path class="cls-2" d="m462.15,312.35c-3.42.01-6.84.31-10.26.5-3.91.22-7.85.19-11.72.73-10.01,1.4-20.08,2.25-30.03,4.22-13.12,2.6-26.35,4.61-39.52,6.97-5.77,1.03-11.53,2.18-17.25,3.49-13.18,3.01-26.35,6.08-39.3,10-7.01,2.12-14.23,3.6-21.12,6.04-9.38,3.31-19.04,5.58-28.5,8.58-9.46,3-19.14,5.26-28.61,8.25-8.06,2.55-16.21,4.83-24.29,7.33-6.06,1.87-12,4.13-18.11,5.82-7.85,2.17-15.39,5.23-23.06,7.88-5.43,1.88-10.87,3.91-15.88,6.85,3.45,13.39,7.12,26.72,11.4,39.88,1.9,5.82,3.97,11.59,6.12,17.33,6.48-2.22,12.92-4.48,19.37-6.71,2-.69,4.02-1.31,6.02-1.98,6.48-2.15,12.94-4.38,19.45-6.45,8.68-2.76,17.37-5.49,26.1-8.07,10.14-3,20.34-5.81,30.51-8.71,2.19-.62,4.4-1.19,6.58-1.86,6.38-1.95,12.72-4.02,19.12-5.88,6.72-1.96,13.49-3.74,20.24-5.6,11.93-3.28,23.83-6.64,35.8-9.78,6.14-1.61,12.42-2.71,18.6-4.2,8.1-1.95,16.32-3.27,24.56-4.43,13.73-1.94,27.48-3.71,41.23-5.51,3.23-.42,6.48-.69,9.73-1.03,4.54-.47,9.08-.95,13.63-1.41,6.98-.71,13.96-1.38,20.93-2.12,1.96-.21,3.91-.42,5.87-.65-.64-4.01-1.29-8.02-1.92-12.03-2.23-14.35-4.23-28.74-6.2-43.13-.18-1.34-.36-2.69-.54-4.04-1.41.17-2.79.12-4.23.05-4.89-.24-9.78-.35-14.67-.33Z"/><path class="cls-2" d="m490.07,427.69c-6.53.17-13.05.46-19.57.71-.49.02-.98.08-1.46.16-11.27,1.87-22.6,3.44-33.79,5.69-12.61,2.54-25.24,5.05-37.71,8.29-6.78,1.76-13.68,3.09-20.44,4.93-15.08,4.1-30.1,8.41-45.15,12.58-6.12,1.69-12.3,3.17-18.42,4.85-13.66,3.75-27.3,7.55-40.94,11.36-7.05,1.97-14.09,3.99-21.13,6.04-4.68,1.36-9.36,2.74-14,4.24-6.5,2.1-12.96,4.32-19.43,6.48-3.54,1.18-7.16,2.19-10.61,3.58-4.26,1.71-8.72,2.9-12.77,5.16,1.43,3.77,2.84,7.55,4.21,11.34,2.99,8.28,5.83,16.61,8.79,24.9,2.03,5.68,4.19,11.31,6.23,16.99,1.52,4.23,3.11,8.43,4.89,12.56.85-.32,1.71-.63,2.58-.9,8.83-2.81,17.69-5.57,26.63-8.04,14.12-3.9,28.3-7.63,42.49-11.27,13.57-3.48,27.19-6.79,40.8-10.1,4.75-1.16,9.58-1.97,14.32-3.18,7.89-2.01,15.73-4.2,23.58-6.35,7.54-2.06,15.05-4.21,22.6-6.22,6.29-1.67,12.47-3.74,18.94-4.79,3.52-.57,6.94-1.77,10.41-2.65,1.89-.48,3.79-.97,5.71-1.34,9.6-1.87,19.25-3.42,28.7-6.01,5.02-1.37,10.25-1.92,15.36-3,8.94-1.88,17.88-3.66,26.98-4.66,3.64-.4,7.28-.89,10.81-1.62-.93-11.96-1.94-23.9-3.99-35.73-1.94-11.16-3.88-22.32-5.76-33.5-1-.06-1.99-.11-2.99-.17-1.95-.11-3.91-.39-5.86-.34Z"/></svg>