<?xml version="1.0" encoding="UTF-8"?><svg id="Layer_1" xmlns="http://www.w3.org/2000/svg" viewBox="0 0 689.19 755.77"><defs><style>.cls-1{fill:#fdeee5;}.cls-2{fill:#fab51f;}.cls-3{fill:#f18412;}.cls-4{fill:#93d2e0;}.cls-5{fill:#0c3146;}</style></defs><path class="cls-5" d="m481.96,140.01c-.09-7.41-2.37-14.33-4.83-21.19-.75-2.1-2.36-3.55-4.45-4.28-1.49-.52-3.06-.92-4.62-1.05-3.17-.26-6.36-.48-9.53-.38-6.46.21-12.17,2.44-16.74,7.13-.89.92-1.7,2.11-2.05,3.33-1.33,4.7-2.46,9.45-3.8,14.72,1.31.04,2.28-.17,3.04.14,3.1,1.3,6.49,1.22,9.66,2.13,4.23,1.21,8.61,1.41,12.95,1.8,5.54.5,11.05,1.15,16.54,1.99,1.42.22,2.63.06,3.54-1.22.08-.36.21-.74.24-1.13.05-.66.06-1.32.05-1.99Zm-201.64-17.55c-.43-3.14-.81-6.29-1.36-9.4-.46-2.64-2.09-4.6-4.4-5.82-2.21-1.17-4.52-2.2-7.15-2.12-1.98.06-3.97-.19-5.95-.09-3.88.2-7.64,1.06-10.84,3.38-3.02,2.19-5.7,4.78-7.46,8.13-2.28,4.33-4.47,8.71-6.56,13.13-.78,1.66-1.22,3.49-1.74,5.27-.28.95-.13,1.85.92,2.32.28,0,.56.09.79.02,5.45-1.71,11.04-2.64,16.7-3.21,1.44-.15,2.89-.63,4.31-.56,3.46.18,6.87-.31,10.28-.64,3.28-.32,6.56-.8,9.82-1.32,2-.32,2.96-1.5,3.09-3.55.05-.78-.05-1.58-.12-2.37-.09-1.05-.19-2.1-.33-3.15Z"/><path class="cls-2" d="m433.08,142.92c-1.57.94-2.79.78-3.93.51-1.93-.45-3.8-1.18-5.75-1.54-1.8-.33-3.67-.32-5.21-.43-1.37-.85-1.85-1.9-2.19-3.08-.84-2.96-2.47-5.53-4.04-8.15-2.72-4.54-5.23-9.21-7.87-13.8-1.72-2.98-3.33-6.05-5.31-8.86-4.02-5.67-9.24-9.74-16.01-11.54-5.86-1.56-12.41-1.68-18.44-2.03-6.78-.4-13.6-.38-20.33.65-4.94.75-9.85,2.07-14.18,4.55-10.03,5.76-14.92,18.74-18.52,29.12-.91,2.62-1.94,5.21-2.95,7.8-.94,2.43-2.8,3.43-5.33,3.21-.92-.08-1.84-.22-2.74-.42-2.5-.54-4.96-.73-7.39.39-1.32.61-2.78.66-4.2.84-.25-.49-.43-.82-.68-1.29,3.05-3.9,4.64-8.56,6.48-13.07,5.14-12.61,12.28-26.32,21.09-36.76,7.12-8.44,18.47-12.17,29.09-13.55,8.07-1.05,16.24-1.4,24.38-1.19,8.52.22,17.07,1.04,25.3,3.24,6.19,1.65,11.82,4.32,15.39,9.83,9.72,15.01,15.17,32.8,22.17,49.16.57,1.33,1.03,2.74,1.34,4.15.16.71-.11,1.52-.18,2.28Z"/><path class="cls-4" d="m463.07,132.45c.82-3.84,2.58-7.2,4.67-10.42,1.66-2.55,3.4-5.04,5.37-7.3-.15-.06-.28-.15-.44-.2-1.11-.39-2.26-.71-3.43-.9-2.99,3.44-5.5,7.25-7.61,11.36-1.95,3.8-2.9,7.92-3.22,12.18-.11,1.47.03,2.91.78,4.23.18.32.41.6.67.82.57.05,1.15.1,1.72.15.4-.2.77-.5,1.22-.76-.55-3.16-.39-6.14.26-9.15Z"/><path class="cls-4" d="m259.66,124.73c-.46-4.2-.97-8.38-2.52-12.39-.85-2.2-2-4.08-3.43-5.67-1.07.46-2.11,1.02-3.1,1.73-.05.03-.09.07-.14.11,1.17,1.13,2.15,2.43,2.77,4.01,1.26,3.21,2.13,6.54,2.39,9.99.25,3.29.35,6.6.64,9.89.03.38.12.75.19,1.13.37-.04.75-.06,1.12-.04.9.05,1.8.05,2.7.02,0-.29,0-.59-.02-.88-.14-2.64-.32-5.28-.61-7.9Z"/><path class="cls-5" d="m219.5,706.6c-1.94.42-3.77.23-5.58-.24-3.2-.83-6.4-1.67-9.59-2.55-.76-.21-1.49-.54-2.21-.87-1.59-.74-2.46-2.04-2.49-3.76-.03-1.72,0-3.46.26-5.15.61-3.78,1.34-7.55,2.13-11.3.76-3.63,1.28-7.28,1.76-10.95.65-5,.86-10.02,1.29-15.02.4-4.6,1.15-9.17,1.74-13.76.03-.26.06-.53.09-.79.51-5.53.95-11.07,1.53-16.59.54-5.12,1.21-10.23,1.84-15.35.38-3.15.7-6.31,1.2-9.44.71-4.44,1.53-8.86,2.37-13.27.45-2.34,1.01-4.65,1.61-6.95.19-.73.71-1.37,1.09-2.06,2.98-.77,5.92-.54,8.76-.09,3.39.53,6.71,1.48,10.04,2.34,2.22.57,2.2.64,4.37,3.1-.03,1.02.09,2.36-.15,3.63-1.37,7.41-2.86,14.79-4.24,22.2-.61,3.25-1,6.53-1.57,9.79-.82,4.71-.76,9.51-1.39,14.21-.66,4.87-.69,9.77-1.19,14.64-.51,4.99-1.18,9.97-1.84,14.95-.68,5.11-1.37,10.22-2.18,15.31-.52,3.26-1.21,6.5-1.91,9.72-.92,4.26-1.86,8.53-2.92,12.76-.48,1.9-.96,3.88-2.84,5.51Z"/><path class="cls-5" d="m454.64,706.12c-1.42,1.88-2.91,2.29-4.52,2.56-2.73.46-5.44,1.08-8.18,1.53-1.68.28-3.4.53-5.1.5-2.21-.04-3.13-.85-3.65-2.94-.29-1.14-.4-2.34-.47-3.52-.06-1.19-.02-2.39.06-3.57.44-6.36-.17-12.7-.41-19.04-.24-6.33-.6-12.68-1.01-19-.39-5.97-.14-11.91-.15-17.86-.01-4.63-.43-9.29.03-13.87.57-5.67.84-11.35,1.17-17.03.41-7.13,1.38-14.23,1.36-21.39,0-.39.13-.78.2-1.18,1.72-2.8,4.54-4.08,7.45-4.93,3.93-1.14,7.97-1.9,11.96-2.81,1.35-.3,2.63-.09,3.83.6,1.37.78,2.25,1.89,2.17,3.51-.08,1.58-.13,3.2-.51,4.72-1.45,5.79-2.07,11.7-2.78,17.61-1.49,12.39-1.71,24.84-1.77,37.28-.03,5.66,0,11.37.68,17.03.05.39.07.79.07,1.19.06,7.94.14,15.88.18,23.82.02,3.44-.17,6.86.13,10.32.19,2.18-.49,4.44-.75,6.48Z"/><path class="cls-3" d="m217.64,155.45c.95-.25,1.78-.32,2.47-.66,6.87-3.43,14.34-4.64,21.79-5.82,3.52-.56,7.12-.56,10.68-.85,8.34-.67,16.69-.14,25.04-.06,8.08.08,16.17.1,24.25-.01,7.54-.1,15.09-.45,22.63-.62,3.18-.07,6.37.17,9.54.09,18.7-.48,37.36.88,56.04,1.2,5.57.1,11.17.07,16.68.74,6.6.8,13.25.52,19.81,1.4,4.08.55,8.21.5,12.26,1.08,5,.71,10.02.91,15.03,1.36,2.5.23,4.98.68,7.47,1.07,4.45.69,8.87,1.68,13.34,2.02,4.99.38,9.08,2.49,13.07,5.2,2.51,1.7,4.22,3.94,5.39,6.7,1.82,4.3,2.97,8.79,3.53,13.41.93,7.62,1.55,15.26,1.92,22.94.68,14.33-.26,28.62-.69,42.92-.75,25.05-1.65,50.09-2.51,75.13-.3,8.61-.38,17.25-1.1,25.83-.61,7.27-.74,14.57-1.52,21.8-.58,5.42-.62,10.84-1.11,16.25-.59,6.46-1.35,12.9-2.02,19.35-.48,4.61-.89,9.23-1.39,13.83-1.02,9.36-1.17,18.79-2,28.15-.9,10.18-1.05,20.37-1.49,30.56-.23,5.3-.16,10.63-.79,15.88-.86,7.25-1,14.53-1.46,21.8-.26,4.1-.55,8.2-1.1,12.26-.99,7.21-1.18,14.49-2.74,21.65-.98,4.5-1.4,9.14-2.29,13.69-1.38,6.99-4.19,13.37-8.01,19.34-1.96,3.06-4.51,5.56-7.61,7.44-4.1,2.49-8.44,4.37-13.13,5.52-8.01,1.97-16.14,2.91-24.36,3.21-7.54.28-15.09.42-22.61.94-5.7.39-11.4-.04-17.08.24-6.9.34-13.78-.14-20.66.12-13.26.5-26.5-.37-39.75-.48-2.25-.02-4.5.12-6.75.15-1.46.02-2.94.11-4.37-.1-7.24-1.07-14.56-.78-21.82-1.43-6.72-.6-13.43-1.3-20.15-1.96-.66-.06-1.32-.15-1.98-.17-6.5-.19-12.91-1.21-19.34-2.08-4.06-.55-8.16-.84-12.23-1.37-7.61-.99-15.23-2.04-22.5-4.7-7.07-2.58-12.25-7.2-15.34-14.13-2.55-5.74-3.98-11.82-5.03-17.94-1.65-9.65-2.76-19.38-3.29-29.18-.38-7.14-.6-14.28-.94-21.42-.31-6.63.17-13.25-.12-19.86-.39-8.75.03-17.49,0-26.23-.06-15.38.32-30.75.9-46.11.28-7.55.29-15.13,1-22.64,1.11-11.76,1.06-23.57,1.95-35.33.98-13.09,1.21-26.21,2.01-39.31.38-6.21.66-12.45,1.46-18.62.79-6.07.8-12.16,1.3-18.23.26-3.16.75-6.31.98-9.48.63-8.59,1.15-17.19,1.75-25.78.46-6.61.83-13.23,1.52-19.81.65-6.18,1.78-12.31,2.47-18.49.56-5,1.4-9.95,2.18-14.92.99-6.29,2.44-12.47,3.64-18.7.55-2.87,1.11-5.72,2.21-8.44,1.2-2.95,2.51-5.84,4.94-8.37Z"/><path class="cls-5" d="m503.92,253.46c-.12.53-.26,1.07-.39,1.59-.35,1.36-.71,2.74-1.42,3.95-1.07,1.83-2.79,2.62-4.8,3-2.62.5-5.24.67-7.9.56-5.96-.24-11.92-.39-17.88-.6-2.14-.08-4.21-.4-5.98-1.82-.88-1.79-.64-3.69-.26-5.46.65-2.97,1.62-5.86,2.46-8.78.35-1.23,1.09-2.1,2.24-2.44,8.82.82,17.56.83,26.29,1.11,1.32.04,2.66-.01,3.97.13,2.55.28,3.52,1.82,3.97,4.28.27,1.48.06,2.98-.27,4.46Z"/><path class="cls-5" d="m226.49,236.4c1.98,2.82,2.72,6.18,3.29,9.58.37,2.22-.85,4.26-2.96,5.06-.97.36-2.06.6-3.09.57-5.56-.14-11.13-.31-16.68-.64-1.68-.1-3.38-.66-4.99-1.23-1.74-.62-2.76-1.9-2.89-3.89-.18-2.77-.7-5.51-.36-8.3.24-1.92.4-2.16,2.51-3.57,3.02.61,5.99,1.18,8.95,1.82,3.93.85,7.86.98,11.83.34,1.44-.23,2.89-.47,4.4.27Z"/><path class="cls-1" d="m458.15,522.05c.49-4.76.73-9.02,1.01-11.67,4.1-37.76,10.41-76.73,8.94-114.56-.14-3.7-.46-7.4-2.88-10.96-2.16-1.1-4.52-2.7-7.13-3.55-3.75-1.22-7.6-2.34-11.64-2.2-.66.02-1.37.05-1.97-.16-2.82-1-5.75-.81-8.65-.97-.92-.05-1.91.04-2.76-.26-2.31-.82-4.7-.73-7.07-.82-5.56-.2-11.13-.37-16.69-.59-1.32-.05-2.63-.25-3.94-.42-1.44-.18-2.87-.53-4.3-.58-20.14-.69-40.28-1.33-60.42-1.98-1.06-.03-2.17-.17-3.16.1-1.97.55-3.94.42-5.92.36-3.31-.09-6.63-.21-9.94-.29-1.06-.03-2.18-.19-3.16.09-2.11.58-4.21.42-6.32.35-4.24-.13-8.48-.26-12.72-.43-1.19-.05-2.37-.19-3.55-.33-1.7-.21-3.39-.6-5.09-.66-13.65-.49-27.3-.92-40.95-1.36-1.06-.03-2.18-.26-3.17,0-3.16.82-6.33.39-9.49.36-2.11-.02-4.2.07-6.32.35-2.99.39-5.98,1.14-9.07.78-1.89-.22-3.66.37-5.48,1.27-.39.73-1.01,1.49-1.23,2.35-6.01,23.22-5.99,50-6.33,73.89-.37,26.09,1.02,52.18,3.54,78.15.41,4.17.9,8.51,3.21,12.01,3.97,6.01,12.97,6.27,19.31,6.13,9.75-.21,19.48-.18,29.23.15,19.53.65,39.02,2.25,58.5,3.77,41.34,3.22,80.96,2.94,122.23-.06,9.32-.68,12.16-16.11,13.4-28.24Z"/><path class="cls-4" d="m229.06,369.55c1.3-.13,2.68-.22,4.12-.31,32.82-1.97,65.79-2.97,98.67-2.16,42.51.96,84.97,4.53,127.05,10.69,12.77,1.87,11.93,9.7,6.41,18.92-6.91,11.55-12.46,23.65-18.64,35.57-4.73,9.12-10.89,17.39-21.4,19.9-7.65,1.82-15.64,1.2-23.48.61-27.32-2.05-54.69-3.55-82.07-4.5-13.69-.47-27.39-.81-41.09-1-11.27-.16-25.81,2.34-36.23-2.88-9.37-4.7-12.94-20.63-16.16-29.76-3.61-10.23-6.48-20.71-8.58-31.35-2.11-10.69,3.11-12.9,11.41-13.71Z"/><path class="cls-5" d="m338.13,397.98c.46,1.19.88,2.28,1.22,3.15-.21,2.5-1.42,3.9-3.75,4.44-.47,4.15-.46,8.22-.21,12.3.1,1.58.18,3.17.17,4.75,0,.5-.18,1.08-.48,1.47-.29.38-.86.81-1.27.77-.57-.06-1.41-.4-1.59-.84-.4-.94-.55-2.02-.62-3.06-.19-3.03-.28-6.07-.44-9.11-.01-.21-.2-.4-.45-.86-1.94,3.32-3.62,6.59-5.26,9.88-.47.95-.87,1.95-1.47,2.8-.34.48-1.02.92-1.59.98-.55.06-1.15-.39-1.61-.57-.5-1.66.3-2.82.86-3.97,1.04-2.14,2.22-4.22,3.33-6.33.92-1.76,1.93-3.48,2.72-5.3,1.21-2.78,2.59-5.53,2.21-8.72.71-.74,1.34-1.41,2.1-2.21,1.82-5.92,2.85-12.19,4.11-18.4,1.25-6.14,1.39-12.36,1.57-18.58.2-7.02.45-14.04.49-21.06.02-4.09-.31-8.19-.55-12.29-.28-4.75-.72-9.49-.94-14.25-.37-7.79-.56-15.6-.94-23.39-.34-6.99-.83-13.97-1.23-20.7.58-1.25,1.3-1.65,2.36-1.34,1.06.6,1.29,1.61,1.36,2.71.37,6.21.72,12.41,1.1,18.62.24,3.96.53,7.92.79,11.88.04.66.12,1.32.11,1.98-.15,7.95.45,15.89,1.18,23.78,1.35,14.71.56,29.38-.2,44.05-.24,4.73-1.36,9.42-2.15,14.11-.35,2.07-.86,4.12-1.31,6.23.95.15,1.04-.62,1.34-1.07,3.18-4.7,4.62-10.08,5.89-15.5,1.6-6.83,3.1-13.67,4.7-20.5.42-1.8,1.08-3.54,1.57-5.33,3.23-11.6,6.23-23.27,8.3-35.13,1.16-6.63,2.2-13.3,2.54-20.07.32-6.47.96-12.93,1.53-19.39.16-1.84.55-3.66.89-5.48.07-.36.34-.71.57-1.02.66-.87,2.26-.73,2.64.3.26.71.37,1.53.31,2.28-.55,6.73-1.17,13.45-1.72,20.17-.48,5.94-1.22,11.84-2.03,17.74-2,14.6-5.92,28.75-9.69,42.94-1.6,6.01-2.93,12.08-4.42,18.11-1.21,4.88-2.32,9.79-3.8,14.59-1.26,4.07-3.67,7.62-5.99,11.17-.72,1.1-1.49,2.17-2.24,3.25Z"/><path class="cls-5" d="m246.61,407.53c.11-3.31.13-6.63.34-9.94.42-6.47.91-12.94,1.44-19.41.31-3.82.63-7.65,1.16-11.45,1.76-12.64,1.35-25.39,2.03-38.09.2-3.83.71-7.64.93-11.47.28-5.03.34-10.07.61-15.1.51-9.65,1.09-19.31,1.67-28.96.06-1.04.23-2.12.56-3.11.87-2.63,1.92-3.47,4.65-3.45,2.65.01,5.35-.03,7.92.5,4.33.89,8.7.69,13.06.98,1.06.07,2.12.04,3.17.17,2.08.24,3.47,1.44,3.79,3.49.24,1.54.26,3.17.05,4.72-.72,5.38-1.56,10.74-1.74,16.18-.22,6.49-.37,12.99-.67,19.47-.15,3.17-.61,6.32-.85,9.49-.25,3.3-.33,6.62-.63,9.92-.76,8.3-1.54,16.61-2.41,24.9-1.88,17.82-1.93,35.72-2.32,53.6-.05,2.51.26,5.03.18,7.53-.07,2.37-.52,4.74-.65,7.11-.37,6.75-.63,13.51-1.01,20.26-.31,5.55-.93,11.09-1.04,16.65-.17,8.34-.11,16.69.03,25.03.13,7.54.5,15.08.75,22.62.28,8.47.36,16.94.86,25.39.46,7.81.39,15.61.51,23.42.1,6.35-.36,12.72-.55,19.08-.27,9.27-.54,18.55-.77,27.82-.04,1.45.16,2.9.25,4.36.04.66.13,1.32.11,1.98-.08,2.5-1.09,3.58-3.56,3.92-3.82.52-7.65.65-11.5.45-1.19-.06-2.38-.14-3.57-.23-2.37-.17-4.01-1.23-4.49-3.7-.4-2.08-1-4.14-1.18-6.23-.7-7.91-1.21-15.83-1.91-23.73-.6-6.73-.9-13.46-.94-20.22-.03-4.36-.52-8.71-.81-13.07-.02-.26-.02-.53-.02-.79-.13-6.49-.08-12.98-.44-19.45-.36-6.36.03-12.72-.25-19.06-.34-7.69.07-15.36.04-23.04-.03-5.95-.41-11.9-.68-17.84-.14-3.17-.36-6.34-.54-9.51-.38-6.87-.6-13.75-1.19-20.61-.4-4.64-.09-9.28-.44-13.88-.42-5.58.11-11.12.09-16.68Z"/><path class="cls-5" d="m400.59,264.22c1.25-2.03,2.74-2.89,4.7-3.26,4.98-.95,9.91-1.67,14.94-.32,1.26.34,2.63.25,3.95.4,2.36.26,4.23,1.46,4.41,4.25.11,1.71.38,3.43.34,5.14-.14,6.1-.05,12.22-.66,18.28-.75,7.39-.66,14.83-1.52,22.19-.91,7.78-1.07,15.59-1.49,23.4-.15,2.77-.48,5.53-.7,8.3-.12,1.45-.2,2.91-.25,4.37-.55,14.31-.77,28.64-1.72,42.92-.83,12.56-1.03,25.16-2.05,37.7-.52,6.34-.78,12.69-1.32,19.02-.44,5.14-.74,10.31-1.32,15.43-1.25,10.95-1.35,21.95-1.87,32.93-.31,6.48-.82,12.95-1.33,19.42-.91,11.49-1.2,23.03-2.1,34.5-1.24,15.74-1.21,31.51-2,47.26-.19,3.84-.25,7.69-.63,11.51-.29,2.88-.79,5.77-1.54,8.57-.82,3.06-2.1,3.96-5.13,3.94-5.72-.04-11.36-.69-16.74-2.84-1.61-.64-3.17-1.34-4.31-2.66-.8-1.5-.91-3.06-.85-4.68.21-5.7.08-11.43.67-17.08.69-6.6.77-13.22,1.39-19.81.66-6.98,1.47-13.95,2.26-20.92.68-6.05,1.28-12.11,2.16-18.13.83-5.65.78-11.37,1.43-17.02,1.31-11.49,1.38-23.02,1.5-34.54.09-8.61.12-17.22.34-25.82.17-6.89.39-13.78.76-20.67.35-6.48.85-12.95,1.42-19.41.71-8.04,1.41-16.09,2.4-24.1,1.56-12.5,2.3-25.04,2.61-37.63.35-14.31,1.06-28.61,1.52-42.92.3-9.14.7-18.29.56-27.43-.11-6.76.13-13.5.16-20.27Z"/><path class="cls-1" d="m482.53,144.37c-4.57-3.56-12.98-4.42-17.38-4.75-30.83-2.29-61.72-3.65-92.61-5.01-17.51-.77-35.02-1.54-52.52-2.31-16.55-.73-33.12-1.46-49.69-.91-16.6.55-48.99-1.34-50.34,21.12-2.14,35.59-2.24,72.42,5.09,107.36.4,1.93,1.06,3.84,1.87,5.63,1.61,3.54,4.42,5.52,8.38,5.68,2.52.1,5.03.16,7.55.28,1.19.06,2.37.2,3.55.34,38.77,4.8,77.15.16,116.02,2.22,13.78.73,27.46,2.74,41.19,4.04,18.3,1.72,38.23,3.58,56.55,1.28,7.39-.93,9.76-7.46,10.76-14.02,5.78-37.62,13.42-75.28,14.68-113.28.02-.66.06-1.33.03-1.99-.1-2.42-1.32-4.27-3.14-5.69Z"/><path class="cls-2" d="m486.44,172.54c1.39,3,.95,8.72-3.3,8.8-1.85.03-3.72-.03-5.55-.29-4.45-.64-8.87-1.43-13.31-2.15-1.56-.25-3.15-.39-4.7-.67-5.49-1-11.09-.85-16.58-1.54-5.14-.65-10.3-.67-15.42-1.26-13.31-1.54-26.7-1.43-40.06-2.02-5.56-.24-11.14-.54-16.69-.3-7.29.32-14.57-.21-21.83.13-7.69.36-15.35-.16-23.02-.1-5.02.04-10.05.18-15.07.26-6.08.1-12.18-.01-18.24.32-6.6.36-13.2.56-19.8.91-3.69.19-7.37.66-11.05.95-3.29.26-6.6.39-9.89.65-3.82.3-7.63.69-11.45,1-3.16.26-6.33.48-9.49.69-1.92.13-12.29,1.98-13.28.57-.21-.3-.23-.69-.23-1.06-.05-2.94-.11-5.88-.16-8.82-.05-2.54.84-3.11,3.38-3.52,4.3-.7,8.6-1.47,12.93-1.95,5.12-.56,10.27-.84,15.41-1.25,6.32-.5,12.64-1.04,18.96-1.5,3.82-.28,7.66-.44,11.48-.64,4.75-.25,9.51-.43,14.27-.47,5.01-.04,10.02-.68,15.03-.8,4.9-.11,9.82.39,14.7.13,9.68-.52,19.33.09,28.98.32,8.48.21,16.95.61,25.42.96,1.45.06,2.88.33,4.33.49,1.18.13,2.36.32,3.55.38,4.23.22,8.52.07,12.7.66,7.09.99,14.26.78,21.34,1.86,4.17.63,8.45.56,12.69.73,6.35.25,12.64,1.04,18.92,1.99,6.14.93,12.32,1.59,18.47,2.46,3.27.46,6.54.97,9.75,1.72,2.29.54,4.48,1.52,6.84,2.35Z"/><path class="cls-2" d="m251.89,240.25c1.31.16,2.64.21,3.92.49,2.91.64,4.91,2.42,6.07,5.16,1.11,2.62,1.48,5.33,1.04,8.13-.69,4.34-3.15,7.19-7.42,8.3-2.68.69-5.33,1.21-8.14.11-7.27-2.83-9.61-11.1-4.71-17.19.66-.82,1.49-1.49,2.2-2.27,1.9-2.07,4.09-3.34,7.04-2.74Z"/><path class="cls-2" d="m445.48,268.23c-6.32-.25-9.61-2.94-11.4-7.26-1.59-3.84-.36-10.9,5.3-13.53,1.51-.7,3.32-1.01,4.99-1.01,2.36,0,4.74.39,6.89,1.51,3.67,1.91,5.57,6.79,3.96,10.13-.98,2.01-1.83,4.12-3.05,5.98-1.87,2.83-4.68,4.16-6.68,4.19Z"/><path class="cls-5" d="m440.05,174c2.98.02,3.5.29,3.9,2.11.73,3.36,1.35,6.74,2.12,10.08.79,3.41.57,6.83.5,10.27-.15,7.5-9.59,10.03-13.94,7.14-1.81-1.2-2.91-2.7-2.96-4.84-.03-1.17.11-2.39.46-3.51.62-2.02,1.33-4.02,2.21-5.94,1.99-4.32,4.09-8.6,6.18-12.87.4-.82.97-1.56,1.53-2.45Zm-5.87,25.98c1.75,1.04,3.55.98,5.36.48,1.04-.29,2.04-.85,2.39-1.9.49-1.48,1.13-3.06,1.02-4.55-.28-3.65-.92-7.28-1.49-10.9-.08-.52.02-1.36-1.15-1.54-2.4,4.43-4.79,8.94-6.33,13.82-.43,1.36-.67,2.83.2,4.59Z"/><path class="cls-1" d="m247.35,312.46c2.48-1.48,4.62-1.67,6.69-2.01,1.95-.32,3.93-.47,5.9-.6,3.69-.24,7.4-.28,11.07-.67,3.3-.35,6.59-.41,9.89-.27,2.69.12,5.2.85,7.61,2.01,1.62.78,2.7,2.02,3.48,3.64,1.8,3.72,2.2,7.62,1.46,11.61-.75,4.02-1.68,7.99-1.94,12.11-.14,2.2-.92,4.38-1.55,6.53-.81,2.78-2.76,4.52-5.55,5.12-1.92.41-3.92.72-5.87.7-5.16-.05-10.35,0-15.47-.55-4.86-.51-9.72-.93-14.6-1.22-2.23-.14-3.68-1.3-4.39-3.41-1.01-3.03-1.67-6.15-1.57-9.34.09-2.89.48-5.78.8-8.67.3-2.75.36-5.55,1.37-8.19.9-2.33,1.82-4.66,2.66-6.81Zm17.79,28.16c.16-1.19.35-2.09.39-2.99.1-2.38.12-4.76.19-7.14.03-.92.03-1.86.16-2.77.17-1.15,1.04-1.81,2.23-1.84,1.16-.03,2.04.66,2.17,1.86.1.92.09,1.85.06,2.77-.09,3.41-.22,6.82-.34,10.6,4.58.21,9.12.63,13.16-1.95,2.18-4.76,1.83-9.57,1.63-14.29-.11-2.5-1.08-4.92-3.93-6.61-8.17-.22-16.73.29-25.29.85-.63.04-1.23.4-1.73.58-1.89,3.63-2.66,6.63-2.46,10.01.13,2.11.38,4.21.61,6.31.14,1.27.73,2.34,1.96,2.77,3.48,1.2,6.96,2.5,11.18,1.85Z"/><path class="cls-1" d="m391.78,310.94c2.49-.91,5.03-.81,7.5-1.17,4.64-.67,9.26-.58,13.85-.06,5.76.66,11.56,1.25,17.19,2.77.89.24,1.77.52,2.65.82,2.36.8,3.56,2.36,3.86,4.95.79,6.89.62,13.72-.56,20.54-.16.91-.18,1.85-.4,2.74-.42,1.66-.85,3.33-1.46,4.92-1.07,2.79-3.09,4.58-6.1,5.09-1.17.2-2.35.49-3.52.46-5.29-.16-10.61-.12-15.86-.72-4.21-.48-8.41-.85-12.63-1.11-3.79-.23-6.66-1.59-7.37-5.76-.24-1.43-.7-2.83-.86-4.26-.35-3.01-.78-6.04-.78-9.06,0-2.35.5-4.72.9-7.06.53-3.12,1.2-6.22,1.76-9.34.24-1.33.62-2.57,1.85-3.75Zm7.18,6.81c-.21.61-.44,1.09-.54,1.6-.51,2.73-1.14,5.44-1.43,8.19-.38,3.54-.53,7.11-.69,10.67-.06,1.21.32,2.35,1.52,3.37,4.18.39,8.49,1.89,13.15.89.15-.91.35-1.66.4-2.43.11-1.58.04-3.19.24-4.76.28-2.22.65-4.45,1.16-6.63.16-.68.83-1.35,1.44-1.77.44-.31,1.18-.19,1.78-.26.89,1.72.31,3.33.4,4.88.08,1.45.1,2.9.25,4.35.17,1.59.33,3.15-.45,5.2-.04.35,5.73,1.72,9.17,1.15.38-.75.83-1.3.95-1.92.48-2.46.93-4.93,1.24-7.42.34-2.75.21-5.54.91-8.27.32-1.23.51-2.62-.3-3.82-5.77-2.68-23.19-4.6-29.2-3.02Z"/><path class="cls-5" d="m307.77,180.59c.04,1.02.07,1.64.1,2.24-.43.27-.74.6-1.09.66-1.04.16-2.1.34-3.14.27-2.89-.19-5.78-.45-8.66-.79-.74-.09-1.43-.57-1.98-.8-.66-1.48-.04-2.2,1.14-2.75,4.35.37,8.79.76,13.63,1.17Z"/><path class="cls-5" d="m333.17,181.63c-.02,1.4-.71,1.96-1.67,2.18-.63.15-1.3.11-1.96.14-2.35.13-4.71.26-7.06.37-1.58.07-3.15.08-4.06-1.41-.06-1.1.44-1.64,1.25-1.92.49-.17,1.02-.34,1.53-.35,3.41-.04,6.82-.1,10.22-.01.63.02,1.24.7,1.73.99Z"/><path class="cls-5" d="m428.78,184.45c-.1,1.4-.83,1.91-1.8,2.08-.64.11-1.31.03-1.96.02-2.36-.02-4.71-.02-7.07-.06-1.58-.02-3.15-.11-3.96-1.65,0-1.1.53-1.61,1.37-1.84.5-.14,1.04-.28,1.55-.25,3.4.16,6.81.31,10.2.61.63.05,1.2.77,1.67,1.1Z"/><path class="cls-5" d="m260.56,182.81c-.2.3-.38.93-.77,1.09-1.07.46-2.2.94-3.34,1.02-2.62.17-5.25.11-7.87.14-1.11.01-2.11-.18-2.44-1.44.05-1.13.72-1.76,1.71-1.85,3.4-.32,6.81-.59,10.22-.77,1.09-.06,2.07.37,2.48,1.81Z"/><path class="cls-5" d="m464.27,187.71c-.25.26-.55.84-.95.93-1.13.25-2.34.53-3.47.39-2.6-.31-5.18-.85-7.76-1.3-1.1-.19-2.04-.56-2.14-1.86.25-1.1,1.03-1.59,2.02-1.5,3.4.31,6.8.67,10.19,1.11,1.08.14,1.97.75,2.11,2.23Z"/><path class="cls-5" d="m283.64,182.35c-4.85,1.49-9.2.92-13.63,1.32-.23-.66-.62-1.21-.5-1.58.19-.57.65-1.16,1.15-1.48.53-.33,1.25-.46,1.9-.5,2.77-.18,5.54-.33,8.31-.39.61-.01,1.35.26,1.82.66.41.35.53,1.04.95,1.97Z"/><path class="cls-5" d="m343.47,182.79c.08-.82-.06-1.57.24-1.99.33-.46,1.09-.89,1.65-.88,2.1.04,4.2.24,6.3.43,1.17.11,2.33.33,3.69.52.19.58.64,1.23.5,1.71-.15.52-.85.88-1.33,1.29-.09.08-.25.1-.38.1-3.53,0-7.06-.09-10.66-1.17Z"/><path class="cls-5" d="m237.15,184.47c-.48.47-.84,1.11-1.37,1.3-1.44.52-8.89.49-11.15.05-.08-.41-.39-.98-.22-1.35.24-.55.77-1.01,1.26-1.38.29-.21.75-.24,1.14-.25,2.64-.09,5.27-.17,7.91-.21.97-.01,1.81.34,2.43,1.84Z"/><path class="cls-5" d="m408.46,183.32c-.83.82-1.21,1.52-1.72,1.65-2.84.69-5.74.59-8.62.26-.25-.03-.49-.19-.72-.31-.9-.44-.99-1.19-.22-2.77,3.03-.32,6.18-.26,9.32-.16.52.02,1.02.67,1.96,1.33Z"/><path class="cls-5" d="m375.39,183.19c-.6.55-1,1.24-1.51,1.34-2.43.46-4.9.79-7.41-.39-.03-.57-.24-1.17-.03-1.53.3-.52.9-1.2,1.39-1.21,2.07-.04,4.16.07,6.22.31.45.05.81.87,1.34,1.48Z"/><path class="cls-5" d="m478.72,188.81c-.64.5-1.09,1.16-1.61,1.22-2.46.27-4.95.42-7.36-.94.01-.57-.15-1.19.08-1.52.34-.49.99-1.13,1.47-1.1,2.07.12,4.15.38,6.18.77.45.09.75.93,1.23,1.58Z"/><path class="cls-5" d="m390.5,183.42c-.2,1.7-1.31,2.32-2.48,2.26-1.52-.07-3.05-.49-4.52-.96-.98-.31-1.02-1.06-.32-2.68,2.5.03,5.27-1.07,7.31,1.38Z"/></svg>