<?xml version="1.0" standalone="no"?>
<!DOCTYPE svg PUBLIC "-//W3C//DTD SVG 20010904//EN"
 "http://www.w3.org/TR/2001/REC-SVG-20010904/DTD/svg10.dtd">
<svg version="1.0" xmlns="http://www.w3.org/2000/svg"
 width="512.000000pt" height="512.000000pt" viewBox="0 0 512.000000 512.000000"
 preserveAspectRatio="xMidYMid meet">

<g transform="translate(0.000000,512.000000) scale(0.100000,-0.100000)"
fill="#000000" stroke="none">
<path d="M4010 4272 c-18 -18 -30 -41 -30 -56 0 -14 -9 -35 -20 -46 -19 -19
-33 -20 -346 -20 l-326 0 -29 -29 -29 -29 0 -294 0 -293 -330 -260 c-181 -143
-346 -269 -367 -280 -33 -17 -61 -20 -214 -23 l-175 -4 -139 291 c-76 160
-143 295 -149 300 -6 5 -23 12 -38 16 -22 6 -33 1 -58 -23 -16 -17 -30 -37
-30 -46 0 -8 159 -352 354 -763 l354 -748 -156 -3 c-169 -3 -172 -2 -172 54 0
56 -48 221 -89 310 -141 301 -394 508 -721 590 -114 29 -384 27 -497 -4 -311
-84 -549 -277 -688 -557 -170 -342 -148 -732 58 -1049 376 -575 1188 -647
1660 -146 115 122 223 312 235 416 4 35 1 44 -23 62 -31 25 -44 27 -79 11 -17
-8 -34 -36 -61 -100 -132 -319 -416 -534 -750 -569 -552 -58 -1030 394 -1002
945 11 228 95 422 251 584 183 189 397 281 656 281 256 0 471 -91 651 -277
141 -144 216 -300 253 -521 l6 -33 -77 3 -77 3 -12 65 c-53 289 -294 534 -583
596 -84 18 -238 18 -322 0 -216 -46 -413 -199 -513 -398 -66 -134 -81 -197
-80 -353 0 -120 3 -138 33 -224 71 -208 207 -363 397 -452 114 -54 198 -72
329 -72 180 1 329 53 465 162 147 118 254 297 278 465 l7 51 390 5 c215 3 395
8 401 12 6 4 166 336 355 738 189 401 347 726 350 722 19 -19 228 -477 220
-480 -31 -10 -162 -114 -224 -176 -349 -353 -405 -903 -134 -1320 107 -164
254 -292 432 -377 294 -140 616 -140 910 0 386 184 625 583 602 1005 -26 469
-340 853 -800 978 -71 20 -106 22 -262 22 -162 -1 -189 -3 -265 -26 -47 -14
-92 -28 -100 -32 -12 -5 -47 63 -163 306 l-147 313 2 250 3 250 300 5 c293 5
301 6 338 28 117 73 146 244 45 268 -22 5 -33 0 -58 -24z m-918 -1079 c-5 -10
-125 -267 -268 -570 -142 -304 -261 -553 -264 -553 -6 0 -340 701 -340 712 0
3 66 8 148 10 206 6 210 8 495 233 127 101 233 184 235 185 1 0 -1 -8 -6 -17z
m1124 -414 c191 -33 356 -122 495 -266 118 -121 192 -254 235 -423 25 -99 26
-314 1 -413 -86 -344 -357 -609 -702 -684 -91 -20 -279 -20 -370 0 -345 75
-616 339 -702 684 -25 99 -24 314 1 413 27 106 66 196 125 287 55 87 179 213
256 262 l50 32 31 -68 31 -67 -56 -41 c-461 -341 -392 -1053 125 -1296 112
-53 198 -72 324 -72 126 0 212 19 324 72 189 89 327 245 397 452 30 86 33 104
33 224 1 156 -14 219 -80 353 -155 309 -510 474 -849 393 -44 -11 -81 -19 -81
-18 -5 6 -64 127 -64 131 0 4 138 42 180 49 52 9 239 7 296 -4z m-3011 -304
c142 -36 276 -129 357 -247 42 -63 98 -201 98 -243 l0 -25 -309 0 c-297 0
-309 -1 -335 -21 -33 -26 -36 -79 -6 -109 19 -19 33 -20 335 -20 l315 0 0 -24
c0 -42 -38 -149 -75 -211 -75 -125 -192 -219 -335 -268 -73 -26 -100 -30 -190
-30 -91 0 -116 4 -190 30 -300 103 -470 401 -405 707 46 216 227 403 445 460
73 19 221 20 295 1z m3000 0 c447 -113 614 -660 305 -997 -77 -84 -152 -134
-260 -171 -73 -26 -99 -30 -190 -30 -91 0 -117 4 -190 30 -445 154 -563 715
-217 1029 33 29 66 54 72 54 6 0 72 -126 145 -281 73 -154 141 -284 151 -290
50 -26 109 7 109 61 0 17 -52 139 -124 293 -69 145 -126 270 -128 278 -8 35
217 52 327 24z"/>
<path d="M1327 4134 c-67 -21 -122 -78 -143 -149 -24 -85 -2 -166 63 -227 61
-58 59 -58 586 -58 573 0 520 -14 525 135 5 124 -13 188 -69 244 -69 69 -87
71 -528 70 -310 0 -395 -3 -434 -15z m854 -163 c24 -24 29 -38 29 -75 l0 -46
-423 0 c-467 0 -446 -3 -462 62 -6 22 -1 33 23 58 l30 30 387 0 387 0 29 -29z"/>
</g>
</svg>
